<svg xmlns="http://www.w3.org/2000/svg" xmlns:xlink="http://www.w3.org/1999/xlink" viewBox="0 0 119.23 137.62"><defs><style>.cls-1{isolation:isolate;}.cls-2{fill:url(#linear-gradient);}.cls-3{fill:url(#linear-gradient-2);}.cls-4{fill:url(#linear-gradient-3);}.cls-5{mix-blend-mode:overlay;fill:url(#linear-gradient-4);}.cls-6{opacity:0.42;fill:url(#linear-gradient-5);}.cls-7{fill:url(#linear-gradient-6);}.cls-8{fill:url(#linear-gradient-7);}.cls-9{fill:url(#linear-gradient-8);}.cls-10{fill:url(#linear-gradient-9);}.cls-11{opacity:0.32;fill:url(#linear-gradient-10);}</style><linearGradient id="linear-gradient" x1="47.83" y1="53.21" x2="93.27" y2="53.21" gradientUnits="userSpaceOnUse"><stop offset="0" stop-color="#8a0bff"/><stop offset="1" stop-color="#2a0056"/></linearGradient><linearGradient id="linear-gradient-2" x1="40.94" y1="40.24" x2="79.92" y2="63.58" gradientUnits="userSpaceOnUse"><stop offset="0" stop-color="#8a0bff" stop-opacity="0"/><stop offset="1" stop-color="#2a0056"/></linearGradient><linearGradient id="linear-gradient-3" x1="77.28" y1="93.29" x2="77.28" y2="19.04" gradientUnits="userSpaceOnUse"><stop offset="0" stop-color="#a553ff"/><stop offset="1" stop-color="#ae38ff"/></linearGradient><linearGradient id="linear-gradient-4" x1="73.89" y1="58.74" x2="104.31" y2="68.59" gradientUnits="userSpaceOnUse"><stop offset="0" stop-color="#af53ff"/><stop offset="0.16" stop-color="#af4dff" stop-opacity="0.8"/><stop offset="0.39" stop-color="#af46ff" stop-opacity="0.52"/><stop offset="0.6" stop-color="#ae40ff" stop-opacity="0.29"/><stop offset="0.78" stop-color="#ae3cff" stop-opacity="0.13"/><stop offset="0.92" stop-color="#ae39ff" stop-opacity="0.04"/><stop offset="1" stop-color="#ae38ff" stop-opacity="0"/></linearGradient><linearGradient id="linear-gradient-5" x1="53.95" y1="59.54" x2="94.27" y2="79.37" gradientUnits="userSpaceOnUse"><stop offset="0" stop-color="#8a0bff"/><stop offset="1" stop-color="#2a0056" stop-opacity="0"/></linearGradient><linearGradient id="linear-gradient-6" x1="21.47" y1="84.4" x2="66.9" y2="84.4" gradientUnits="userSpaceOnUse"><stop offset="0" stop-color="#3d0056"/><stop offset="1" stop-color="#ff0ba2"/></linearGradient><linearGradient id="linear-gradient-7" x1="43.38" y1="74.12" x2="70.11" y2="110.86" gradientUnits="userSpaceOnUse"><stop offset="0" stop-color="#3d0056"/><stop offset="1" stop-color="#e33fc5"/></linearGradient><linearGradient id="linear-gradient-8" x1="37.45" y1="118.57" x2="37.45" y2="44.33" gradientUnits="userSpaceOnUse"><stop offset="0" stop-color="#df38ff"/><stop offset="1" stop-color="#ff39ff"/></linearGradient><linearGradient id="linear-gradient-9" x1="12.82" y1="64.98" x2="67.64" y2="90.08" gradientUnits="userSpaceOnUse"><stop offset="0" stop-color="#9e0082"/><stop offset="1" stop-color="#ff39ff" stop-opacity="0"/></linearGradient><linearGradient id="linear-gradient-10" x1="691.87" y1="19.79" x2="732.18" y2="39.62" gradientTransform="translate(752.64 97.87) rotate(180)" xlink:href="#linear-gradient-5"/></defs><g class="cls-1"><g id="OBJECTS"><path class="cls-2" d="M60.92,13.14H47.83L74.76,65.79,61.29,93.29H77.15a6.2,6.2,0,0,0,5.57-3.48l9.49-19.38a10.35,10.35,0,0,0-.08-9.25L70.58,19A10.86,10.86,0,0,0,60.92,13.14Z"/><path class="cls-3" d="M60.92,13.14H47.83L74.76,65.79,61.29,93.29H77.15a6.2,6.2,0,0,0,5.57-3.48l9.49-19.38a10.35,10.35,0,0,0-.08-9.25L70.58,19A10.86,10.86,0,0,0,60.92,13.14Z"/><path class="cls-4" d="M70.58,19c10.73,21,11.57,31.65,4.18,46.75L61.29,93.29H77.15a6.2,6.2,0,0,0,5.57-3.48l9.49-19.38a10.35,10.35,0,0,0-.08-9.25Z"/><path class="cls-5" d="M70.58,19c10.73,21,11.57,31.65,4.18,46.75L61.29,93.29H77.15a6.2,6.2,0,0,0,5.57-3.48l9.49-19.38a10.35,10.35,0,0,0-.08-9.25Z"/><path class="cls-6" d="M92.13,61.18,86.05,49.29c.42,6.82-1.23,13-4.77,20.25L69.66,93.29h7.49a6.2,6.2,0,0,0,5.57-3.48l9.49-19.38A10.35,10.35,0,0,0,92.13,61.18Z"/><path class="cls-7" d="M53.81,124.48H66.9L40,71.83l13.47-27.5H37.58A6.2,6.2,0,0,0,32,47.81L22.52,67.19a10.33,10.33,0,0,0,.08,9.24l21.55,42.14A10.86,10.86,0,0,0,53.81,124.48Z"/><path class="cls-8" d="M53.81,124.48H66.9L40,71.83l13.47-27.5H37.58A6.2,6.2,0,0,0,32,47.81L22.52,67.19a10.33,10.33,0,0,0,.08,9.24l21.55,42.14A10.86,10.86,0,0,0,53.81,124.48Z"/><path class="cls-9" d="M44.15,118.57C33.42,97.59,32.58,86.93,40,71.83l13.47-27.5H37.58A6.2,6.2,0,0,0,32,47.81L22.52,67.19a10.33,10.33,0,0,0,.08,9.24Z"/><path class="cls-10" d="M44.15,118.57C33.42,97.59,32.58,86.93,40,71.83l13.47-27.5H37.58A6.2,6.2,0,0,0,32,47.81L22.52,67.19a10.33,10.33,0,0,0,.08,9.24Z"/><path class="cls-11" d="M22.6,76.43l6.08,11.89c-.41-6.81,1.23-13,4.77-20.25L45.08,44.33h-7.5A6.2,6.2,0,0,0,32,47.81L22.52,67.19A10.33,10.33,0,0,0,22.6,76.43Z"/></g></g></svg>