<svg xmlns="http://www.w3.org/2000/svg" xmlns:xlink="http://www.w3.org/1999/xlink" viewBox="0 0 300 137.62"><defs><style>.cls-1{isolation:isolate;}.cls-2{fill:url(#linear-gradient);}.cls-3{fill:url(#linear-gradient-2);}.cls-4{fill:url(#linear-gradient-3);}.cls-5{mix-blend-mode:overlay;fill:url(#linear-gradient-4);}.cls-6{opacity:0.42;fill:url(#linear-gradient-5);}.cls-7{fill:url(#linear-gradient-6);}.cls-8{fill:url(#linear-gradient-7);}.cls-9{fill:url(#linear-gradient-8);}.cls-10{fill:url(#linear-gradient-9);}.cls-11{opacity:0.32;fill:url(#linear-gradient-10);}</style><linearGradient id="linear-gradient" x1="34.04" y1="53.21" x2="79.48" y2="53.21" gradientUnits="userSpaceOnUse"><stop offset="0" stop-color="#8a0bff"/><stop offset="1" stop-color="#2a0056"/></linearGradient><linearGradient id="linear-gradient-2" x1="27.15" y1="40.24" x2="66.14" y2="63.58" gradientUnits="userSpaceOnUse"><stop offset="0" stop-color="#8a0bff" stop-opacity="0"/><stop offset="1" stop-color="#2a0056"/></linearGradient><linearGradient id="linear-gradient-3" x1="63.49" y1="93.29" x2="63.49" y2="19.04" gradientUnits="userSpaceOnUse"><stop offset="0" stop-color="#a553ff"/><stop offset="1" stop-color="#ae38ff"/></linearGradient><linearGradient id="linear-gradient-4" x1="60.1" y1="58.74" x2="90.52" y2="68.59" gradientUnits="userSpaceOnUse"><stop offset="0" stop-color="#af53ff"/><stop offset="0.16" stop-color="#af4dff" stop-opacity="0.8"/><stop offset="0.39" stop-color="#af46ff" stop-opacity="0.52"/><stop offset="0.6" stop-color="#ae40ff" stop-opacity="0.29"/><stop offset="0.78" stop-color="#ae3cff" stop-opacity="0.13"/><stop offset="0.92" stop-color="#ae39ff" stop-opacity="0.04"/><stop offset="1" stop-color="#ae38ff" stop-opacity="0"/></linearGradient><linearGradient id="linear-gradient-5" x1="40.17" y1="59.54" x2="80.48" y2="79.37" gradientUnits="userSpaceOnUse"><stop offset="0" stop-color="#8a0bff"/><stop offset="1" stop-color="#2a0056" stop-opacity="0"/></linearGradient><linearGradient id="linear-gradient-6" x1="7.68" y1="84.4" x2="53.12" y2="84.4" gradientUnits="userSpaceOnUse"><stop offset="0" stop-color="#3d0056"/><stop offset="1" stop-color="#ff0ba2"/></linearGradient><linearGradient id="linear-gradient-7" x1="29.59" y1="74.12" x2="56.33" y2="110.86" gradientUnits="userSpaceOnUse"><stop offset="0" stop-color="#3d0056"/><stop offset="1" stop-color="#e33fc5"/></linearGradient><linearGradient id="linear-gradient-8" x1="23.66" y1="118.57" x2="23.66" y2="44.33" gradientUnits="userSpaceOnUse"><stop offset="0" stop-color="#df38ff"/><stop offset="1" stop-color="#ff39ff"/></linearGradient><linearGradient id="linear-gradient-9" x1="-0.97" y1="64.98" x2="53.85" y2="90.08" gradientUnits="userSpaceOnUse"><stop offset="0" stop-color="#9e0082"/><stop offset="1" stop-color="#ff39ff" stop-opacity="0"/></linearGradient><linearGradient id="linear-gradient-10" x1="-20.47" y1="19.79" x2="19.84" y2="39.62" gradientTransform="translate(26.52 97.87) rotate(180)" xlink:href="#linear-gradient-5"/></defs><g class="cls-1"><g id="OBJECTS"><path class="cls-2" d="M47.13,13.14H34L61,65.79,47.51,93.29H63.36a6.21,6.21,0,0,0,5.58-3.48l9.49-19.38a10.35,10.35,0,0,0-.08-9.25L56.79,19A10.84,10.84,0,0,0,47.13,13.14Z"/><path class="cls-3" d="M47.13,13.14H34L61,65.79,47.51,93.29H63.36a6.21,6.21,0,0,0,5.58-3.48l9.49-19.38a10.35,10.35,0,0,0-.08-9.25L56.79,19A10.84,10.84,0,0,0,47.13,13.14Z"/><path class="cls-4" d="M56.79,19C67.53,40,68.36,50.69,61,65.79L47.51,93.29H63.36a6.21,6.21,0,0,0,5.58-3.48l9.49-19.38a10.35,10.35,0,0,0-.08-9.25Z"/><path class="cls-5" d="M56.79,19C67.53,40,68.36,50.69,61,65.79L47.51,93.29H63.36a6.21,6.21,0,0,0,5.58-3.48l9.49-19.38a10.35,10.35,0,0,0-.08-9.25Z"/><path class="cls-6" d="M78.35,61.18,72.26,49.29c.42,6.82-1.23,13-4.76,20.25L55.87,93.29h7.49a6.21,6.21,0,0,0,5.58-3.48l9.49-19.38A10.35,10.35,0,0,0,78.35,61.18Z"/><path class="cls-7" d="M40,124.48h13.1L26.19,71.83l13.46-27.5H23.8a6.21,6.21,0,0,0-5.58,3.48L8.73,67.19a10.33,10.33,0,0,0,.08,9.24l21.56,42.14A10.83,10.83,0,0,0,40,124.48Z"/><path class="cls-8" d="M40,124.48h13.1L26.19,71.83l13.46-27.5H23.8a6.21,6.21,0,0,0-5.58,3.48L8.73,67.19a10.33,10.33,0,0,0,.08,9.24l21.56,42.14A10.83,10.83,0,0,0,40,124.48Z"/><path class="cls-9" d="M30.37,118.57c-10.74-21-11.58-31.64-4.18-46.74l13.46-27.5H23.8a6.21,6.21,0,0,0-5.58,3.48L8.73,67.19a10.33,10.33,0,0,0,.08,9.24Z"/><path class="cls-10" d="M30.37,118.57c-10.74-21-11.58-31.64-4.18-46.74l13.46-27.5H23.8a6.21,6.21,0,0,0-5.58,3.48L8.73,67.19a10.33,10.33,0,0,0,.08,9.24Z"/><path class="cls-11" d="M8.81,76.43l6.08,11.89c-.41-6.81,1.24-13,4.77-20.25L31.29,44.33H23.8a6.21,6.21,0,0,0-5.58,3.48L8.73,67.19A10.33,10.33,0,0,0,8.81,76.43Z"/><path d="M94.13,34.82a3.74,3.74,0,0,1,3.75-3.75h8.29c12.42,0,20.94,5.77,20.94,20.19s-8.52,20.58-20.32,20.58H97.88a3.74,3.74,0,0,1-3.75-3.75Zm11.41,28.36c5.9,0,10.54-2.38,10.54-11.92s-4.64-11.53-10.54-11.53h-.63V63.18Z"/><path d="M135,56.16c0-10.16,7.4-16.43,15-16.43,9.28,0,13.67,6.77,13.67,15.17,0,.31,0,.62,0,.92a3.75,3.75,0,0,1-3.75,3.6H145.43c1,3.76,3.76,5,7.28,5a11.08,11.08,0,0,0,3.6-.62,3.81,3.81,0,0,1,4.5,1.85h0a3.74,3.74,0,0,1-1.76,5.24,21.18,21.18,0,0,1-7.85,1.68C142,72.59,135,66.57,135,56.16Zm19.57-3.77c0-2.38-1-4.51-4.27-4.51-2.38,0-4.39,1.38-5,4.51Z"/><path d="M172.59,65,175,61.55c2.89,2.13,5.46,3.14,7.66,3.14s3.13-.63,3.13-1.88c0-1.64-2.88-2.39-6-3.64-3.64-1.44-7.9-4.14-7.9-9.28,0-6.15,5-10.16,12.42-10.16a17.4,17.4,0,0,1,7.8,1.8,3.74,3.74,0,0,1,1.31,5.59l-2.34,3.14c-2.26-1.63-4.45-2.63-6.4-2.63s-2.76.5-2.76,1.75c0,1.63,2.76,2.26,5.9,3.39,3.76,1.38,8,3.76,8,9.41,0,5.89-4.64,10.41-13.42,10.41a20.3,20.3,0,0,1-8.51-2.11A3.72,3.72,0,0,1,172.59,65Z"/><path d="M211.3,71.84H208a3.75,3.75,0,0,1-3.75-3.75l1.84-25.38a2.4,2.4,0,0,1,2.4-2.23h2.31a2.4,2.4,0,0,1,2.4,2.23l1.84,25.38A3.75,3.75,0,0,1,211.3,71.84Z"/><path d="M223.71,77c0-2.57,1.5-4.52,4.39-6v-.25a6.2,6.2,0,0,1-2.89-5.4,7.66,7.66,0,0,1,3.51-5.89v-.25a9.75,9.75,0,0,1-4.26-8c0-7.78,6.52-11.41,13.42-11.41a16.25,16.25,0,0,1,5,.75h7.91a3.75,3.75,0,0,1,3.75,3.75v.27a3.75,3.75,0,0,1-3.75,3.76h-.76a11.11,11.11,0,0,1,.5,3.26c0,7.4-5.64,10.41-12.67,10.41a16,16,0,0,1-3.51-.44,2,2,0,0,0-.75,1.82c0,1.38,1.25,1.88,4.39,1.88h4.7c7.84,0,12.36,2.38,12.36,8.15,0,6.78-7,11.42-18.19,11.42C229.73,84.76,223.71,82.62,223.71,77Zm21.07-1.76c0-1.63-1.51-1.88-4.2-1.88h-2.45a16.62,16.62,0,0,1-4.51-.37,3,3,0,0,0-1.13,2.25c0,2,2.51,2.89,6.14,2.89S244.78,77,244.78,75.22Zm-3.51-24.08c0-2.88-1.38-4.27-3.39-4.27s-3.39,1.39-3.39,4.27,1.38,4.39,3.39,4.39S241.27,54.15,241.27,51.14Z"/><path d="M266.59,40.48h2a3.75,3.75,0,0,1,3.68,3l.15.75h.25c2.51-2.38,5.64-4.51,9.91-4.51,6.9,0,9.78,5,9.78,12.79V71.84H281.53V53.9c0-4-1-5-3.13-5s-3.14.88-4.77,2.38V71.84H262.84V44.23A3.75,3.75,0,0,1,266.59,40.48Z"/><circle cx="209.66" cy="34.81" r="3.99"/><path d="M97.87,106.11a2.62,2.62,0,0,1,2.54,1.79c.8,2.66,3.44,3.73,6.37,3.73,2.3,0,5.81-.67,5.81-3.72,0-3.26-4.52-3.72-8.87-4.94s-8.9-3-8.9-8.48c0-6.15,5.77-9,11.16-9,5.07,0,9.81,1.8,11.4,6.19a2.56,2.56,0,0,1-2.4,3.43h-1.33a2.49,2.49,0,0,1-2.37-1.61c-.78-2.25-3-2.91-5.59-2.91-2.09,0-4.52.88-4.52,3.39,0,2.3,1.43,2.64,8.91,4.52,2.22.5,8.87,2,8.87,8.7,0,5.47-4.27,9.57-12.42,9.57-5.54,0-10.81-2.29-12.3-7.35a2.56,2.56,0,0,1,2.45-3.27Z"/><path d="M146.35,91.68H140a2.55,2.55,0,0,1-2.55-2.55v-.42A2.55,2.55,0,0,1,140,86.16h19.36a2.55,2.55,0,0,1,2.55,2.55v.42a2.55,2.55,0,0,1-2.55,2.55h-6.4v21.79a2.55,2.55,0,0,1-2.55,2.55H148.9a2.55,2.55,0,0,1-2.55-2.55Z"/><path d="M189.94,104.4,181.27,90a2.55,2.55,0,0,1,2.19-3.87h1.43a2.56,2.56,0,0,1,2.19,1.25L193.32,98l6.21-10.54a2.54,2.54,0,0,1,2.19-1.26h1.35A2.55,2.55,0,0,1,205.26,90l-8.76,14.53v8.91A2.55,2.55,0,0,1,194,116h-1.46a2.55,2.55,0,0,1-2.55-2.55Z"/><path d="M230.5,86.16H232a2.56,2.56,0,0,1,2.55,2.55V110.5h12a2.55,2.55,0,0,1,2.55,2.55v.42a2.55,2.55,0,0,1-2.55,2.55h-16a2.55,2.55,0,0,1-2.55-2.55V88.71A2.55,2.55,0,0,1,230.5,86.16Z"/><path d="M272.21,86.16h17.23A2.56,2.56,0,0,1,292,88.71v.42a2.55,2.55,0,0,1-2.55,2.55H276.22v6.4h11.92a2.55,2.55,0,0,1,2.55,2.55h0a2.55,2.55,0,0,1-2.55,2.55H276.22v7.32h13.55a2.55,2.55,0,0,1,2.55,2.55v.42a2.55,2.55,0,0,1-2.55,2.55H272.21a2.55,2.55,0,0,1-2.55-2.55V88.71A2.55,2.55,0,0,1,272.21,86.16Z"/></g></g></svg>