<svg xmlns="http://www.w3.org/2000/svg" xmlns:xlink="http://www.w3.org/1999/xlink" viewBox="0 0 400 300"><defs><style>.cls-1{fill:none;}.cls-12,.cls-13,.cls-19,.cls-2,.cls-21,.cls-23,.cls-24,.cls-3,.cls-9{isolation:isolate;}.cls-3{fill:#6d6d6d;}.cls-16,.cls-24,.cls-3,.cls-9{opacity:0.4;}.cls-4{fill:#ececec;}.cls-5{fill:#f0f0f0;}.cls-6{fill:#e1e1e1;}.cls-7{fill:#f5f5f5;}.cls-8{fill:#007cff;}.cls-10,.cls-13,.cls-16,.cls-17,.cls-19,.cls-21,.cls-24{fill:#fff;}.cls-11{fill:#1a2e35;}.cls-12,.cls-21{opacity:0.6;}.cls-13{opacity:0.9;}.cls-14{opacity:0.1;}.cls-15,.cls-20,.cls-23{opacity:0.2;}.cls-17,.cls-19{opacity:0.7;}.cls-18{fill:#fbb273;}.cls-22{fill:#eb863e;}.cls-25{clip-path:url(#clip-path);}.cls-26{opacity:0.3;mix-blend-mode:multiply;}.cls-27{fill:#ebb70c;}</style><clipPath id="clip-path"><rect class="cls-1" x="509.75" y="-341.66" width="238.36" height="353.7" transform="translate(464.13 -793.74) rotate(90)"/></clipPath></defs><g class="cls-2"><g id="OBJECTS"><rect class="cls-3" x="13.86" y="25.9" width="372.3" height="248.2" rx="17.16"/><rect class="cls-4" x="42.61" y="238.86" width="314.8" height="0.16"/><rect class="cls-4" x="305.01" y="249" width="20.85" height="0.16"/><rect class="cls-4" x="245.67" y="250.7" width="5.47" height="0.16"/><rect class="cls-4" x="292.3" y="243.15" width="12.08" height="0.16"/><rect class="cls-4" x="75.64" y="244.21" width="27.19" height="0.16"/><rect class="cls-4" x="108.44" y="244.21" width="3.99" height="0.16"/><rect class="cls-4" x="125.39" y="246.87" width="58.98" height="0.16"/><path class="cls-4" d="M160.88,210.78H39.31a3.6,3.6,0,0,1-3.6-3.59V36.3a3.61,3.61,0,0,1,3.6-3.6H160.88a3.6,3.6,0,0,1,3.59,3.6V207.19A3.59,3.59,0,0,1,160.88,210.78ZM39.31,32.86a3.44,3.44,0,0,0-3.44,3.44V207.19a3.45,3.45,0,0,0,3.44,3.44H160.88a3.45,3.45,0,0,0,3.44-3.44V36.3a3.45,3.45,0,0,0-3.44-3.44Z"/><path class="cls-4" d="M338.77,210.78H217.19a3.59,3.59,0,0,1-3.59-3.59V36.3a3.6,3.6,0,0,1,3.59-3.6H338.77a3.6,3.6,0,0,1,3.59,3.6V207.19A3.59,3.59,0,0,1,338.77,210.78ZM217.19,32.86a3.44,3.44,0,0,0-3.43,3.44V207.19a3.44,3.44,0,0,0,3.43,3.44H338.77a3.44,3.44,0,0,0,3.43-3.44V36.3a3.44,3.44,0,0,0-3.43-3.44Z"/><path class="cls-5" d="M141.15,182.28l-8.71,7.29,12.42,18.05,9.92-5.54a58.59,58.59,0,0,0,18.38,12l-1,11.28,21.55,4,3.1-10.9a58.55,58.55,0,0,0,21.43-4.59l7.29,8.71,18-12.42L238,200.18a58.71,58.71,0,0,0,12-18.38l11.28,1,4-21.55-10.9-3.1a58.5,58.5,0,0,0-4.59-21.43l8.71-7.29-12.42-18-9.92,5.53a58.57,58.57,0,0,0-18.38-12l1-11.29-21.55-4-3.1,10.91a58.55,58.55,0,0,0-21.43,4.59l-7.29-8.71-18,12.42,5.54,9.92a58.59,58.59,0,0,0-12,18.38l-11.29-1-4,21.55,10.91,3.1A58.55,58.55,0,0,0,141.15,182.28Zm25.13-28.17a29.67,29.67,0,1,1,23.78,34.56A29.67,29.67,0,0,1,166.28,154.11Z"/><path class="cls-5" d="M320.72,173.42l6.81,1.26,1-3.45a18.41,18.41,0,0,0,6.77-1.45l2.31,2.75,5.7-3.92-1.75-3.14a18.34,18.34,0,0,0,3.78-5.81l3.57.32,1.26-6.81-3.45-1a18.41,18.41,0,0,0-1.45-6.77l2.75-2.31-3.92-5.71-3.14,1.75a18.69,18.69,0,0,0-5.81-3.78l.32-3.56-6.81-1.26-1,3.44a18.62,18.62,0,0,0-6.77,1.46l-2.31-2.76-5.71,3.93,1.75,3.14a18.44,18.44,0,0,0-3.77,5.8l-3.57-.31L306,152.06l3.45,1a18.41,18.41,0,0,0,1.45,6.77l-2.76,2.31,3.93,5.7,3.14-1.75a18.23,18.23,0,0,0,5.81,3.78Zm-1.86-22.51a9.38,9.38,0,1,1,7.52,10.92A9.38,9.38,0,0,1,318.86,150.91Z"/><path class="cls-5" d="M75.11,196.08l5.19,1,.74-2.63a14,14,0,0,0,5.16-1.11L88,195.4l4.35-3L91,190a14,14,0,0,0,2.88-4.42l2.72.24,1-5.19-2.63-.74a14.08,14.08,0,0,0-1.11-5.17l2.1-1.75-3-4.35L90.51,170a14.16,14.16,0,0,0-4.42-2.87l.24-2.72-5.19-1-.74,2.63a14.23,14.23,0,0,0-5.16,1.1l-1.76-2.1-4.35,3,1.34,2.39a14.17,14.17,0,0,0-2.88,4.43l-2.72-.24-1,5.19,2.63.74a14.23,14.23,0,0,0,1.1,5.16l-2.09,1.76,3,4.34,2.39-1.33a14,14,0,0,0,4.42,2.88ZM73.7,178.93a7.14,7.14,0,1,1,5.72,8.32A7.14,7.14,0,0,1,73.7,178.93Z"/><path class="cls-5" d="M188,74.93l3.92.72.57-2a10.73,10.73,0,0,0,3.9-.84l1.33,1.59L201,72.15l-1-1.8A11,11,0,0,0,202.14,67l2.05.18.73-3.92-2-.57a10.53,10.53,0,0,0-.84-3.9l1.59-1.33-2.26-3.29-1.81,1A10.71,10.71,0,0,0,196.26,53l.19-2-3.93-.73-.56,2a10.73,10.73,0,0,0-3.91.83l-1.33-1.59-3.28,2.27,1,1.81a10.58,10.58,0,0,0-2.17,3.34l-2.06-.18-.72,3.93,2,.56a10.64,10.64,0,0,0,.84,3.9l-1.59,1.33L183,71.7l1.81-1a10.48,10.48,0,0,0,3.35,2.18Zm-1.07-13a5.41,5.41,0,1,1,4.33,6.3A5.4,5.4,0,0,1,186.89,62Z"/><path class="cls-5" d="M253.2,106.51l2.62.49.38-1.33a7.12,7.12,0,0,0,2.6-.56l.89,1.06,2.19-1.51-.67-1.2a7,7,0,0,0,1.45-2.24l1.37.13.49-2.62-1.33-.38a6.93,6.93,0,0,0-.56-2.6l1.06-.89-1.51-2.19-1.2.67a7,7,0,0,0-2.24-1.45l.13-1.37L256.25,90l-.38,1.33a7.12,7.12,0,0,0-2.6.56l-.89-1.06-2.19,1.51.67,1.2a7,7,0,0,0-1.45,2.24L248,95.68l-.49,2.62,1.33.38a7.12,7.12,0,0,0,.56,2.6l-1.06.89,1.51,2.19,1.2-.67a7,7,0,0,0,2.24,1.45Zm-.71-8.65a3.61,3.61,0,1,1,2.89,4.2A3.6,3.6,0,0,1,252.49,97.86Z"/><path class="cls-5" d="M121.07,69.14l2.62.48.37-1.32a7.22,7.22,0,0,0,2.61-.56l.88,1.06,2.2-1.51-.68-1.21a7.3,7.3,0,0,0,1.46-2.23l1.37.12.48-2.62L131.06,61a7.22,7.22,0,0,0-.56-2.61l1.06-.88-1.51-2.2-1.21.68a7.18,7.18,0,0,0-2.23-1.46l.12-1.37-2.62-.48L123.74,54a7.22,7.22,0,0,0-2.61.56l-.88-1.06L118.05,55l.68,1.21a7.3,7.3,0,0,0-1.46,2.23l-1.37-.12-.48,2.62,1.32.37a7.22,7.22,0,0,0,.56,2.61l-1.06.88,1.51,2.2,1.21-.68a7.3,7.3,0,0,0,2.23,1.46Zm-.71-8.65a3.6,3.6,0,1,1,2.89,4.19A3.6,3.6,0,0,1,120.36,60.49Z"/><path class="cls-5" d="M248.88,214.54a12.43,12.43,0,0,0,1,4.54L248,220.63l2.63,3.82,2.1-1.17a12.61,12.61,0,0,0,3.9,2.53l-.21,2.4,4.57.84.65-2.31a12.48,12.48,0,0,0,4.55-1l1.54,1.84,3.83-2.63-1.17-2.1a12.61,12.61,0,0,0,2.53-3.9l2.39.21.85-4.57-2.31-.65a12.49,12.49,0,0,0-1-4.55l1.85-1.54-2.63-3.83L270,205.22a12.44,12.44,0,0,0-3.89-2.53l.21-2.39-4.57-.85-.66,2.31a12.44,12.44,0,0,0-4.54,1L255,200.89l-3.82,2.63,1.17,2.11a12.44,12.44,0,0,0-2.53,3.89l-2.4-.21-.84,4.57Zm6.3-1.43a6.29,6.29,0,1,1,5.05,7.33A6.29,6.29,0,0,1,255.18,213.11Z"/><path class="cls-6" d="M288.43,187.42l-7,2.58,7,2.56v2.64l-10.06-3.83v-2.74l10.06-3.83Z"/><path class="cls-6" d="M296,179.61h2.94l-7,19.9H289Z"/><path class="cls-6" d="M309.37,188.63v2.74l-10.05,3.83v-2.64l7-2.56-7-2.58V184.8Z"/><path class="cls-6" d="M113.66,221c1,.31,1.47.94,1.47,2.46V227a1.44,1.44,0,0,0,1.6,1.62h.39v2.68h-1.27c-2.74,0-4.14-1.41-4.14-3.93v-4a.9.9,0,0,0-1-1H110v-2.68h.72a.9.9,0,0,0,1-1v-4c0-2.52,1.4-3.93,4.14-3.93h1.27v2.68h-.39a1.44,1.44,0,0,0-1.6,1.62v3.51C115.13,220.09,114.67,220.72,113.66,221Z"/><path class="cls-6" d="M131.11,219.69v2.68h-.73a.9.9,0,0,0-1,1v4c0,2.52-1.41,3.93-4.15,3.93H124v-2.68h.39A1.45,1.45,0,0,0,126,227v-3.51c0-1.52.46-2.15,1.46-2.46-1-.31-1.46-.94-1.46-2.46v-3.51a1.45,1.45,0,0,0-1.61-1.62H124v-2.68h1.27c2.74,0,4.15,1.41,4.15,3.93v4a.9.9,0,0,0,1,1Z"/><path class="cls-6" d="M61.83,87.78c0-4.32,3.31-7.4,7.77-7.4a7.41,7.41,0,0,1,5.89,2.53l-2.13,2a4.6,4.6,0,0,0-3.6-1.67,4.58,4.58,0,1,0,0,9.16,4.57,4.57,0,0,0,3.6-1.7l2.13,2a7.35,7.35,0,0,1-5.91,2.56C65.14,95.18,61.83,92.09,61.83,87.78Z"/><path class="cls-6" d="M86.9,89H83.35V92.5H80.71V89H77.17V86.53h3.54V83.05h2.64v3.48H86.9Z"/><path class="cls-6" d="M99.28,89H95.72V92.5H93.09V89H89.55V86.53h3.54V83.05h2.63v3.48h3.56Z"/><path class="cls-6" d="M157.23,165.35l2.07-2.49a3.69,3.69,0,0,0,3,1.77c1.5,0,2.28-.89,2.28-2.66v-7.66h-5.66v-3h9.36v10.44c0,4-2,5.93-5.79,5.93A6.51,6.51,0,0,1,157.23,165.35Z"/><path class="cls-6" d="M170.51,166.27l1.2-2.58a8.48,8.48,0,0,0,4.3,1.2c1.65,0,2.27-.44,2.27-1.13,0-2-7.47.05-7.47-4.9,0-2.35,2.11-4,5.73-4a10.2,10.2,0,0,1,4.76,1.08l-1.2,2.55a7.11,7.11,0,0,0-3.56-.92c-1.61,0-2.3.51-2.3,1.15,0,2.12,7.47.07,7.47,4.95,0,2.3-2.14,3.93-5.84,3.93A10.73,10.73,0,0,1,170.51,166.27Z"/><ellipse id="_Path_" data-name="&lt;Path&gt;" class="cls-7" cx="200.01" cy="260.17" rx="122.07" ry="7.13"/><rect class="cls-8" x="235.11" y="46.72" width="24.27" height="24.27" rx="1.6"/><g class="cls-9"><rect class="cls-10" x="235.11" y="46.72" width="24.27" height="24.27" rx="1.6"/></g><path class="cls-10" d="M244,57.58l-4.21,1.54L244,60.65v1.58L238,60V58.3L244,56Z"/><path class="cls-10" d="M248.51,52.9h1.76L246.1,64.82h-1.76Z"/><path class="cls-10" d="M256.52,58.3V60l-6,2.28V60.65l4.21-1.53-4.21-1.54V56Z"/><path class="cls-11" d="M240.45,75.43v5.89h-1.36V78.9h-2.68v2.42H235V75.43h1.37v2.32h2.68V75.43Z"/><path class="cls-11" d="M243.08,76.54h-1.89V75.43h5.14v1.11h-1.89v4.78h-1.36Z"/><path class="cls-11" d="M252.43,81.32V77.78l-1.74,2.92h-.62l-1.72-2.84v3.46h-1.28V75.43h1.13l2.2,3.66,2.18-3.66h1.12v5.89Z"/><path class="cls-11" d="M255.12,75.43h1.36v4.78h3v1.11h-4.32Z"/><g class="cls-12"><path class="cls-10" d="M240.45,75.43v5.89h-1.36V78.9h-2.68v2.42H235V75.43h1.37v2.32h2.68V75.43Z"/><path class="cls-10" d="M243.08,76.54h-1.89V75.43h5.14v1.11h-1.89v4.78h-1.36Z"/><path class="cls-10" d="M252.43,81.32V77.78l-1.74,2.92h-.62l-1.72-2.84v3.46h-1.28V75.43h1.13l2.2,3.66,2.18-3.66h1.12v5.89Z"/><path class="cls-10" d="M255.12,75.43h1.36v4.78h3v1.11h-4.32Z"/></g><rect class="cls-8" x="297.67" y="61.36" width="27.07" height="27.07" rx="1.79"/><g class="cls-9"><rect class="cls-10" x="297.67" y="61.36" width="27.07" height="27.07" rx="1.79"/></g><path class="cls-10" d="M306.77,74.89c.65.2.94.61.94,1.58v2.26a.93.93,0,0,0,1,1H309v1.72h-.82c-1.76,0-2.67-.9-2.67-2.52V76.41a.58.58,0,0,0-.62-.66h-.46V74h.46a.58.58,0,0,0,.62-.66V70.81c0-1.62.91-2.52,2.67-2.52H309V70h-.26a.93.93,0,0,0-1,1v2.26C307.71,74.28,307.42,74.69,306.77,74.89Z"/><path class="cls-10" d="M318,74v1.72h-.46a.58.58,0,0,0-.62.66V79c0,1.62-.91,2.52-2.67,2.52h-.82V79.77h.26a.93.93,0,0,0,1-1V76.47c0-1,.29-1.38.94-1.58-.65-.2-.94-.61-.94-1.58V71.05a.93.93,0,0,0-1-1h-.26V68.29h.82c1.76,0,2.67.9,2.67,2.52v2.56a.58.58,0,0,0,.62.66Z"/><path class="cls-11" d="M302.11,96.76a3.62,3.62,0,0,1,6.27-2.24l-1,.9a2.16,2.16,0,0,0-1.66-.77,2.11,2.11,0,0,0,0,4.21,2.11,2.11,0,0,0,1.66-.78l1,.9a3.61,3.61,0,0,1-6.27-2.22Z"/><path class="cls-11" d="M308.84,99.4l.51-1.15a3.86,3.86,0,0,0,2.17.69c.91,0,1.27-.3,1.27-.71,0-1.23-3.82-.38-3.82-2.83,0-1.11.9-2,2.77-2a4.34,4.34,0,0,1,2.28.58l-.47,1.15a3.78,3.78,0,0,0-1.82-.51c-.9,0-1.25.34-1.25.75,0,1.21,3.83.38,3.83,2.79,0,1.1-.92,2-2.79,2A4.68,4.68,0,0,1,308.84,99.4Z"/><path class="cls-11" d="M314.84,99.4l.51-1.15a3.84,3.84,0,0,0,2.17.69c.91,0,1.27-.3,1.27-.71,0-1.23-3.82-.38-3.82-2.83,0-1.11.9-2,2.77-2a4.34,4.34,0,0,1,2.28.58l-.47,1.15a3.78,3.78,0,0,0-1.82-.51c-.9,0-1.25.34-1.25.75,0,1.21,3.83.38,3.83,2.79,0,1.1-.92,2-2.8,2A4.67,4.67,0,0,1,314.84,99.4Z"/><g class="cls-12"><path class="cls-10" d="M302.11,96.76a3.62,3.62,0,0,1,6.27-2.24l-1,.9a2.16,2.16,0,0,0-1.66-.77,2.11,2.11,0,0,0,0,4.21,2.11,2.11,0,0,0,1.66-.78l1,.9a3.61,3.61,0,0,1-6.27-2.22Z"/><path class="cls-10" d="M308.84,99.4l.51-1.15a3.86,3.86,0,0,0,2.17.69c.91,0,1.27-.3,1.27-.71,0-1.23-3.82-.38-3.82-2.83,0-1.11.9-2,2.77-2a4.34,4.34,0,0,1,2.28.58l-.47,1.15a3.78,3.78,0,0,0-1.82-.51c-.9,0-1.25.34-1.25.75,0,1.21,3.83.38,3.83,2.79,0,1.1-.92,2-2.79,2A4.68,4.68,0,0,1,308.84,99.4Z"/><path class="cls-10" d="M314.84,99.4l.51-1.15a3.84,3.84,0,0,0,2.17.69c.91,0,1.27-.3,1.27-.71,0-1.23-3.82-.38-3.82-2.83,0-1.11.9-2,2.77-2a4.34,4.34,0,0,1,2.28.58l-.47,1.15a3.78,3.78,0,0,0-1.82-.51c-.9,0-1.25.34-1.25.75,0,1.21,3.83.38,3.83,2.79,0,1.1-.92,2-2.8,2A4.67,4.67,0,0,1,314.84,99.4Z"/></g><rect x="121.84" y="66.46" width="77.13" height="55.83"/><rect class="cls-13" x="121.84" y="66.46" width="77.13" height="55.83"/><rect class="cls-14" x="121.84" y="66.46" width="10.74" height="55.83"/><rect class="cls-8" x="121.84" y="66.46" width="77.13" height="5.22"/><g class="cls-15"><path d="M152.79,79.55h-14a.63.63,0,1,1,0-1.25h14a.63.63,0,1,1,0,1.25Z"/><path d="M183.8,79.55H156.53a.63.63,0,1,1,0-1.25H183.8a.63.63,0,1,1,0,1.25Z"/><path d="M177.32,83.66H140.63a.63.63,0,1,1,0-1.25h36.69a.63.63,0,1,1,0,1.25Z"/><path d="M162.38,87.77H138.74a.63.63,0,0,1-.63-.63.63.63,0,0,1,.63-.63h23.64a.63.63,0,0,1,.63.63A.63.63,0,0,1,162.38,87.77Z"/><path d="M183.8,87.77H166.86a.63.63,0,0,1-.63-.63.63.63,0,0,1,.63-.63H183.8a.63.63,0,0,1,.63.63A.63.63,0,0,1,183.8,87.77Z"/><path d="M151.79,91.88h-13a.63.63,0,0,1-.63-.63.63.63,0,0,1,.63-.63h13a.63.63,0,0,1,.63.63A.63.63,0,0,1,151.79,91.88Z"/><path d="M176.58,91.88H156a.63.63,0,0,1-.63-.63.63.63,0,0,1,.63-.63h20.55a.64.64,0,0,1,.63.63A.63.63,0,0,1,176.58,91.88Z"/><path d="M158.19,96H140.63a.63.63,0,0,1-.63-.63.63.63,0,0,1,.63-.63h17.56a.63.63,0,0,1,.63.63A.63.63,0,0,1,158.19,96Z"/><path d="M160.39,100.1H140.63a.63.63,0,0,1-.63-.63.63.63,0,0,1,.63-.63h19.76a.64.64,0,0,1,.63.63A.63.63,0,0,1,160.39,100.1Z"/><path d="M183.8,100.1H163.62a.63.63,0,0,1-.63-.63.64.64,0,0,1,.63-.63H183.8a.63.63,0,0,1,.63.63A.63.63,0,0,1,183.8,100.1Z"/><path d="M150.05,104.21H138.74a.63.63,0,0,1-.63-.63.63.63,0,0,1,.63-.63h11.31a.63.63,0,0,1,.63.63A.63.63,0,0,1,150.05,104.21Z"/><path d="M183.8,104.21H153.91a.63.63,0,0,1-.63-.63.63.63,0,0,1,.63-.63H183.8a.63.63,0,0,1,.63.63A.63.63,0,0,1,183.8,104.21Z"/><path d="M160.26,108.32H140.63a.63.63,0,0,1-.63-.63.63.63,0,0,1,.63-.63h19.63a.63.63,0,0,1,.63.63A.63.63,0,0,1,160.26,108.32Z"/><path d="M175.7,108.32H163a.63.63,0,0,1-.63-.63.63.63,0,0,1,.63-.63h12.7a.63.63,0,0,1,.63.63A.63.63,0,0,1,175.7,108.32Z"/><path d="M163.23,112.43h-22.6a.63.63,0,0,1,0-1.26h22.6a.63.63,0,0,1,0,1.26Z"/></g><circle class="cls-16" cx="195.65" cy="69.11" r="1.08"/><circle class="cls-16" cx="191.87" cy="69.11" r="1.08"/><circle class="cls-16" cx="188.09" cy="69.11" r="1.08"/><g class="cls-15"><path d="M127.4,79.55h0a.63.63,0,1,1,0-1.25.64.64,0,0,1,.64.63A.61.61,0,0,1,127.4,79.55Z"/><path d="M127.4,83.66h0a.63.63,0,1,1,0-1.25A.63.63,0,0,1,128,83,.61.61,0,0,1,127.4,83.66Z"/><path d="M127.4,87.77h0a.63.63,0,0,1-.63-.63.63.63,0,0,1,.63-.63.64.64,0,0,1,.64.63A.61.61,0,0,1,127.4,87.77Z"/><path d="M127.4,91.88h0a.63.63,0,0,1-.63-.63.63.63,0,0,1,.63-.63.64.64,0,0,1,.64.63A.61.61,0,0,1,127.4,91.88Z"/><path d="M127.4,96h0a.63.63,0,0,1-.63-.63.63.63,0,0,1,.63-.63.64.64,0,0,1,.64.63A.61.61,0,0,1,127.4,96Z"/><path d="M127.4,100.1h0a.63.63,0,0,1-.63-.63.63.63,0,0,1,.63-.63.64.64,0,0,1,.64.63A.61.61,0,0,1,127.4,100.1Z"/><path d="M127.4,104.21h0a.63.63,0,0,1-.63-.63.63.63,0,0,1,.63-.63.64.64,0,0,1,.64.63A.61.61,0,0,1,127.4,104.21Z"/><path d="M127.4,108.32h0a.63.63,0,0,1-.63-.63.63.63,0,0,1,.63-.63.64.64,0,0,1,.64.63A.61.61,0,0,1,127.4,108.32Z"/><path d="M127.4,112.43h0a.63.63,0,1,1,0-1.26.64.64,0,0,1,.64.63A.61.61,0,0,1,127.4,112.43Z"/></g><rect class="cls-11" x="167.76" y="112.02" width="101.07" height="64.71"/><rect class="cls-13" x="167.76" y="112.02" width="101.07" height="64.71"/><rect class="cls-14" x="167.76" y="112.02" width="15.77" height="64.71"/><rect class="cls-8" x="167.76" y="112.02" width="101.07" height="5.22"/><path class="cls-10" d="M174.9,123l-1.67.61,1.67.61v.63l-2.39-.91v-.65l2.39-.92Z"/><path class="cls-10" d="M176.71,121.1h.7l-1.67,4.74H175Z"/><path class="cls-10" d="M179.89,123.25v.65l-2.39.91v-.63l1.67-.61L177.5,123v-.63Z"/><g class="cls-15"><path d="M179.54,130.15h-6.85a.63.63,0,0,1-.63-.63.63.63,0,0,1,.63-.63h6.85a.63.63,0,0,1,.63.63A.63.63,0,0,1,179.54,130.15Z"/><path d="M179.54,134.26h-6.85a.63.63,0,0,1-.63-.63.63.63,0,0,1,.63-.63h6.85a.63.63,0,0,1,.63.63A.63.63,0,0,1,179.54,134.26Z"/><path d="M179.54,138.37h-6.85a.63.63,0,0,1-.63-.63.63.63,0,0,1,.63-.63h6.85a.63.63,0,0,1,.63.63A.63.63,0,0,1,179.54,138.37Z"/><path d="M179.54,142.48h-6.85a.63.63,0,0,1-.63-.63.63.63,0,0,1,.63-.63h6.85a.63.63,0,0,1,.63.63A.63.63,0,0,1,179.54,142.48Z"/><path d="M179.54,146.59h-6.85a.63.63,0,0,1,0-1.26h6.85a.63.63,0,0,1,0,1.26Z"/><path d="M179.54,150.7h-6.85a.63.63,0,0,1,0-1.26h6.85a.63.63,0,1,1,0,1.26Z"/><path d="M179.54,154.81h-6.85a.63.63,0,0,1,0-1.26h6.85a.63.63,0,1,1,0,1.26Z"/><path d="M179.54,158.92h-6.85a.63.63,0,0,1,0-1.26h6.85a.63.63,0,0,1,0,1.26Z"/><path d="M179.54,163h-6.85a.63.63,0,0,1,0-1.26h6.85a.63.63,0,0,1,0,1.26Z"/></g><path class="cls-8" d="M199.34,130.15H185.29a.63.63,0,0,1-.63-.63.63.63,0,0,1,.63-.63h14.05a.63.63,0,0,1,.63.63A.63.63,0,0,1,199.34,130.15Z"/><path class="cls-11" d="M239.69,130.15H203.08a.63.63,0,0,1-.63-.63.63.63,0,0,1,.63-.63h36.61a.63.63,0,0,1,.63.63A.63.63,0,0,1,239.69,130.15Z"/><g class="cls-15"><path class="cls-11" d="M256.4,130.15H245.79a.63.63,0,0,1-.63-.63.64.64,0,0,1,.63-.63H256.4a.63.63,0,0,1,.63.63A.63.63,0,0,1,256.4,130.15Z"/></g><g class="cls-15"><path class="cls-11" d="M223.88,134.26h-36.7a.63.63,0,0,1-.63-.63.63.63,0,0,1,.63-.63h36.7a.64.64,0,0,1,.63.63A.63.63,0,0,1,223.88,134.26Z"/></g><path class="cls-8" d="M261.44,134.26h-34.2a.63.63,0,0,1-.63-.63.63.63,0,0,1,.63-.63h34.2a.63.63,0,0,1,.63.63A.63.63,0,0,1,261.44,134.26Z"/><path class="cls-11" d="M208.93,138.37H187.18a.63.63,0,0,1-.63-.63.63.63,0,0,1,.63-.63h21.75a.63.63,0,0,1,.63.63A.63.63,0,0,1,208.93,138.37Z"/><path class="cls-8" d="M234.83,138.37H213.41a.63.63,0,0,1-.62-.63.63.63,0,0,1,.62-.63h21.42a.63.63,0,0,1,.63.63A.63.63,0,0,1,234.83,138.37Z"/><path class="cls-11" d="M261.44,138.37H238.32a.63.63,0,0,1-.63-.63.63.63,0,0,1,.63-.63h23.12a.63.63,0,0,1,.63.63A.63.63,0,0,1,261.44,138.37Z"/><path class="cls-11" d="M211,142.48H197.89a.63.63,0,0,1-.63-.63.63.63,0,0,1,.63-.63H211a.64.64,0,0,1,.63.63A.63.63,0,0,1,211,142.48Z"/><path class="cls-11" d="M229.43,142.48H215.18a.63.63,0,0,1-.63-.63.63.63,0,0,1,.63-.63h14.25a.63.63,0,0,1,.63.63A.63.63,0,0,1,229.43,142.48Z"/><g class="cls-15"><path class="cls-11" d="M255.77,142.48h-23.1a.63.63,0,0,1-.63-.63.63.63,0,0,1,.63-.63h23.1a.63.63,0,0,1,.63.63A.63.63,0,0,1,255.77,142.48Z"/></g><g class="cls-15"><path class="cls-11" d="M204.74,146.59H187.18a.63.63,0,0,1,0-1.26h17.56a.63.63,0,0,1,0,1.26Z"/></g><path class="cls-8" d="M206.94,150.7H187.18a.63.63,0,0,1,0-1.26h19.76a.63.63,0,0,1,0,1.26Z"/><path class="cls-11" d="M239.94,150.7H210.18a.63.63,0,0,1,0-1.26h29.76a.63.63,0,0,1,0,1.26Z"/><path class="cls-11" d="M261.44,150.7H243.55a.63.63,0,1,1,0-1.26h17.89a.63.63,0,0,1,0,1.26Z"/><g class="cls-15"><path class="cls-11" d="M204.79,154.81H193.48a.63.63,0,1,1,0-1.26h11.31a.63.63,0,1,1,0,1.26Z"/></g><g class="cls-15"><path class="cls-11" d="M230.35,154.81h-21.7a.63.63,0,0,1,0-1.26h21.7a.63.63,0,0,1,0,1.26Z"/></g><path class="cls-11" d="M255.77,154.81H234.59a.63.63,0,1,1,0-1.26h21.18a.63.63,0,1,1,0,1.26Z"/><path class="cls-11" d="M213.11,158.92H199.78a.63.63,0,0,1,0-1.26h13.33a.63.63,0,0,1,0,1.26Z"/><g class="cls-15"><path class="cls-11" d="M228.56,158.92H215.85a.63.63,0,0,1,0-1.26h12.71a.63.63,0,0,1,0,1.26Z"/></g><path class="cls-8" d="M255.77,158.92H232.54a.63.63,0,0,1,0-1.26h23.23a.63.63,0,1,1,0,1.26Z"/><g class="cls-15"><path class="cls-11" d="M216.08,163h-16.3a.63.63,0,0,1,0-1.26h16.3a.63.63,0,0,1,0,1.26Z"/></g><path class="cls-16" d="M264.43,114.67a1.08,1.08,0,1,0,1.08-1.08A1.08,1.08,0,0,0,264.43,114.67Z"/><circle class="cls-16" cx="261.73" cy="114.67" r="1.08"/><circle class="cls-16" cx="257.95" cy="114.67" r="1.08"/><path class="cls-8" d="M113.92,115.47H95.84A5.57,5.57,0,0,0,90.27,121v15.74a5.57,5.57,0,0,0,5.57,5.57h12.82l3.78,5v-5h1.48a5.57,5.57,0,0,0,5.57-5.57V121A5.57,5.57,0,0,0,113.92,115.47Z"/><path class="cls-17" d="M113.92,115.47H95.84A5.57,5.57,0,0,0,90.27,121v15.74a5.57,5.57,0,0,0,5.57,5.57h12.82l3.78,5v-5h1.48a5.57,5.57,0,0,0,5.57-5.57V121A5.57,5.57,0,0,0,113.92,115.47Z"/><g class="cls-2"><circle class="cls-8" cx="104.88" cy="128.84" r="8.98" transform="translate(-60.39 111.9) rotate(-45)"/></g><path class="cls-10" d="M103.94,132.85a.79.79,0,0,1-.63-.29l-3.52-4.15a.82.82,0,0,1,.09-1.16.82.82,0,0,1,1.16.1l2.9,3.4,4.77-5.62a.84.84,0,0,1,1.17-.1.82.82,0,0,1,.09,1.16l-5.4,6.37A.82.82,0,0,1,103.94,132.85Z"/><path class="cls-18" d="M171.51,227l13.51-.66L183.71,238s-9.39,1.79-13.57-4.88Z"/><polygon class="cls-18" points="193.74 230.38 190.66 238.91 183.71 238.04 185.02 226.29 193.74 230.38"/><path class="cls-8" d="M158.53,246a55.51,55.51,0,0,0,13.9-10.32l-.92-8.76a108.88,108.88,0,0,0-20.15,4.59s4.73-17,.41-23.15l-11.9,2.15s-12.63,26.27-4.13,35.49Z"/><path class="cls-19" d="M158.51,246a55.18,55.18,0,0,0,13.91-10.32L171.5,227a113.09,113.09,0,0,0-20.12,4.57c.16-.62,4.63-17.07.39-23.14l-11.89,2.16a91.65,91.65,0,0,0-5.8,16.41c-1.7,7.17-2.2,14.89,1.67,19.08Z"/><path class="cls-20" d="M148.73,246c4.2-26.61.48-33.36.48-33.36L134.08,227c-1.7,7.17-2.2,14.89,1.67,19.08Z"/><path class="cls-8" d="M146.1,246c2.84-13.45,6-34.51,5.67-37.64-.51-4.56-25.3-24.09-46.82-9.87-4.39,2.9-6.66,34.21-7.42,47.51Z"/><path class="cls-19" d="M146.1,246c2.84-13.45,6-34.51,5.67-37.65-.51-4.55-25.3-24.08-46.82-9.86-1.6,1.07-2.91,5.87-4,12.22-1.43,8.64-2.43,20.11-3,28.76-.16,2.45-.3,4.66-.41,6.53Z"/><path class="cls-11" d="M135.49,140.74c-7.47-3-25.06,7.81-26.6,27.1s8.24,13.95,8.24,13.95,1.74,7.37,8.87,5.09c0,0,5.89,6.67,11.37,4,0,0,6.81,7.1,10.47,3.35,0,0,4,4.55,7.62,1.1s14-38.53-2.28-46.64S135.49,140.74,135.49,140.74Z"/><path class="cls-11" d="M135.5,219.7l-.72-.06c.83-9.3-1.22-13.41-1.24-13.45l.64-.33C134.27,206,136.34,210.17,135.5,219.7Z"/><path class="cls-11" d="M138.87,219.81c-4.94-11.65.62-14.36.85-14.47l.3.66-.15-.33.16.33c-.06,0-5.14,2.57-.5,13.53Z"/><path class="cls-8" d="M134,208.1a77.36,77.36,0,0,0-24.34-11.81L105,198.52s-8-9.87,5.31-13.1,31.36,5.65,35.9,13.29-7.88,10.06-7.88,10.06S137.12,207.23,134,208.1Z"/><path class="cls-21" d="M134,208.1a77.36,77.36,0,0,0-24.34-11.81L105,198.52s-8-9.87,5.31-13.1,31.36,5.65,35.9,13.29-7.88,10.06-7.88,10.06S137.12,207.23,134,208.1Z"/><path class="cls-10" d="M139.8,219.67a.63.63,0,0,1-.63.63.63.63,0,0,1,0-1.26A.63.63,0,0,1,139.8,219.67Z"/><path class="cls-10" d="M135.71,219.67a.63.63,0,1,1-.63-.63A.63.63,0,0,1,135.71,219.67Z"/><path class="cls-18" d="M129,172.48c-.58,6.76-2.65,18.78-8.14,21.43,0,0,6.14,1.25,15.72,13.42,5.46-3.83,3.4-6.44,3.4-6.44-6.39-4.19-4.73-9.35-2.15-13.83Z"/><path class="cls-20" d="M132.57,178.43l5.23,8.62a20.57,20.57,0,0,0-1.58,3.28c-2.51-1.35-5.27-5.62-4.76-8.54A9.7,9.7,0,0,1,132.57,178.43Z"/><path class="cls-18" d="M128.23,158.22c-1.76,10.61-2.73,15.06,1.2,21.89,5.91,10.28,19,10.76,23.83,1,4.34-8.75,6.48-24.64-2.56-31.65S130,147.6,128.23,158.22Z"/><path class="cls-11" d="M150,143.58c6.88,3.82,13.43,15.75,3.64,12.77-1.47,2.86-6.75.24-9.81-3.2-.52,2.38-6.16,4.78-10.32,1.08,2,2.9-1.4,10.21-5,9S117,160.26,124.06,149,142.63,139.5,150,143.58Z"/><path class="cls-22" d="M147.47,168.23a26.82,26.82,0,0,0,1.83,6.51c-1.35.77-3.14-.27-3.14-.27Z"/><path class="cls-11" d="M140.61,176.36a7.58,7.58,0,0,0,1.39.53.23.23,0,0,0,.3-.19.28.28,0,0,0-.19-.33,7.55,7.55,0,0,1-4.89-4.28.25.25,0,0,0-.32-.18.27.27,0,0,0-.15.34A7.87,7.87,0,0,0,140.61,176.36Z"/><path class="cls-18" d="M122.88,165.85a8.61,8.61,0,0,0,4,5.23c2.56,1.41,4.43-1,4.22-4-.2-2.7-1.77-6.68-4.58-6.84S122.12,163.05,122.88,165.85Z"/><path class="cls-11" d="M139.89,158.51a.51.51,0,0,0,.4,0,3.86,3.86,0,0,1,3.66-.06.48.48,0,0,0,.69-.19.56.56,0,0,0-.21-.73,4.8,4.8,0,0,0-4.64,0,.53.53,0,0,0-.19.72A.54.54,0,0,0,139.89,158.51Z"/><path class="cls-11" d="M156.8,162.65a.5.5,0,0,0,.38,0,.52.52,0,0,0,.32-.67,5.51,5.51,0,0,0-3.28-3.64.48.48,0,0,0-.62.36.58.58,0,0,0,.37.67,4.44,4.44,0,0,1,2.57,2.91A.54.54,0,0,0,156.8,162.65Z"/><path class="cls-11" d="M143.27,165.45c-.31.84-1,1.36-1.57,1.15s-.76-1-.46-1.89,1-1.35,1.57-1.15S143.58,164.62,143.27,165.45Z"/><path class="cls-11" d="M142.57,163.52l2.08-.05S143.18,164.67,142.57,163.52Z"/><path class="cls-11" d="M153.84,168.8c-.31.84-1,1.36-1.57,1.15s-.76-1-.45-1.89,1-1.35,1.57-1.15S154.15,168,153.84,168.8Z"/><path class="cls-11" d="M153.14,166.87l2.09-.05S153.76,168,153.14,166.87Z"/><path class="cls-11" d="M142.28,171.4a4.54,4.54,0,0,1-1.88-.4,4.79,4.79,0,0,1-2.61-3,6.4,6.4,0,0,1,3.34-7.47,4.7,4.7,0,0,1,6.62,3,6.15,6.15,0,0,1-.32,4.33h0a6.17,6.17,0,0,1-3,3.13A5.16,5.16,0,0,1,142.28,171.4Zm1-10.67a4.36,4.36,0,0,0-1.84.42,5.41,5.41,0,0,0-2.66,2.77,5.48,5.48,0,0,0-.29,3.83,4,4,0,0,0,5.63,2.51,5.45,5.45,0,0,0,2.67-2.76l.33.14-.33-.14a5.43,5.43,0,0,0,.28-3.83,4.06,4.06,0,0,0-2.21-2.61A3.93,3.93,0,0,0,143.27,160.73Z"/><path class="cls-11" d="M152.76,174.61a4.68,4.68,0,0,1-1.87-.39,4.81,4.81,0,0,1-2.61-3.05,6.39,6.39,0,0,1,3.33-7.46,4.69,4.69,0,0,1,6.63,3,6.2,6.2,0,0,1-.32,4.33h0A5.85,5.85,0,0,1,152.76,174.61Zm1-10.67a4.32,4.32,0,0,0-1.83.42A5.65,5.65,0,0,0,149,171a4.1,4.1,0,0,0,2.21,2.6c2.21,1,4.94-.29,6.09-2.85h0a5.54,5.54,0,0,0,.28-3.83,4,4,0,0,0-2.22-2.6A3.74,3.74,0,0,0,153.75,163.94Z"/><path class="cls-11" d="M148.26,168.05a.3.3,0,0,0-.18-.2,1.25,1.25,0,0,0-.82.12l-.31-.65a2,2,0,0,1,1.38-.15,1.06,1.06,0,0,1,.6.61Z"/><rect class="cls-11" x="133.68" y="158.37" width="0.72" height="8.87" transform="translate(-61.17 242.6) rotate(-72.77)"/><path class="cls-20" d="M129,227.57s-16.56,12.69-31.1,11.93c.59-8.65,1.59-20.12,3-28.76,1.49-1.64,2.47-2.63,2.47-2.63l8.83,6.59-2.14,2.69s13.34-.68,18,0Z"/><path class="cls-18" d="M130.75,217.39l13.26-2.7.48,11.82s-9,3.19-14.15-2.77Z"/><polygon class="cls-18" points="153.25 217.43 151.49 226.32 144.49 226.51 144.01 214.69 153.25 217.43"/><polygon class="cls-8" points="130.75 217.39 131.4 226.51 128.1 227.99 126.69 217.39 130.75 217.39"/><polygon class="cls-21" points="130.75 217.39 131.4 226.51 128.1 227.99 126.69 217.39 130.75 217.39"/><path class="cls-8" d="M109.7,196.29a15.34,15.34,0,0,0-9.1,5.27c-4,4.69-18.09,18.64-15,30s33.26,2.91,42.46-3.6l-1.41-10.6-20.87,1.54,6.44-4.24C116.67,202.41,109.7,196.29,109.7,196.29Z"/><path class="cls-19" d="M109.7,196.29a15.34,15.34,0,0,0-9.1,5.27c-4,4.69-18.09,18.64-15,30s33.26,2.91,42.46-3.6l-1.41-10.6-20.87,1.54,6.44-4.24C116.67,202.41,109.7,196.29,109.7,196.29Z"/><polygon class="cls-8" points="170.14 227.15 173.94 226.51 173.94 236.69 170.93 237.18 170.14 227.15"/><polygon class="cls-21" points="170.14 227.15 173.94 226.51 173.94 236.69 170.93 237.18 170.14 227.15"/><path class="cls-8" d="M162.47,236.59a11.61,11.61,0,0,1,.08-1.67l.11-.84-.81.48-.48.29c-.17.06-.33.15-.49.19a1.51,1.51,0,0,1-.89,0,1.69,1.69,0,0,1-.7-.52,3,3,0,0,1-.5-.85l-.71-2-.5,2.1c-.05.21-.09.42-.13.63s-.12.39-.17.59a1.93,1.93,0,0,1-.59.79,1.24,1.24,0,0,1-.95.09,3.56,3.56,0,0,1-1.13-.5l-1.09-.68.44,1.11a10.06,10.06,0,0,1,.46,1.47,4.82,4.82,0,0,1,.1.75,1.21,1.21,0,0,1-.17.74,1.17,1.17,0,0,0,.43-.7,3.46,3.46,0,0,0,.11-.84,4.66,4.66,0,0,0,0-.65,4.29,4.29,0,0,0,.57.27,2.24,2.24,0,0,0,1.79,0,2.6,2.6,0,0,0,1.17-1.34l0-.08a2.4,2.4,0,0,0,2.81.6,4.49,4.49,0,0,0,.53-.29.2.2,0,0,0,0,.07,6.54,6.54,0,0,0,.18.88,5.08,5.08,0,0,0,.31.85,2.15,2.15,0,0,0,.55.71,2.17,2.17,0,0,1-.27-.8A6,6,0,0,1,162.47,236.59Z"/><path class="cls-8" d="M185,222.39a3.72,3.72,0,0,1-1.45-.16,5,5,0,0,1-1.37-.66,3.94,3.94,0,0,1-1-1.09,5.86,5.86,0,0,1-.67-1.35l-.41-1.24-.71,1.11a5.85,5.85,0,0,1-1.08,1.25,2,2,0,0,1-1.27.58h-.15l-.19,0a2.79,2.79,0,0,1-.39-.1,4.55,4.55,0,0,1-.76-.32,6.49,6.49,0,0,1-1.36-1l-1.09-1,.22,1.44a11.41,11.41,0,0,1,.15,2.33,3,3,0,0,1-.22,1.07.69.69,0,0,1-.76.44l-.29,0,.09.23q.27.72.57,1.41c-.06-.42-.13-.83-.21-1.25l.12,0a1.8,1.8,0,0,0,.38-.07,2.9,2.9,0,0,0,.33-.2c.08-.09.17-.18.25-.28a3.42,3.42,0,0,0,.47-1.25,9.45,9.45,0,0,0,.14-1.28v0a6.29,6.29,0,0,0,.65.46,5.79,5.79,0,0,0,.93.47A3.24,3.24,0,0,0,177,222a3.14,3.14,0,0,0,2.1-.83,6.35,6.35,0,0,0,.69-.68,4.93,4.93,0,0,0,.41.64,5.08,5.08,0,0,0,1.38,1.31,5.26,5.26,0,0,0,1.74.68,4.39,4.39,0,0,0,1.2.09l-.15.39a8.15,8.15,0,0,0-.26,1.11,4.34,4.34,0,0,0,0,1.14,2.24,2.24,0,0,0,.33,1.07,2.43,2.43,0,0,1-.08-1.07,5.14,5.14,0,0,1,.24-1,10.23,10.23,0,0,1,.91-1.92l.4-.68Z"/><path class="cls-8" d="M90.15,250h220.8a2.8,2.8,0,0,1,2.8,2.8v6.8a0,0,0,0,1,0,0H87.35a0,0,0,0,1,0,0v-6.8A2.8,2.8,0,0,1,90.15,250Z" transform="translate(401.09 509.59) rotate(180)"/><rect class="cls-23" x="87.35" y="249.99" width="226.39" height="4.8" transform="translate(401.09 504.79) rotate(180)"/><path class="cls-8" d="M82.6,251.25H318.49a2.7,2.7,0,0,0,2.7-2.71h0a2.7,2.7,0,0,0-2.7-2.7H82.6a2.7,2.7,0,0,0-2.7,2.7h0A2.7,2.7,0,0,0,82.6,251.25Z"/><path class="cls-11" d="M302.5,212.82l-6.89,31.24a2.33,2.33,0,0,1-2.23,1.78H255.76a1.53,1.53,0,0,1-1.42-2l6.88-31a2.15,2.15,0,0,1,2.24-1.52h37.62C302.09,211.35,302.72,211.8,302.5,212.82Z"/><path class="cls-24" d="M302.5,212.82l-6.89,31.24a2.33,2.33,0,0,1-2.23,1.78H257a1.53,1.53,0,0,1-1.43-2l6.89-31a2.14,2.14,0,0,1,2.24-1.52h36.34C302.09,211.35,302.72,211.8,302.5,212.82Z"/><path class="cls-8" d="M296.5,244.85l6.85-31.08c.23-1-.41-1.48-1.42-1.48H265.59a2.15,2.15,0,0,0-2.24,1.53l-7,31.44Z"/><path class="cls-24" d="M303.35,213.76l-3.61,16.43-3.24,14.66-21.47.22-18.63.18,7-31.43a2.14,2.14,0,0,1,2.23-1.52h36.36C303,212.3,303.58,212.76,303.35,213.76Z"/><path class="cls-23" d="M299.74,230.19l-3.24,14.66-21.47.22H257.19l2.92-13.41a1.87,1.87,0,0,1,1.83-1.47Z"/><path class="cls-8" d="M300.36,232.23a2.15,2.15,0,0,0-2.24-1.53H261.78c-1,0-1.65.46-1.42,1.48l2.75,12.5H257a.58.58,0,0,0-.58.58.59.59,0,0,0,.58.58h44.76a1.31,1.31,0,0,0,1.28-1.61Z"/><path class="cls-24" d="M300.36,232.23a2.15,2.15,0,0,0-2.24-1.53H261.78c-1,0-1.65.46-1.42,1.48l2.75,12.5H257a.58.58,0,0,0-.58.58.59.59,0,0,0,.58.58h44.76a1.31,1.31,0,0,0,1.28-1.61Z"/><polygon points="255.89 239.81 253.78 239.81 253.52 240.95 255.57 240.95 255.89 239.81"/><path d="M242.56,246h-6.08a.36.36,0,1,1,0-.71h6.08a6.66,6.66,0,0,0,5.2-2.49,7.35,7.35,0,0,1,5.75-2.76h1.07a.36.36,0,0,1,0,.72h-1.07a6.63,6.63,0,0,0-5.19,2.49A7.36,7.36,0,0,1,242.56,246Z"/><path class="cls-11" d="M141.32,241.54v2.63c0,1.18,1.43,1.67,2.61,1.67h92.29c1.17,0,2.56-.49,2.56-1.67v-2.63Z"/><path class="cls-24" d="M141.32,241.54v2.63c0,1.18,1.43,1.67,2.61,1.67h92.29c1.17,0,2.56-.49,2.56-1.67v-2.63Z"/><path class="cls-23" d="M172.76,241.54v2.63c0,1.18,1.41,1.67,2.59,1.67h60.87c1.17,0,2.56-.49,2.56-1.67v-2.63Z"/><path class="cls-11" d="M254.22,191.6l-11,49.83a3.74,3.74,0,0,1-3.57,2.83h-60a2.42,2.42,0,0,1-2.26-3.13l11-49.45a3.42,3.42,0,0,1,3.56-2.44h60C253.57,189.24,254.58,190,254.22,191.6Z"/><path class="cls-24" d="M254.22,191.6l-11,49.83a3.74,3.74,0,0,1-3.57,2.83h-58a2.43,2.43,0,0,1-2.27-3.13l11-49.45a3.4,3.4,0,0,1,3.56-2.44h58C253.57,189.24,254.58,190,254.22,191.6Z"/><path class="cls-23" d="M224.64,216.93h0c0,4.27-4.58,7.74-7.93,7.74s-5.34-3.47-4.39-7.74,4.3-7.59,7.58-7.72c-1,4.27,1.09,7.72,4.43,7.72Z"/><g class="cls-25"><g class="cls-26"><path class="cls-27" d="M429.91,7.56c6,2.26,12.73,3.51,18.78,1.4A18.54,18.54,0,0,0,460.81-7.1a18.54,18.54,0,0,0-10.22-17.33c-3.19-1.54-6.75-2.1-10.08-3.33s-6.61-3.39-7.74-6.75C430.91-40,436.23-45.95,442-46.67S453.4-44.44,458.1-41s9.06,7.55,14.48,9.69c8.64,3.42,19.12,1,25.84-5.4s9.62-16.4,8-25.56A34.07,34.07,0,0,0,491-84.56c-5-3.16-11.08-5.13-16.79-3.65-4.16,1.08-7.65,3.84-11.41,5.92s-8.42,3.48-12.32,1.65c-5.25-2.47-6.49-9.47-5.7-15.22s2.89-11.56,1.63-17.23c-1.14-5.11-4.85-9.23-8.79-12.68-6.45-5.64-14.35-10.28-22.93-10.43-7.29-.12-14.34,3.07-20.05,7.61a46.12,46.12,0,0,0-17.14,34.78c-.18,10.91,3.54,21.45,7.21,31.72,5.17,14.5,9.74,29.45,15.15,43.78C404.37-6.42,418.52,3.27,429.91,7.56Z"/></g></g></g></g></svg>