<svg id="OBJECTS" xmlns="http://www.w3.org/2000/svg" viewBox="0 0 300 94.72"><defs><style>.cls-1{fill:#fff;}.cls-2{fill:none;stroke:#fff;stroke-miterlimit:10;stroke-width:2.86px;}</style></defs><path class="cls-1" d="M49.5,36.65H61.06c3.84,0,6.27,2.67,6.27,5.91,0,2.52-1,4.41-3.39,5.37V48c2.31.63,3,2.82,3.12,5,.09,1.35,0,3.91.9,5.08H63.25c-.54-1.36-.51-3.43-.75-5.14-.33-2.25-1.2-3.24-3.57-3.24H54.22v8.38H49.5Zm4.72,9.69h5.16c2.13,0,3.24-.9,3.24-3.06s-1.11-3-3.24-3H54.22Z"/><path class="cls-1" d="M72.68,36.65h16v4H77.4V45.2H87.78v3.66H77.4v5.25H89v4H72.68Z"/><path class="cls-1" d="M109.13,55.64a7.22,7.22,0,0,1-5.88,3c-6.6,0-10.54-5-10.54-11.14,0-6.36,3.94-11.31,10.54-11.31,4.38,0,8.55,2.67,9,7.56h-4.5a4.36,4.36,0,0,0-4.53-3.6c-4.23,0-5.82,3.6-5.82,7.35,0,3.57,1.59,7.18,5.82,7.18,3.09,0,4.83-1.63,5.1-4.63h-4.74V46.49h9V58.08h-3Z"/><path class="cls-1" d="M117.93,36.65h4.72V58.08h-4.72Z"/><path class="cls-1" d="M131.51,51c0,2.85,2.22,4,4.74,4,1.65,0,4.17-.48,4.17-2.67,0-2.34-3.24-2.67-6.36-3.54s-6.39-2.13-6.39-6.09c0-4.41,4.13-6.48,8-6.48,4.47,0,8.58,2,8.58,6.9H139.7c-.15-2.55-1.95-3.24-4.23-3.24-1.5,0-3.24.63-3.24,2.43s1,1.89,6.39,3.24c1.59.36,6.36,1.41,6.36,6.24,0,3.93-3.06,6.88-8.91,6.88-4.74,0-9.22-2.34-9.13-7.63Z"/><path class="cls-1" d="M154,40.61H147.6v-4h17.56v4h-6.42V58.08H154Z"/><path class="cls-1" d="M169.13,36.65h11.56c3.84,0,6.27,2.67,6.27,5.91,0,2.52-1,4.41-3.39,5.37V48c2.31.63,3,2.82,3.12,5,.09,1.35,0,3.91.9,5.08h-4.71c-.54-1.36-.51-3.43-.75-5.14-.33-2.25-1.2-3.24-3.57-3.24h-4.72v8.38h-4.71Zm4.71,9.69H179c2.13,0,3.24-.9,3.24-3.06s-1.11-3-3.24-3h-5.17Z"/><path class="cls-1" d="M198.16,36.65H203l8,21.43h-4.89L204.5,53.3h-8l-1.68,4.78H190Zm-.45,13.14h5.56l-2.7-7.86h-.07Z"/><path class="cls-1" d="M219.13,40.61H212.7v-4h17.56v4h-6.42V58.08h-4.71Z"/><path class="cls-1" d="M234.23,36.65h16v4H238.94V45.2h10.39v3.66H238.94v5.25H250.5v4H234.23Z"/><rect class="cls-2" x="9.28" y="11.25" width="281.45" height="72.23" rx="12.79"/></svg>