<svg xmlns="http://www.w3.org/2000/svg" xmlns:xlink="http://www.w3.org/1999/xlink" viewBox="0 0 300 128.43"><defs><style>.cls-1{isolation:isolate;}.cls-2{fill:url(#linear-gradient);}.cls-3{fill:url(#linear-gradient-2);}.cls-4{fill:url(#linear-gradient-3);}.cls-5{mix-blend-mode:overlay;fill:url(#linear-gradient-4);}.cls-6{opacity:0.42;fill:url(#linear-gradient-5);}.cls-7{fill:url(#linear-gradient-6);}.cls-8{fill:url(#linear-gradient-7);}.cls-9{fill:url(#linear-gradient-8);}.cls-10{fill:url(#linear-gradient-9);}.cls-11{opacity:0.32;fill:url(#linear-gradient-10);}.cls-12{fill:#fff;}</style><linearGradient id="linear-gradient" x1="34.04" y1="48.62" x2="79.48" y2="48.62" gradientUnits="userSpaceOnUse"><stop offset="0" stop-color="#870bff"/><stop offset="1" stop-color="#2a0056"/></linearGradient><linearGradient id="linear-gradient-2" x1="27.15" y1="35.64" x2="66.14" y2="58.98" gradientUnits="userSpaceOnUse"><stop offset="0" stop-color="#870bff" stop-opacity="0"/><stop offset="1" stop-color="#2a0056"/></linearGradient><linearGradient id="linear-gradient-3" x1="63.49" y1="88.69" x2="63.49" y2="14.45" gradientUnits="userSpaceOnUse"><stop offset="0" stop-color="#a253ff"/><stop offset="1" stop-color="#ab38ff"/></linearGradient><linearGradient id="linear-gradient-4" x1="60.1" y1="54.15" x2="90.52" y2="63.99" gradientUnits="userSpaceOnUse"><stop offset="0" stop-color="#ac53ff"/><stop offset="0.16" stop-color="#ac4dff" stop-opacity="0.8"/><stop offset="0.39" stop-color="#ac46ff" stop-opacity="0.52"/><stop offset="0.6" stop-color="#ab40ff" stop-opacity="0.29"/><stop offset="0.78" stop-color="#ab3cff" stop-opacity="0.13"/><stop offset="0.92" stop-color="#ab39ff" stop-opacity="0.04"/><stop offset="1" stop-color="#ab38ff" stop-opacity="0"/></linearGradient><linearGradient id="linear-gradient-5" x1="40.17" y1="54.94" x2="80.48" y2="74.77" gradientUnits="userSpaceOnUse"><stop offset="0" stop-color="#870bff"/><stop offset="1" stop-color="#2a0056" stop-opacity="0"/></linearGradient><linearGradient id="linear-gradient-6" x1="7.68" y1="79.81" x2="53.12" y2="79.81" gradientUnits="userSpaceOnUse"><stop offset="0" stop-color="#3d0056"/><stop offset="1" stop-color="#ff0b9f"/></linearGradient><linearGradient id="linear-gradient-7" x1="29.59" y1="69.52" x2="56.33" y2="106.26" gradientUnits="userSpaceOnUse"><stop offset="0" stop-color="#3d0056"/><stop offset="1" stop-color="#e03fc2"/></linearGradient><linearGradient id="linear-gradient-8" x1="23.66" y1="113.98" x2="23.66" y2="39.73" gradientUnits="userSpaceOnUse"><stop offset="0" stop-color="#dc38ff"/><stop offset="1" stop-color="#ff39ff"/></linearGradient><linearGradient id="linear-gradient-9" x1="-0.97" y1="60.38" x2="53.85" y2="85.48" gradientUnits="userSpaceOnUse"><stop offset="0" stop-color="#9b0080"/><stop offset="1" stop-color="#ff39ff" stop-opacity="0"/></linearGradient><linearGradient id="linear-gradient-10" x1="-20.47" y1="-598.59" x2="19.84" y2="-578.76" gradientTransform="translate(26.52 -525.11) rotate(180)" xlink:href="#linear-gradient-5"/></defs><g class="cls-1"><g id="OBJECTS"><path class="cls-2" d="M47.13,8.54H34L61,61.19,47.51,88.69H63.36a6.22,6.22,0,0,0,5.58-3.47l9.49-19.39a10.33,10.33,0,0,0-.08-9.24L56.79,14.45A10.83,10.83,0,0,0,47.13,8.54Z"/><path class="cls-3" d="M47.13,8.54H34L61,61.19,47.51,88.69H63.36a6.22,6.22,0,0,0,5.58-3.47l9.49-19.39a10.33,10.33,0,0,0-.08-9.24L56.79,14.45A10.83,10.83,0,0,0,47.13,8.54Z"/><path class="cls-4" d="M56.79,14.45c10.74,21,11.57,31.64,4.18,46.74L47.51,88.69H63.36a6.22,6.22,0,0,0,5.58-3.47l9.49-19.39a10.33,10.33,0,0,0-.08-9.24Z"/><path class="cls-5" d="M56.79,14.45c10.74,21,11.57,31.64,4.18,46.74L47.51,88.69H63.36a6.22,6.22,0,0,0,5.58-3.47l9.49-19.39a10.33,10.33,0,0,0-.08-9.24Z"/><path class="cls-6" d="M78.35,56.59,72.26,44.7c.42,6.81-1.23,13-4.76,20.25L55.87,88.69h7.49a6.22,6.22,0,0,0,5.58-3.47l9.49-19.39A10.33,10.33,0,0,0,78.35,56.59Z"/><path class="cls-7" d="M40,119.88h13.1L26.19,67.23l13.46-27.5H23.8a6.21,6.21,0,0,0-5.58,3.48L8.73,62.59a10.35,10.35,0,0,0,.08,9.25L30.37,114A10.84,10.84,0,0,0,40,119.88Z"/><path class="cls-8" d="M40,119.88h13.1L26.19,67.23l13.46-27.5H23.8a6.21,6.21,0,0,0-5.58,3.48L8.73,62.59a10.35,10.35,0,0,0,.08,9.25L30.37,114A10.84,10.84,0,0,0,40,119.88Z"/><path class="cls-9" d="M30.37,114C19.63,93,18.79,82.33,26.19,67.23l13.46-27.5H23.8a6.21,6.21,0,0,0-5.58,3.48L8.73,62.59a10.35,10.35,0,0,0,.08,9.25Z"/><path class="cls-10" d="M30.37,114C19.63,93,18.79,82.33,26.19,67.23l13.46-27.5H23.8a6.21,6.21,0,0,0-5.58,3.48L8.73,62.59a10.35,10.35,0,0,0,.08,9.25Z"/><path class="cls-11" d="M8.81,71.84l6.08,11.89c-.41-6.82,1.24-13,4.77-20.25L31.29,39.73H23.8a6.21,6.21,0,0,0-5.58,3.48L8.73,62.59A10.35,10.35,0,0,0,8.81,71.84Z"/><path class="cls-12" d="M94.13,30.22a3.74,3.74,0,0,1,3.75-3.75h8.29c12.42,0,20.94,5.77,20.94,20.2s-8.52,20.57-20.32,20.57H97.88a3.74,3.74,0,0,1-3.75-3.75Zm11.41,28.37c5.9,0,10.54-2.39,10.54-11.92s-4.64-11.54-10.54-11.54h-.63V58.59Z"/><path class="cls-12" d="M135,51.56c0-10.16,7.4-16.43,15-16.43,9.28,0,13.67,6.77,13.67,15.18,0,.3,0,.61,0,.92A3.75,3.75,0,0,1,160,54.82H145.43c1,3.77,3.76,5,7.28,5a11.07,11.07,0,0,0,3.6-.61,3.79,3.79,0,0,1,4.5,1.84h0a3.73,3.73,0,0,1-1.76,5.24A21,21,0,0,1,151.2,68C142,68,135,62,135,51.56Zm19.57-3.76c0-2.39-1-4.52-4.27-4.52-2.38,0-4.39,1.38-5,4.52Z"/><path class="cls-12" d="M172.59,60.36,175,57c2.89,2.13,5.46,3.13,7.66,3.13s3.13-.63,3.13-1.88c0-1.63-2.88-2.38-6-3.64-3.64-1.44-7.9-4.14-7.9-9.28,0-6.15,5-10.16,12.42-10.16a17.27,17.27,0,0,1,7.8,1.81,3.74,3.74,0,0,1,1.31,5.59l-2.34,3.14C188.83,44,186.64,43,184.69,43s-2.76.5-2.76,1.76c0,1.63,2.76,2.26,5.9,3.38,3.76,1.38,8,3.77,8,9.41,0,5.9-4.64,10.41-13.42,10.41a20.43,20.43,0,0,1-8.51-2.1A3.73,3.73,0,0,1,172.59,60.36Z"/><path class="cls-12" d="M211.3,67.24H208a3.75,3.75,0,0,1-3.75-3.75l1.84-25.37a2.41,2.41,0,0,1,2.4-2.24h2.31a2.41,2.41,0,0,1,2.4,2.24l1.84,25.37A3.75,3.75,0,0,1,211.3,67.24Z"/><path class="cls-12" d="M223.71,72.38c0-2.57,1.5-4.51,4.39-6v-.25a6.19,6.19,0,0,1-2.89-5.39,7.69,7.69,0,0,1,3.51-5.9v-.25a9.73,9.73,0,0,1-4.26-8c0-7.77,6.52-11.41,13.42-11.41a16.25,16.25,0,0,1,5,.75h7.91a3.75,3.75,0,0,1,3.75,3.75v.28a3.75,3.75,0,0,1-3.75,3.75h-.76a11.17,11.17,0,0,1,.5,3.26c0,7.4-5.64,10.41-12.67,10.41a15.37,15.37,0,0,1-3.51-.44,2,2,0,0,0-.75,1.82c0,1.38,1.25,1.88,4.39,1.88h4.7c7.84,0,12.36,2.39,12.36,8.16,0,6.77-7,11.41-18.19,11.41C229.73,80.16,223.71,78,223.71,72.38Zm21.07-1.75c0-1.63-1.51-1.88-4.2-1.88h-2.45a16.47,16.47,0,0,1-4.51-.38,3,3,0,0,0-1.13,2.26c0,2,2.51,2.88,6.14,2.88S244.78,72.38,244.78,70.63Zm-3.51-24.09c0-2.88-1.38-4.26-3.39-4.26s-3.39,1.38-3.39,4.26,1.38,4.39,3.39,4.39S241.27,49.55,241.27,46.54Z"/><path class="cls-12" d="M266.59,35.88h2a3.75,3.75,0,0,1,3.68,3l.15.75h.25c2.51-2.39,5.64-4.52,9.91-4.52,6.9,0,9.78,5,9.78,12.79V67.24H281.53V49.3c0-4-1-5-3.13-5s-3.14.87-4.77,2.38V67.24H262.84V39.63A3.75,3.75,0,0,1,266.59,35.88Z"/><circle class="cls-12" cx="209.66" cy="30.21" r="3.99"/><path class="cls-12" d="M97.87,101.51a2.62,2.62,0,0,1,2.54,1.79c.8,2.66,3.44,3.73,6.37,3.73,2.3,0,5.81-.66,5.81-3.72,0-3.26-4.52-3.72-8.87-4.93s-8.9-3-8.9-8.49c0-6.15,5.77-9,11.16-9,5.07,0,9.81,1.8,11.4,6.19a2.55,2.55,0,0,1-2.4,3.42h-1.33a2.5,2.5,0,0,1-2.37-1.6c-.78-2.25-3-2.91-5.59-2.91-2.09,0-4.52.88-4.52,3.39,0,2.3,1.43,2.63,8.91,4.51,2.22.5,8.87,2,8.87,8.7,0,5.48-4.27,9.58-12.42,9.58-5.54,0-10.81-2.29-12.3-7.36a2.56,2.56,0,0,1,2.45-3.27Z"/><path class="cls-12" d="M146.35,87.09H140a2.55,2.55,0,0,1-2.55-2.55v-.42A2.55,2.55,0,0,1,140,81.57h19.36a2.55,2.55,0,0,1,2.55,2.55v.42a2.55,2.55,0,0,1-2.55,2.55h-6.4v21.78a2.56,2.56,0,0,1-2.55,2.56H148.9a2.56,2.56,0,0,1-2.55-2.56Z"/><path class="cls-12" d="M189.94,99.8l-8.67-14.36a2.55,2.55,0,0,1,2.19-3.87h1.43a2.53,2.53,0,0,1,2.19,1.25l6.24,10.54,6.21-10.54a2.56,2.56,0,0,1,2.19-1.25h1.35a2.55,2.55,0,0,1,2.19,3.86L196.5,100v8.9a2.56,2.56,0,0,1-2.55,2.56h-1.46a2.56,2.56,0,0,1-2.55-2.56Z"/><path class="cls-12" d="M230.5,81.57H232a2.55,2.55,0,0,1,2.55,2.55v21.79h12a2.55,2.55,0,0,1,2.55,2.55v.41a2.56,2.56,0,0,1-2.55,2.56h-16a2.56,2.56,0,0,1-2.55-2.56V84.12A2.55,2.55,0,0,1,230.5,81.57Z"/><path class="cls-12" d="M272.21,81.57h17.23A2.55,2.55,0,0,1,292,84.12v.42a2.55,2.55,0,0,1-2.55,2.55H276.22v6.4h11.92A2.55,2.55,0,0,1,290.69,96h0a2.55,2.55,0,0,1-2.55,2.55H276.22v7.32h13.55a2.55,2.55,0,0,1,2.55,2.55v.41a2.56,2.56,0,0,1-2.55,2.56H272.21a2.56,2.56,0,0,1-2.55-2.56V84.12A2.55,2.55,0,0,1,272.21,81.57Z"/></g></g></svg>