<svg id="OBJECTS" xmlns="http://www.w3.org/2000/svg" xmlns:xlink="http://www.w3.org/1999/xlink" viewBox="0 0 300 300"><defs><style>.cls-1,.cls-16{fill:none;}.cls-2{fill:#f9664f;opacity:0.38;}.cls-3{clip-path:url(#clip-path);}.cls-4{fill:#786ab2;}.cls-5{fill:#66192d;}.cls-6{fill:#c5bede;}.cls-7{fill:#553e90;}.cls-8{fill:#ff8248;}.cls-9{fill:#ffaf7d;}.cls-10{fill:#ec8062;}.cls-11{fill:#ff443c;}.cls-12{fill:#020202;}.cls-13{fill:#080435;}.cls-14{fill:#fff;}.cls-15{fill:#ffb741;}.cls-16{stroke:#f9664f;stroke-miterlimit:10;stroke-width:8.64px;}</style><clipPath id="clip-path"><rect class="cls-1" x="36.21" y="9.14" width="227.57" height="281.73" rx="50"/></clipPath></defs><rect class="cls-2" x="36.21" y="9.14" width="227.57" height="281.73" rx="50"/><g class="cls-3"><path class="cls-4" d="M273.36,136.65v27.08l-45.16-38a1.13,1.13,0,0,0-1.6.16l-6.34,7.75a1.13,1.13,0,0,1-2-.47l-6.9-30.68a1.13,1.13,0,0,1,1.11-1.38l31.87.13a1.13,1.13,0,0,1,.88,1.85l-5.08,6.21a1.13,1.13,0,0,0,.15,1.59Z"/><path class="cls-5" d="M91.6,251.89a2.78,2.78,0,0,0-.66,2.09,2.84,2.84,0,0,0,1,1.92l46.67,37.36h.62l-47-37.66a2.43,2.43,0,0,1-.34-3.46l4.71-5.55A2.82,2.82,0,0,0,94.46,242l-30.8-.11-9.49,0h0a2.79,2.79,0,0,0-2.2,1.06,2.82,2.82,0,0,0-.54,2.39l8.72,37.44A2.82,2.82,0,0,0,65,283.88l6.76-8a2.4,2.4,0,0,1,3.36-.32l22.1,17.69h.62l-22.48-18a2.79,2.79,0,0,0-3.9.38l-6.76,8a2.42,2.42,0,0,1-4.21-1L51.8,245.17a2.43,2.43,0,0,1,.47-2.06,2.4,2.4,0,0,1,1.89-.91h0l9.57,0h0l30.72.11a2.42,2.42,0,0,1,1.84,4Z"/><path class="cls-6" d="M227,160.85a7.25,7.25,0,0,0-7.29-4c-5.23.58-4.6,5.2-7.09,4.77s-6,0-6.72,2.89-4.1,1.3-4.23,3.75,3.86,4.19,8.46,2,6.84,1.68,13.31,1,7.27-1.56,11.1-1.13,3.74-2.61,2-4.63S227.72,163.64,227,160.85Z"/><path class="cls-6" d="M225.69,58.65a9.4,9.4,0,0,0-9.47-5.24c-6.79.75-6,6.76-9.22,6.2s-7.76,0-8.73,3.75-5.33,1.69-5.5,4.88,5,5.45,11,2.63,8.89,2.19,17.3,1.28,9.45-2,14.43-1.47,4.86-3.39,2.59-6S226.67,62.28,225.69,58.65Z"/><path class="cls-6" d="M48.25,179.74a16.05,16.05,0,0,1,16-8.07c11.5,1.16,10.13,10.41,15.61,9.54s13.15,0,14.79,5.78,9,2.61,9.31,7.52-8.49,8.39-18.62,4.05-15.06,3.37-29.31,2-16-3.13-24.43-2.26-8.23-5.22-4.4-9.27S46.61,185.33,48.25,179.74Z"/><path class="cls-6" d="M86.47,171.07a7.89,7.89,0,0,1,7.88-3.91c5.65.56,5,5.05,7.66,4.63s6.46,0,7.26,2.8,4.44,1.26,4.57,3.65-4.16,4.07-9.14,2-7.39,1.64-14.38,1-7.86-1.52-12-1.1-4-2.53-2.15-4.5S85.67,173.79,86.47,171.07Z"/><path class="cls-6" d="M58,113.18a9.41,9.41,0,0,1,9.39-4.67c6.74.67,5.94,6,9.14,5.52s7.7,0,8.66,3.34,5.29,1.51,5.45,4.36-5,4.85-10.9,2.34-8.82,2-17.16,1.14-9.37-1.81-14.3-1.31-4.82-3-2.57-5.37S57,116.41,58,113.18Z"/><path class="cls-5" d="M212.9,173.06a3.43,3.43,0,0,0,.46,4.8l78.72,65.27v-.74l-78.36-65a2.87,2.87,0,0,1-.39-4l16.77-20.51a3.42,3.42,0,0,0-2.64-5.59l-31.1-.13L126,146.92a3.42,3.42,0,0,0-3.36,4.18l12.09,53.76,3.13,13.91h0l6.75,30a3.43,3.43,0,0,0,6,1.42l16-19.6,4.69-5.73a2.86,2.86,0,0,1,4-.39l74.07,61.41h.89L175.68,224a3.37,3.37,0,0,0-2.51-.78,3.44,3.44,0,0,0-2.33,1.24l-4.67,5.73-16,19.6a2.86,2.86,0,0,1-5-1.18l-6.84-30.42-3-13.36L123.18,151a2.86,2.86,0,0,1,2.78-3.48h0l69.92.27,31.56.12a2.86,2.86,0,0,1,2.2,4.67Z"/><path class="cls-7" d="M292.08,256.47v29.4H233.29L166.6,230.58l-.43-.36-20-16.6a3.13,3.13,0,0,0-4.43.43l-3.41,4.17-.46.55h0l-1.72,2.11L121,239.37a3.14,3.14,0,0,1-5.49-1.29l-22-97.67a3.14,3.14,0,0,1,3.08-3.83l9.24,0h0l8.66,0,10.33,0h3.84l5.91,0H137l14.23,0h0l9.25,0h0l37.59.14a3.14,3.14,0,0,1,2.41,5.13l-4.16,5.09-.46.57-12.14,14.85a3.14,3.14,0,0,0,.42,4.41Z"/><path class="cls-8" d="M261.73,285.87h-54.2L163,249a1.5,1.5,0,0,0-2.12.21l-12.5,15.29a1.5,1.5,0,0,1-2.62-.62l-9.66-42.95-3.2-14.21a1.49,1.49,0,0,1,1.47-1.82h.9l58.49.23a1.5,1.5,0,0,1,1.16,2.44l-10.25,12.54a1.5,1.5,0,0,0,.2,2.1Z"/><path class="cls-5" d="M111.32,40.9s1.58,3.52,7.19,2.34,13,2.92,10.38,6.5,8.15,1.86,7.73,8.82-5.4,12.59-15.57,8.87-15.46-22-15.46-22Z"/><path class="cls-9" d="M102.11,50.84c-4,1.3-12,3.53-12,3.53-.35-.31.39-13.55.39-13.55l-4.41.2s-4.25,16.15.13,19.41,15.14-1.17,15.14-1.17S104.72,50,102.11,50.84Z"/><path class="cls-10" d="M89.6,57.5a.1.1,0,0,0,.08,0,6.54,6.54,0,0,0,.54-3.08.1.1,0,0,0-.19,0,6.43,6.43,0,0,1-.51,3,.09.09,0,0,0,0,.13Z"/><path class="cls-5" d="M125.62,82c-.38,1.55-6.74,3.08-14.4,1.34s-12.45-2.5-13.16-4.62a27.17,27.17,0,0,1,14.53-1C120.25,79.52,126,80.49,125.62,82Z"/><path class="cls-8" d="M97.57,61.24c-3.89-2.44-3.08-8.12-3.08-8.12a91.51,91.51,0,0,1,11.13-2.85,21.11,21.11,0,0,1,4.1-.53c13.93,0,15.86,31.43,15.92,32a114.57,114.57,0,0,0-27.58-3C96.71,67.53,97.45,61.8,97.57,61.24Z"/><path class="cls-8" d="M99.9,60.71s-4.15-4.92-5.41-7.59a46.68,46.68,0,0,1,9.85-3.24Z"/><path class="cls-8" d="M105.74,50s11.67-1.36,17.71,2.71l-7.53,5.87Z"/><path class="cls-5" d="M116,58.41c.74,1,3.07.58,5.22-.92S124.47,54,123.73,53s-3.07-.59-5.21.92S115.24,57.41,116,58.41Z"/><path class="cls-9" d="M133.76,82.8a81.26,81.26,0,0,0-13.11-21.45,24.28,24.28,0,0,0-2.82-2.94c-.75-.65-.38-2.67.78-3.95s3.22-1.7,3.66-1.42a21.63,21.63,0,0,1,3.28,3.29c5.35,6,9.13,12.73,13.46,24.1Z"/><path class="cls-9" d="M140.27,82.1a13.74,13.74,0,0,0-2-2.65s-4.25,1.08-4.37,1.49c-.28,1-.39,2.92-.65,3.87-.11.41-.39,1.82,0,2s1.12-.9,1.43-1.43c1,2.59,3.65,5.92,2,.32h0c.22.55,1.55,4,2.2,3.44s-.3-3.19-.66-4.09l0,0c.44.89,1.76,3.46,2.14,2.79.49-.83-.72-3.56-.72-3.56s1,2.48,1.66,1.58c.47-.61-.51-2.55-.92-3.4A1.84,1.84,0,0,0,140.27,82.1Z"/><path class="cls-9" d="M104.37,52.19c1.61.73,4.43-1.09,5.62-2.45,0,0-1.53-.28-1.79-.8a30.21,30.21,0,0,1-1-2.95v-.5l-1.31-4.57-.32,4.51-.08,1.1v0l-.08,1.15v0l0,.38-.06.78c0,.63-.24.81-1,1C104.34,49.88,103,51.57,104.37,52.19Z"/><path class="cls-5" d="M111,131.88s0,1.89-1.39,2.43-5.26,1-3.8,2.24c.84.7,4.79.25,5.9.25s2.16.46,3-.25,0-4.67,0-4.67a4.68,4.68,0,0,1-1.83.45A3.75,3.75,0,0,1,111,131.88Z"/><path class="cls-5" d="M133.6,131.88s0,1.89-1.4,2.43-5.26,1-3.8,2.24c.84.7,4.79.24,5.9.24s2.17.47,3-.24,0-4.67,0-4.67a4.67,4.67,0,0,1-1.82.45A3.7,3.7,0,0,1,133.6,131.88Z"/><path class="cls-11" d="M102,79.82A1.13,1.13,0,0,0,100.92,81,145.08,145.08,0,0,0,103.34,103c1.92,11,4.19,22.09,5.31,27.41a4.29,4.29,0,0,0,4.07,3.36l1.07,0a3.55,3.55,0,0,0,3.74-3.77l-2.7-35.95s4.48-12.49,1.47-13.26C112.05,79.78,104.78,79.78,102,79.82Z"/><path class="cls-11" d="M105.78,79.81l24.42,51.33c.94,2.09,10.43,3.27,8.16-2.3L124.81,82.75c-.2-.56-5.4-1.44-6-1.59C115.92,80.32,105.78,79.81,105.78,79.81Z"/><path class="cls-12" d="M115.25,99.83h0a.13.13,0,0,0,.07-.16l-3.27-8.39a13.18,13.18,0,0,0-4-5.64,7.65,7.65,0,0,0-2.28-1.32.11.11,0,0,0-.15.09.12.12,0,0,0,.08.15s3.89,1.21,6.11,6.81l3.27,8.39A.13.13,0,0,0,115.25,99.83Z"/><path class="cls-7" d="M92.85,34.86H94a1,1,0,0,1,1,1v11a1,1,0,0,1-1,1H92.85a1,1,0,0,1-1-1v-11a1,1,0,0,1,1-1Z" transform="translate(37.09 126.63) rotate(-80.41)"/><path class="cls-11" d="M91.68,43.86,81.2,42.09a1.32,1.32,0,0,1-1.08-1.53l.44-2.63a1.33,1.33,0,0,1,1.53-1.09l10.47,1.77a1.32,1.32,0,0,1,1.09,1.53l-.44,2.63A1.33,1.33,0,0,1,91.68,43.86Z"/><rect class="cls-4" x="71.87" y="28.87" width="6.81" height="19.03" rx="1.09" transform="translate(24.89 106.23) rotate(-80.41)"/><path class="cls-7" d="M62.49,35.45h6.29a.84.84,0,0,1,.84.84v.83a.84.84,0,0,1-.84.84H62.5a.84.84,0,0,1-.84-.84v-.83A.83.83,0,0,1,62.49,35.45Z" transform="translate(18.52 95.32) rotate(-80.41)"/><path class="cls-9" d="M88.36,36.86a1.16,1.16,0,0,0-1.55.56c-.54,1.31,0,3.46.39,2.64a7.44,7.44,0,0,0,.45-1.57s-.4,2.61.24,2.5,1-2.23,1-2.23-.17,2.49.4,2.19.84-1.79.84-1.79-.26,2,.4,1.66.53-1.86.62-2.5-.27-.87-.86-.91a1.74,1.74,0,0,0-1-.31c-.15,0-.28-.13-.38-.16A3.32,3.32,0,0,0,88.36,36.86Z"/><path class="cls-5" d="M105.42,47.73a4.41,4.41,0,0,0,1.79-1.46h-.14l-1.57.31Z"/><path class="cls-5" d="M111.32,40.9a4.76,4.76,0,0,0-.07,2.26c.32,2.29-2.46,2.85-3,2.13-.07-.08.6-3.8.6-3.8l.91-.37Z"/><path class="cls-9" d="M101.19,41c.42-2.86,2.74-4.91,5.17-4.58s4.06,2.9,3.64,5.76-2.75,4.91-5.18,4.58S100.76,43.88,101.19,41Z"/><path class="cls-5" d="M104.44,37.41c.1.17-1,2.74,4.09,4.07s2.86-5.07-.94-5.72c-5.48-.93-6.81,2.49-6.47,3.84S104.44,37.41,104.44,37.41Z"/><path class="cls-5" d="M108.09,40.55s1.8,2.41.74,4.48c0,0,1.42-1.11,1.52-1.58a19,19,0,0,0,0-2.24Z"/><path class="cls-9" d="M109.29,42.9a1,1,0,1,1,.48-1.51A1.14,1.14,0,0,1,109.29,42.9Z"/><path class="cls-13" d="M105.16,41.6a.09.09,0,0,1-.06-.06.1.1,0,0,1,.08-.12,1.11,1.11,0,0,1,1.25.45.09.09,0,0,1,0,.13.11.11,0,0,1-.14,0,1.73,1.73,0,0,0-1-.37Z"/><path class="cls-13" d="M102,41.41a.09.09,0,0,1-.08,0,.09.09,0,0,1,0-.13,1.14,1.14,0,0,1,1.34,0,.09.09,0,0,1,0,.13.11.11,0,0,1-.14,0,1.87,1.87,0,0,0-1.12,0A.07.07,0,0,1,102,41.41Z"/><path class="cls-13" d="M102.89,42.45a.38.38,0,0,1-.18.49.4.4,0,0,1-.43-.32c-.07-.22,0-.44.18-.48A.39.39,0,0,1,102.89,42.45Z"/><path class="cls-14" d="M102.87,44s.19,1.38,1.26,1.45a1.42,1.42,0,0,0,1.43-1.13A4.63,4.63,0,0,1,102.87,44Z"/><path class="cls-12" d="M106.37,43a.05.05,0,0,0,0,0,.07.07,0,0,0,0-.07,1.82,1.82,0,0,0-1.3-.2,0,0,0,0,0,0,.06,0,0,0,0,0,.06,0,1.76,1.76,0,0,1,1.22.19Z"/><path class="cls-15" d="M162.4,293.26H125.06L81.23,256.92a1,1,0,0,0-1.46.14l-8.61,10.53a1,1,0,0,1-1.81-.42l-5.61-24.93h0l-.08-.39L60.5,227.79a1,1,0,0,1,1-1.26l40.91.16a1,1,0,0,1,.8,1.68L96.16,237a1,1,0,0,0,.14,1.45Z"/></g><rect class="cls-16" x="36.21" y="9.14" width="227.57" height="281.73" rx="50"/></svg>