<svg id="OBJECTS" xmlns="http://www.w3.org/2000/svg" viewBox="0 0 300 300"><defs><style>.cls-1{fill:#fc664f;opacity:0.38;}.cls-2{fill:none;stroke:#fc664f;stroke-miterlimit:10;stroke-width:8.64px;}.cls-3{fill:#ececec;}.cls-4{fill:#e1e1e1;}.cls-5{fill:#f5f5f5;}.cls-6{fill:#1a2e35;}.cls-7{fill:#375a64;}.cls-18,.cls-8{fill:#fff;}.cls-9{fill:#ff735d;}.cls-10{opacity:0.6;}.cls-11,.cls-14,.cls-18{opacity:0.3;}.cls-12{fill:#ffd7bd;}.cls-13{fill:#ffb494;}.cls-15{fill:#db8a76;}.cls-16{fill:#9a5d53;}.cls-17{fill:#ffbf9d;}.cls-19{fill:#ff9a6c;}</style></defs><rect class="cls-1" x="36.21" y="9.14" width="227.57" height="281.73" rx="50"/><rect class="cls-2" x="36.21" y="9.14" width="227.57" height="281.73" rx="50"/><path class="cls-3" d="M43.63,230.53s-3.35,1.35.51,8.47a94,94,0,0,0,6.51,10.61s.69,1.66-.71,2-4.52-.12-5.1,1.62.74,3.46,3.41,4.87,8.41,4.72,8.93,5,1,1.06.11,1.41S49.41,265.76,50,269s8.71,6,9.59,6.29,1.1.68,1,1.16-2.43.56-4.4.9-4.19,1.08-3.67,2.94S58,286,69.53,286.83l5.38,0,2.8-4.62c5.41-10.25,4.74-16.38,3.44-17.8s-3.11.07-4.44,1.56-2.65,3.45-3.09,3.25-.63-.58-.43-1.49,2.18-9.21-.27-11.48-6.9,3.16-7.69,3.76-1.16-.25-1.14-.84.24-7.22.46-10.24-.48-5-2.33-5.46-3.08,2.43-4.08,3.47-2-.44-2-.44a92.47,92.47,0,0,0-5.57-11.13c-4-7-7-4.85-7-4.85"/><path class="cls-4" d="M75.22,288.12c-2.91-5.18-7.94-14.48-12.29-22.44s-8.3-15.16-11.18-20.36c-1.45-2.59-2.61-4.7-3.43-6.15l-.93-1.68-.23-.43a.91.91,0,0,1-.08-.16l.09.15.25.43,1,1.65c.83,1.44,2,3.54,3.47,6.13,2.91,5.18,6.88,12.38,11.23,20.34s9.36,17.27,12.24,22.47"/><path class="cls-4" d="M49.18,254s.13,0,.37.09l1,.32c.85.29,2,.72,3.28,1.21l3.25,1.27,1,.38a1.74,1.74,0,0,1,.35.15,1.73,1.73,0,0,1-.38-.09c-.24-.07-.58-.18-1-.33-.85-.3-2-.74-3.27-1.23l-3.26-1.24-1-.38A1.74,1.74,0,0,1,49.18,254Z"/><path class="cls-4" d="M58.79,257s.73-2.45,1.72-5.43,1.84-5.39,1.88-5.37-.72,2.44-1.72,5.43S58.83,257,58.79,257Z"/><path class="cls-4" d="M64.92,269.54a2.8,2.8,0,0,1,.21-.33l.62-.89c.51-.75,1.22-1.79,2-3s1.38-2.25,1.83-3l.54-.94a1.45,1.45,0,0,1,.22-.33,2.42,2.42,0,0,1-.16.36c-.11.23-.28.56-.49,1-.43.81-1.06,1.91-1.8,3.08s-1.47,2.21-2,2.95c-.27.36-.49.66-.65.85A1.46,1.46,0,0,1,64.92,269.54Z"/><path class="cls-4" d="M55.61,268.68H56l1,.05c.84,0,2,.13,3.28.24l3.28.28,1,.11.36.06h-.37l-1-.06c-.84-.05-2-.13-3.28-.24L57,268.85l-1-.11Z"/><path class="cls-4" d="M59.62,280.43a1.43,1.43,0,0,1,.47,0l1.28.06,4.21.27,4.21.32,1.27.12.47.06a1.9,1.9,0,0,1-.47,0l-1.28-.06-4.21-.27-4.21-.32-1.27-.12Z"/><path class="cls-4" d="M71.25,281.16a3.16,3.16,0,0,1,.25-.43l.74-1.15c.63-1,1.48-2.33,2.38-3.84s1.68-2.91,2.24-3.93l.67-1.19a2.52,2.52,0,0,1,.26-.44,3.67,3.67,0,0,1-.21.47c-.14.29-.35.71-.61,1.22-.54,1-1.3,2.43-2.21,3.95s-1.77,2.86-2.42,3.82c-.32.48-.59.86-.78,1.13A2.34,2.34,0,0,1,71.25,281.16Z"/><circle class="cls-3" cx="192.41" cy="49.14" r="24.11" transform="translate(21.61 150.45) rotate(-45)"/><path class="cls-5" d="M172.34,49.14a20.07,20.07,0,1,1,20.07,20.07A20.09,20.09,0,0,1,172.34,49.14Zm3.44,0A16.64,16.64,0,1,0,192.41,32.5,16.65,16.65,0,0,0,175.78,49.14Z"/><path class="cls-5" d="M185.16,48.61A7.39,7.39,0,1,1,192.55,56,7.4,7.4,0,0,1,185.16,48.61Zm3.43,0a4,4,0,1,0,4-4A4,4,0,0,0,188.59,48.61Z"/><polygon class="cls-4" points="192.55 48.61 201.89 48.61 200.26 51.49 222.25 61.57 221.51 62.8 199.45 52.84 197.94 55.7 192.55 48.61"/><path class="cls-4" d="M222.25,61.57l.24-.23a4.47,4.47,0,0,1,4.36-1.09l8.78,2.55L230.74,65l2,5.22-8.23-2.94a4.47,4.47,0,0,1-3-4.43h0Z"/><path class="cls-4" d="M61.55,96a13.16,13.16,0,0,1,3.34-1.45l.68-3.31,5.59-.1.8,3.28a13.81,13.81,0,0,1,3.39,1.33l2.82-1.85,4,3.88-1.75,2.89A13.53,13.53,0,0,1,81.89,104l3.3.68.1,5.59L82,111a13.81,13.81,0,0,1-1.33,3.39l1.85,2.82-3.88,4-2.88-1.75A14.09,14.09,0,0,1,72.43,121l-.69,3.3-5.58.1-.81-3.28A13.59,13.59,0,0,1,62,119.76l-2.83,1.85-4-3.88,1.75-2.88a13.32,13.32,0,0,1-1.45-3.34l-3.31-.69-.1-5.58,3.28-.81a13.59,13.59,0,0,1,1.33-3.38l-1.85-2.83,3.88-4L61.55,96Zm3,7.43a6,6,0,1,0,8.47-.15A6,6,0,0,0,64.52,103.39Z"/><path class="cls-3" d="M51.64,128.13a8.25,8.25,0,0,1,2-.87l.41-2,3.34-.06.48,2a8.17,8.17,0,0,1,2,.8l1.69-1.11L64,129.2l-1,1.73a7.85,7.85,0,0,1,.86,2l2,.41.06,3.34-2,.48a8.17,8.17,0,0,1-.8,2l1.11,1.69-2.32,2.4-1.73-1a8,8,0,0,1-2,.86l-.41,2-3.34.06-.48-2a8,8,0,0,1-2-.8l-1.69,1.11-2.4-2.32,1-1.73a8.25,8.25,0,0,1-.87-2L46,137l-.06-3.34,2-.48a8,8,0,0,1,.8-2l-1.11-1.69,2.32-2.4,1.73,1Zm1.78,4.45a3.59,3.59,0,1,0,5.07-.08A3.58,3.58,0,0,0,53.42,132.58Z"/><path class="cls-3" d="M53.42,132.58a2.8,2.8,0,0,1,.67-.58A3.64,3.64,0,0,1,58,132a3.71,3.71,0,0,1,1.28,1.45,3.42,3.42,0,0,1,.33,1,3.68,3.68,0,0,1-1,3.17,3.62,3.62,0,0,1-2,1.06,3.39,3.39,0,0,1-1.1,0,3.16,3.16,0,0,1-1-.29A3.58,3.58,0,0,1,53,137.2a3.63,3.63,0,0,1-.15-3.93,2.69,2.69,0,0,1,.56-.69s-.22.24-.49.73a3.59,3.59,0,0,0-.4,2.3,3.53,3.53,0,0,0,2,2.65,3.12,3.12,0,0,0,1,.27,3.37,3.37,0,0,0,1.05,0,3.48,3.48,0,0,0,2.86-3,3.29,3.29,0,0,0,0-1,3.08,3.08,0,0,0-.3-1,3.58,3.58,0,0,0-1.21-1.39,3.41,3.41,0,0,0-1.51-.56,3.58,3.58,0,0,0-2.28.48C53.65,132.36,53.44,132.6,53.42,132.58Z"/><path class="cls-3" d="M51.64,128.13s0,0-.11-.06l-.33-.19-1.31-.77h0l-2.3,2.42v-.07l1.12,1.69,0,0,0,0a8.42,8.42,0,0,0-.79,2v0h0l-2,.49.06-.07c0,1.05,0,2.17.07,3.34L46,137l2,.41h0l0,0a8,8,0,0,0,.86,2l0,.05,0,.05c-.33.53-.68,1.12-1.05,1.72v-.11l2.41,2.32h-.12l1.69-1.11,0,0,.06,0a8.5,8.5,0,0,0,2,.78l.06,0v.05c.15.62.32,1.29.49,2l-.1-.08,3.34-.06-.1.08.41-2V143h.06a8.31,8.31,0,0,0,2-.86h0l0,0,.05,0,1.73,1H61.8l2.32-2.4v.12L63,139.24l0-.05,0-.05a7.94,7.94,0,0,0,.79-2l0-.06,0,0,2-.47-.08.09c0-1.14,0-2.25,0-3.34l.07.09-2-.41h-.06V133a8.36,8.36,0,0,0-.86-2l0,0,0-.05,1.05-1.72v.1l-2.4-2.32h.1l-1.69,1.1,0,0,0,0a8,8,0,0,0-2-.8h0v0c-.18-.72-.33-1.36-.48-2l.06.05-3.34,0,0,0c-.17.78-.31,1.43-.42,2v0h0a7.88,7.88,0,0,0-1.53.58l-.36.19q-.12.08-.12.06l.11-.07.35-.21a8.08,8.08,0,0,1,1.53-.62l0,0,.4-2v0h0l3.34-.07h0v0c.15.61.31,1.25.49,2l0,0a8.37,8.37,0,0,1,2,.8h-.07l1.68-1.12.06,0,0,0,2.41,2.32,0,.05,0,.06L63,131v-.09a7.93,7.93,0,0,1,.88,2l-.07-.06,2,.41h.07v.08c0,1.08,0,2.2.06,3.34v.08l-.08,0-2,.48.07-.07a8.31,8.31,0,0,1-.8,2.05v-.11l1.11,1.69,0,.07-.06.06L62,143.35l-.06.06-.07,0-1.72-1.05h.1a8.1,8.1,0,0,1-2,.88l.07-.07-.41,2,0,.08h-.08l-3.34.06h-.08l0-.08c-.17-.67-.33-1.34-.48-2l.07.08a8.94,8.94,0,0,1-2-.81h.1l-1.69,1.11-.06,0-.06-.05-2.4-2.33,0,0,0-.06,1.05-1.73v.1a8.5,8.5,0,0,1-.88-2l.07.06-2-.41h-.06V137c0-1.17,0-2.29,0-3.34v-.06h.06l2-.48-.05.05a8.69,8.69,0,0,1,.81-2v.06l-1.1-1.69,0,0,0,0,2.34-2.39,0,0,0,0,1.27.79.33.21Z"/><polygon class="cls-5" points="237.82 156.72 237.89 147.91 246.39 149.97 237.82 156.72"/><rect class="cls-5" x="245.21" y="150.29" width="4.97" height="20.11" transform="translate(-46.09 187.76) rotate(-38.25)"/><polygon class="cls-3" points="226.7 178.33 227.89 160.47 244.88 165.66 226.7 178.33"/><rect class="cls-3" x="241.23" y="166.44" width="10.09" height="40.82" transform="translate(-62.61 174.32) rotate(-34.87)"/><path class="cls-6" d="M270,287.14c0,.08-52.52.14-117.29.14s-117.31-.06-117.31-.14S87.89,287,152.69,287,270,287.07,270,287.14Z"/><path class="cls-7" d="M212.19,263.86a4.39,4.39,0,0,1,2.49,2.39,7.91,7.91,0,0,1,.6,3.47,13.71,13.71,0,0,1-2.4,6.61c-2-1.5-2.73-4.37-3-5.85-.4-2.33.29-6.8,2.3-6.62"/><path class="cls-7" d="M215.42,279.89a3.77,3.77,0,0,1,.91-3.67,5,5,0,0,1,3.57-1.45,2.09,2.09,0,0,1,1.68.58,1.64,1.64,0,0,1,.16,1.63,3.31,3.31,0,0,1-1.1,1.28c-1.57,1.18-3.3,2-5.22,1.63"/><path class="cls-6" d="M213.56,287.05a2.71,2.71,0,0,1,0-.47c0-.34.07-.77.12-1.28a13.35,13.35,0,0,1,1-4.14,8.11,8.11,0,0,1,2.63-3.31,5.82,5.82,0,0,1,1.13-.62,2.48,2.48,0,0,1,.33-.11l.12,0a9.29,9.29,0,0,0-1.51.86,8.36,8.36,0,0,0-2.55,3.28,14.15,14.15,0,0,0-1,4.08c-.07.54-.13,1-.18,1.27A3.46,3.46,0,0,1,213.56,287.05Z"/><path class="cls-6" d="M212,267.31a.69.69,0,0,1,0,.2l.09.58c.07.51.16,1.24.27,2.15.21,1.81.47,4.32.69,7.09s.37,5.29.44,7.11c0,.92.07,1.65.08,2.16,0,.24,0,.44,0,.59a.72.72,0,0,1,0,.21s0-.07,0-.21l0-.58c0-.53-.08-1.26-.13-2.16-.11-1.82-.27-4.33-.5-7.11s-.46-5.28-.64-7.09c-.09-.89-.16-1.62-.22-2.15l-.05-.58C212,267.38,212,267.31,212,267.31Z"/><path class="cls-7" d="M212.23,281.55a8.78,8.78,0,0,0-5.33-6,1.86,1.86,0,0,0-2,.14,1.84,1.84,0,0,0,0,2,7.54,7.54,0,0,0,7.28,4.07"/><path class="cls-6" d="M207.39,277.65a1.81,1.81,0,0,1,.42.15,4.17,4.17,0,0,1,.48.2,6.2,6.2,0,0,1,.62.32,7.19,7.19,0,0,1,.7.44,7.91,7.91,0,0,1,.77.59,9.4,9.4,0,0,1,1.49,1.62,9,9,0,0,1,1.06,1.93,8,8,0,0,1,.3.91,7.88,7.88,0,0,1,.19.82,6.75,6.75,0,0,1,.09.68,3.46,3.46,0,0,1,0,.52,3.16,3.16,0,0,1,0,.45s0-.64-.23-1.63a5.5,5.5,0,0,0-.2-.8,7.29,7.29,0,0,0-.31-.89,9.75,9.75,0,0,0-1-1.9,10.34,10.34,0,0,0-1.46-1.6c-.26-.21-.5-.42-.74-.58a6.87,6.87,0,0,0-.69-.46C208,277.9,207.38,277.69,207.39,277.65Z"/><path class="cls-8" d="M217.5,135.37l6.28-3.56a16.81,16.81,0,1,0-4.49-4h0Z"/><path class="cls-6" d="M217.5,135.37c.11-.48.63-2.81,1.72-7.62l0-.1.09.07h0l-.1.1a16.83,16.83,0,0,1-3.41-8.08,15.43,15.43,0,0,1-.14-2.66c0-.46,0-.93.08-1.4l.21-1.42a17,17,0,0,1,6.75-10.53,16.86,16.86,0,0,1,6.51-2.85,17.15,17.15,0,0,1,7.5.2,16.56,16.56,0,0,1,6.93,3.61,16.86,16.86,0,0,1,5.79,14,16.55,16.55,0,0,1-2.05,6.94,17,17,0,0,1-9.84,8,18.44,18.44,0,0,1-5.48.73,16.73,16.73,0,0,1-8.34-2.52h.06l-6.31,3.5,6.25-3.62,0,0,0,0a16.6,16.6,0,0,0,8.28,2.44,18,18,0,0,0,5.41-.74,16.88,16.88,0,0,0,9.68-7.91,16.51,16.51,0,0,0,2-6.83,17.14,17.14,0,0,0-1.15-7.43,16.8,16.8,0,0,0-4.56-6.38,16.33,16.33,0,0,0-6.82-3.55,16.87,16.87,0,0,0-7.37-.21,16.42,16.42,0,0,0-6.41,2.8,16.73,16.73,0,0,0-4.48,4.77,17,17,0,0,0-2.21,5.59c-.08.47-.15.94-.22,1.4s0,.93-.08,1.38a15.28,15.28,0,0,0,.12,2.64,16.75,16.75,0,0,0,3.33,8l.33.43-.43-.33h0l.12,0C218.18,132.57,217.61,134.9,217.5,135.37Z"/><path class="cls-9" d="M229.84,115.94h1l2.14-3v-2s1.52-.09,1.34,2.48,0,1.91,0,1.91,3.22,0,3.49.3a31.82,31.82,0,0,1,.32,5.14,1.88,1.88,0,0,1-1.33,1.9,1.48,1.48,0,0,1-.35,0c-.81,0-4.92-.66-4.92-.66h-1.7Z"/><polygon class="cls-9" points="227.03 115.41 227.63 122.13 229.32 122.13 229.32 115.54 227.03 115.41"/><path class="cls-9" d="M95.44,139.12,87,142.23l-4.47,9.4c-.2,1.94-5.08,21.54-5.08,21.54l-4.88,17.45c9.34,4.27,21.74,10.36,34.15,9.87l1.59-15L116.8,153l-6.5-12.9-2.22-.3Z"/><path class="cls-7" d="M56.07,266.65,49.69,275S56,284.25,55,285.91L38.4,274.12l9.4-13.37Z"/><g class="cls-10"><path class="cls-8" d="M45.07,270.61a.84.84,0,0,0-1,.44.82.82,0,0,0,.43,1,.89.89,0,0,0,1.08-.48.83.83,0,0,0-.56-1"/></g><g class="cls-10"><path class="cls-8" d="M38.4,274.12l1-1.31L54.92,284.6s.51.85.06,1.31Z"/></g><path class="cls-6" d="M50,275.08c-.06.08-.49-.17-1.08-.19s-1,.16-1.09.08.4-.47,1.11-.43S50.09,275,50,275.08Z"/><path class="cls-6" d="M51.24,277c0,.09-.48,0-1,.13s-.86.45-.93.39.19-.56.84-.73S51.3,277,51.24,277Z"/><path class="cls-6" d="M50.75,279.82c-.08,0,.09-.52.61-.81s1-.21,1-.11-.42.16-.84.41S50.84,279.87,50.75,279.82Z"/><path class="cls-6" d="M51.26,273c-.09.05-.38-.33-.86-.62s-.94-.41-.93-.51.56-.14,1.12.21S51.34,273,51.26,273Z"/><g class="cls-11"><polygon points="53.17 270.68 52.03 272.16 43.94 266.3 44.9 264.92 53.17 270.68"/></g><path class="cls-6" d="M52.52,271.32s-.38-.14-.83-.59a4.49,4.49,0,0,1-.68-.89,4.65,4.65,0,0,1-.3-.59,1.48,1.48,0,0,1-.11-.37.43.43,0,0,1,.27-.46.55.55,0,0,1,.49.07,1.79,1.79,0,0,1,.28.26,4,4,0,0,1,.39.55,3.85,3.85,0,0,1,.41,1,1.69,1.69,0,0,1,0,1s-.06-.39-.24-1a4,4,0,0,0-.44-1,3.33,3.33,0,0,0-.38-.48c-.14-.17-.29-.28-.39-.24s-.05,0-.05.11a1.22,1.22,0,0,0,.09.27,4.94,4.94,0,0,0,.26.57,5.37,5.37,0,0,0,.58.88C52.25,271,52.55,271.28,52.52,271.32Z"/><path class="cls-6" d="M52.33,271.36s0-.41.35-.95a3.2,3.2,0,0,1,.76-.83,4,4,0,0,1,.57-.36.85.85,0,0,1,.83,0,.5.5,0,0,1,.18.48,1.51,1.51,0,0,1-.13.36,2.17,2.17,0,0,1-.4.56,2.34,2.34,0,0,1-1,.61c-.63.2-1,.06-1,0a7.26,7.26,0,0,0,.94-.25,2.42,2.42,0,0,0,.82-.59,2.07,2.07,0,0,0,.32-.49c.1-.2.14-.39.06-.42a.61.61,0,0,0-.49.07,3.72,3.72,0,0,0-.52.3,3.46,3.46,0,0,0-.75.72C52.51,271,52.38,271.38,52.33,271.36Z"/><path class="cls-7" d="M106.5,272.24l-3.68,9.25s10.55,3.82,10.69,5.76l-20.34.16,3.17-15.11Z"/><g class="cls-10"><path class="cls-8" d="M96.52,280.66a.83.83,0,0,0-.57.95.8.8,0,0,0,.94.57.87.87,0,0,0,.6-1,.83.83,0,0,0-1-.48"/></g><g class="cls-10"><path class="cls-8" d="M93.17,287.41l.34-1.64,19.19.45s.91.39.81,1Z"/></g><path class="cls-6" d="M103.15,281.38c0,.1-.5.15-1,.48s-.74.74-.83.7,0-.61.65-1S103.17,281.29,103.15,281.38Z"/><path class="cls-6" d="M105.29,282.25c0,.1-.41.27-.74.69s-.43.87-.53.86-.16-.56.26-1.08S105.29,282.15,105.29,282.25Z"/><path class="cls-6" d="M106.52,284.79c-.09,0-.23-.47,0-1s.71-.76.76-.68-.25.38-.45.83S106.62,284.78,106.52,284.79Z"/><path class="cls-6" d="M103.93,279.5c0,.09-.49-.05-1.06,0s-1,.22-1.05.14.37-.45,1-.49S104,279.42,103.93,279.5Z"/><path class="cls-6" d="M104.13,278.28a1.86,1.86,0,0,1-1,0A4.51,4.51,0,0,1,102,278a4.69,4.69,0,0,1-.59-.3,1.45,1.45,0,0,1-.31-.24.44.44,0,0,1,0-.53.6.6,0,0,1,.44-.23,2,2,0,0,1,.38,0,4.65,4.65,0,0,1,.63.21,4,4,0,0,1,.95.61c.47.44.64.81.6.83s-.27-.28-.76-.64a4,4,0,0,0-.91-.5,4.91,4.91,0,0,0-.58-.18c-.22-.05-.4-.05-.46,0s0,.06,0,.12a.84.84,0,0,0,.22.17,4.23,4.23,0,0,0,.54.3,5.37,5.37,0,0,0,1,.37A7.61,7.61,0,0,1,104.13,278.28Z"/><path class="cls-6" d="M104.1,278.28a1.67,1.67,0,0,1-.27-1,3.3,3.3,0,0,1,.13-1.12,3.5,3.5,0,0,1,.25-.62.85.85,0,0,1,.65-.52.46.46,0,0,1,.42.28,1.23,1.23,0,0,1,.11.38,2.22,2.22,0,0,1,0,.68,2.34,2.34,0,0,1-.43,1.06c-.39.53-.81.65-.82.62s.32-.25.62-.76a2.52,2.52,0,0,0,.31-1,2.35,2.35,0,0,0,0-.59c0-.21-.12-.38-.2-.36s-.27.16-.35.33a2.75,2.75,0,0,0-.25.56,3.42,3.42,0,0,0-.19,1C104.05,277.89,104.16,278.26,104.1,278.28Z"/><path class="cls-12" d="M130.29,105.55l-3.13,21.26-14.32,13.73,5.3,9.15,16.27-15.18a6.61,6.61,0,0,0,2.44-3.77v-22l-.1-7.16Z"/><path class="cls-6" d="M72.93,189c-.41.84-8.11,40.81-8.11,40.81l-21.51,35,11.18,8.14,26.57-34.64,14.53-44Z"/><path class="cls-6" d="M102.14,193.12c.63.42,17.08,34.75,16.87,37.26s-12.61,48.34-12.61,48.34l-12.64-2.33,7.83-44.71L86.74,210.83l4.85-19Z"/><polygon class="cls-9" points="119.37 132.97 111.22 139.74 109.69 139.98 115.84 153.54 127.16 144.4 119.37 132.97"/><path class="cls-9" d="M95.44,139.12,87,142.23l-4.47,9.4c-.2,1.94-5.08,21.54-5.08,21.54l-4.88,17.45c9.34,4.27,21.74,10.36,34.15,9.87l1.59-15,8.59-32.82L110.3,140.1l-2.22-.3Z"/><path class="cls-12" d="M107.87,141.68c.2-1.56.38-2.87.41-3,0,0,5.36.2,6.43-5,.52-2.51,1.16-7.76,1.69-12.52a9.87,9.87,0,0,0-7.94-10.78l-.5-.09c-5.48-.73-9.16,3.51-9.74,9l-2.63,20s5.07,4.53,8,6C107.45,147.19,107.87,141.68,107.87,141.68Z"/><path class="cls-13" d="M108.3,138.58a12.34,12.34,0,0,1-6.41-3.24s.88,4.06,6.16,4.59Z"/><path class="cls-6" d="M115.12,123.58a17.73,17.73,0,0,0-1.79-.15,16.76,16.76,0,0,0-1.79.39c-.06,0,0-.19.36-.37a3.34,3.34,0,0,1,1.43-.41,3.08,3.08,0,0,1,1.43.22C115.07,123.4,115.17,123.54,115.12,123.58Z"/><path class="cls-6" d="M106.94,122.89c-.14,0-.63-.54-1.54-.91s-1.7-.34-1.77-.46.14-.14.49-.16a3.39,3.39,0,0,1,1.46.27,3.16,3.16,0,0,1,1.18.82C107,122.71,107,122.88,106.94,122.89Z"/><path class="cls-6" d="M106.44,124.24a.57.57,0,0,1-.66.47.55.55,0,0,1-.49-.63.57.57,0,0,1,.66-.47A.55.55,0,0,1,106.44,124.24Z"/><path class="cls-6" d="M114.33,125.65a.6.6,0,0,1-.67.48.57.57,0,0,1-.49-.64.6.6,0,0,1,.67-.47A.56.56,0,0,1,114.33,125.65Z"/><path class="cls-6" d="M108.66,128.6a5,5,0,0,1,1.34,0c.21,0,.41,0,.47-.11a1.08,1.08,0,0,0,0-.64c-.1-.53-.2-1.08-.3-1.67a26.6,26.6,0,0,1-.57-4.33,28.84,28.84,0,0,1,.91,4.28c.1.58.19,1.14.28,1.67a1.23,1.23,0,0,1,0,.82.49.49,0,0,1-.39.24,1.94,1.94,0,0,1-.36,0A5.37,5.37,0,0,1,108.66,128.6Z"/><path class="cls-6" d="M107.2,118.88c-.11.18-.8,0-1.64-.1s-1.57,0-1.64-.16.12-.26.43-.4a2.75,2.75,0,0,1,1.27-.2,2.54,2.54,0,0,1,1.22.4C107.12,118.6,107.25,118.79,107.2,118.88Z"/><path class="cls-6" d="M115.35,121.49c-.11.15-.78-.11-1.61-.23s-1.53-.1-1.59-.28.12-.21.43-.3a2.93,2.93,0,0,1,1.25-.05,3,3,0,0,1,1.18.44C115.28,121.25,115.4,121.42,115.35,121.49Z"/><path class="cls-12" d="M97.9,123.21c-.08-.06-3.37-1.75-3.94,1.83s3.14,3.41,3.16,3.31S97.9,123.21,97.9,123.21Z"/><path class="cls-13" d="M96.24,126.82s-.06,0-.18.06a.59.59,0,0,1-.47-.06,1.59,1.59,0,0,1-.49-1.5,2.06,2.06,0,0,1,.32-.86.74.74,0,0,1,.55-.41.34.34,0,0,1,.34.23c0,.11,0,.18,0,.19s.09,0,.08-.2a.38.38,0,0,0-.1-.25.53.53,0,0,0-.33-.15.89.89,0,0,0-.74.46,2.11,2.11,0,0,0-.38,1,1.65,1.65,0,0,0,.66,1.69.7.7,0,0,0,.59,0C96.22,126.91,96.26,126.83,96.24,126.82Z"/><path class="cls-6" d="M107.51,131c0-.09-.63-.38-1.05-1.1a4.24,4.24,0,0,1-.38-1c-.08-.28-.14-.45-.18-.44s-.05.18,0,.47a2.67,2.67,0,0,0,.34,1.11,2.11,2.11,0,0,0,.83.81C107.31,131,107.5,131,107.51,131Z"/><path class="cls-6" d="M123.92,117.26a.85.85,0,0,0-.34-.55,2.61,2.61,0,0,0-1.31-.37,7.72,7.72,0,0,1-3.81-1.67,17.46,17.46,0,0,0-1.57-2.44,13.26,13.26,0,0,0-3.86-3.8,12.28,12.28,0,0,0-6.44-1.29,5,5,0,0,0-4.17,3.39,3.83,3.83,0,0,0-3.76-.81h0a4.79,4.79,0,0,0-3,3.07,17.56,17.56,0,0,1-1.83,4c-.19.24-.41.54-.3.83a.58.58,0,0,0,.58.34,1.7,1.7,0,0,0,.68-.22l-.6,1.06a3.26,3.26,0,0,0,1.52.08,31.67,31.67,0,0,0,.55,3.85,2.17,2.17,0,0,1,1.42.53c.44.5.56,1.35,1.4,1.13.43-.11.91-.93,1.1-1.33a20.56,20.56,0,0,0,1.91-8.56,6.65,6.65,0,0,1,2.21-1.22l-.07,0c1.52-.34,3.24-.64,4.55.21,1,.66,1.51,1.85,2.22,2.84a8.24,8.24,0,0,0,5.54,3.41c-.1,1.49-.47,3.56-.57,5l1.53-2.21h0c.12-.16.22-.33.33-.49l0,0h0a7.67,7.67,0,0,1,.52-.79h0a.93.93,0,0,0,1.49-1.07,1.73,1.73,0,0,0-.39-.5,1.46,1.46,0,0,0,1.35.52,1.16,1.16,0,0,0,.94-1,1,1,0,0,0-.49-.85,3.4,3.4,0,0,0,1.92-.19C123.59,118,124,117.74,123.92,117.26Z"/><path class="cls-7" d="M104,111.33a4.09,4.09,0,0,0-.58.42,3.74,3.74,0,0,0-1,1.65,6.16,6.16,0,0,0-.29,1.31c-.06.49-.09,1-.11,1.56a13.17,13.17,0,0,1-.17,1.72,5.51,5.51,0,0,1-.22.89,1.92,1.92,0,0,1-.48.84.77.77,0,0,1-.77.16,1.18,1.18,0,0,1-.62-.45,2.77,2.77,0,0,1-.35-1.4l.11,0a4.63,4.63,0,0,1-.77,1,1.57,1.57,0,0,1-1.08.44,1.06,1.06,0,0,1-.53-.16.89.89,0,0,1-.38-.89.6.6,0,0,1,.21-.38l.05,0a3.26,3.26,0,0,1-1.22.71,2.68,2.68,0,0,1-.37.1l-.13,0s0,0,.13,0l.35-.11a3.59,3.59,0,0,0,1.19-.73l.05,0a.69.69,0,0,0-.13.78.87.87,0,0,0,.3.36.93.93,0,0,0,.48.14,1.51,1.51,0,0,0,1-.42,4.48,4.48,0,0,0,.74-1l.1-.16V118a2.6,2.6,0,0,0,.33,1.33,1,1,0,0,0,.56.4.65.65,0,0,0,.65-.13,1.86,1.86,0,0,0,.44-.79,5.28,5.28,0,0,0,.22-.87,12.85,12.85,0,0,0,.17-1.71c0-.55.06-1.07.12-1.56a6.82,6.82,0,0,1,.32-1.33,3.74,3.74,0,0,1,1.06-1.66A2.07,2.07,0,0,1,104,111.33Z"/><path class="cls-7" d="M119.62,118.36l0,0-.14.08-.24.12-.34.13a4.7,4.7,0,0,1-2.3.13,6,6,0,0,1-3-1.54,10.37,10.37,0,0,1-2.35-3.46c-.31-.68-.54-1.37-.81-2a7.08,7.08,0,0,0-1-1.73A3.58,3.58,0,0,0,108,109a2.78,2.78,0,0,0-.78-.19,3.08,3.08,0,0,0-.75.06,3,3,0,0,0-1.17.52,2.94,2.94,0,0,0-.68.7,3.67,3.67,0,0,0-.37.76.28.28,0,0,1,0-.06l0-.16a2.26,2.26,0,0,1,.27-.56,3,3,0,0,1,.68-.73,3.06,3.06,0,0,1,1.19-.56,2.77,2.77,0,0,1,.77-.06,2.69,2.69,0,0,1,.82.18,3.77,3.77,0,0,1,1.45,1.12,7.08,7.08,0,0,1,1,1.76c.27.65.51,1.34.81,2a10.61,10.61,0,0,0,2.31,3.43,6,6,0,0,0,3,1.54,4.73,4.73,0,0,0,2.26-.1A7.2,7.2,0,0,0,119.62,118.36Z"/><path class="cls-7" d="M120.38,116.11a.72.72,0,0,1-.21.11,4.84,4.84,0,0,1-.59.22,6,6,0,0,1-.92.18,5.47,5.47,0,0,1-2.27-.2,5.69,5.69,0,0,1-.87-.33,3.65,3.65,0,0,1-.54-.32c-.12-.08-.19-.13-.18-.14s.28.16.76.38a7,7,0,0,0,.86.31,7.12,7.12,0,0,0,1.11.19,6,6,0,0,0,1.12,0,6.28,6.28,0,0,0,.91-.16C120.07,116.22,120.37,116.09,120.38,116.11Z"/><path class="cls-14" d="M84.74,156.26s7.08,10.25,12.17,10.17h1.78l.84-1.53s11.27,2.29,13.79,1.37l-14-5.18-2.68,1.56Z"/><path class="cls-12" d="M93.46,161s25.39,7.4,28.38,6.71,21.55-15.55,21.55-15.55l-4.19-5L120,157.66l-23-7.29Z"/><path class="cls-9" d="M87.08,142.19s-4.24.93-4.87,7.91c-.75,8.32,15.69,14.83,15.69,14.83L106,151.34Z"/><path class="cls-6" d="M95.88,147.62s.07,0,.18.06l.52.23,1.94.91,6.89,3.31.12.06-.07.12c-1.6,2.78-3.5,6.06-5.53,9.57L98.14,165l-.06.1L98,165a35.35,35.35,0,0,1-6.51-2.94,24.59,24.59,0,0,1-4.56-3.46,25.75,25.75,0,0,1-3.4-3.9s.09.08.25.26l.66.77A32.94,32.94,0,0,0,87,158.5a25.22,25.22,0,0,0,4.56,3.38,36.39,36.39,0,0,0,6.48,2.89l-.17.06c.57-1,1.18-2,1.79-3.1l5.56-9.55.06.18L98.45,149l-1.9-1-.5-.26Z"/><path class="cls-6" d="M115.6,149.69c-.08,0-.78-1.68-1.81-3.7s-2-3.61-1.91-3.66a4.52,4.52,0,0,1,.72,1,25.64,25.64,0,0,1,1.45,2.55,26.31,26.31,0,0,1,1.19,2.67A4.74,4.74,0,0,1,115.6,149.69Z"/><path class="cls-7" d="M54.49,272.91s0-.06.11-.18l.36-.48,1.39-1.87c1.23-1.62,3-3.94,5.17-6.81l17.15-22.42,2.28-3,0,0c3.2-9.64,6-18.22,8.11-24.4l2.45-7.28.67-2,.18-.5.07-.17s0,.06,0,.18l-.16.51c-.14.47-.35,1.13-.62,2-.56,1.73-1.37,4.22-2.36,7.3-2,6.19-4.85,14.78-8,24.43v0l-2.28,3c-6.71,8.73-12.8,16.63-17.21,22.36l-5.25,6.76L55,272.28l-.38.47Z"/><path class="cls-7" d="M106.36,229.31a12.37,12.37,0,0,1-2.49,1,12.16,12.16,0,0,1-2.58.75,11.79,11.79,0,0,1,2.48-1A12.58,12.58,0,0,1,106.36,229.31Z"/><path class="cls-7" d="M106.2,232.9a8.48,8.48,0,0,1-2.2-.47,9.45,9.45,0,0,1-2.12-.75,8.4,8.4,0,0,1,2.2.47A8.41,8.41,0,0,1,106.2,232.9Z"/><path class="cls-6" d="M106.61,183.07a3.59,3.59,0,0,1-.65.45c-.42.28-1.06.65-1.86,1.07a34.3,34.3,0,0,1-6.56,2.63,35.07,35.07,0,0,1-7,1.22c-.9.06-1.63.08-2.14.07a3.81,3.81,0,0,1-.79,0,4.61,4.61,0,0,1,.79-.07c.5,0,1.23-.07,2.13-.16a40.49,40.49,0,0,0,6.9-1.29,39.9,39.9,0,0,0,6.55-2.53c.81-.4,1.45-.74,1.89-1A4.16,4.16,0,0,1,106.61,183.07Z"/><path class="cls-7" d="M190.29,272.57l3.78,9.21s-10.52,3.93-10.63,5.87l20.34,0-3.33-15.08Z"/><g class="cls-10"><path class="cls-8" d="M200.36,280.88a.83.83,0,0,1,.57.95.79.79,0,0,1-.93.58.86.86,0,0,1-.6-1,.82.82,0,0,1,1-.5"/></g><g class="cls-10"><path class="cls-8" d="M203.78,287.6l-.36-1.64-19.18.66s-.9.39-.8,1Z"/></g><path class="cls-6" d="M193.74,281.68c0,.1.5.14,1,.46s.75.73.84.7-.06-.62-.66-1S193.72,281.59,193.74,281.68Z"/><path class="cls-6" d="M191.61,282.57c0,.09.41.26.74.68s.44.86.54.86.16-.57-.27-1.08S191.61,282.47,191.61,282.57Z"/><path class="cls-6" d="M190.4,285.12c.09,0,.23-.47,0-1s-.72-.75-.76-.67.25.37.45.82S190.3,285.11,190.4,285.12Z"/><path class="cls-6" d="M192.93,279.8c0,.09.5-.05,1.06,0s1,.21,1,.13-.37-.44-1-.48S192.89,279.72,192.93,279.8Z"/><path class="cls-6" d="M192.73,278.59a1.93,1.93,0,0,0,1,0,5,5,0,0,0,1.06-.33,5.45,5.45,0,0,0,.58-.31,1.36,1.36,0,0,0,.31-.25.43.43,0,0,0,.05-.52.54.54,0,0,0-.44-.23,2,2,0,0,0-.38.05,4.63,4.63,0,0,0-.63.22,3.73,3.73,0,0,0-.94.62c-.47.44-.63.81-.6.83s.27-.28.75-.64a3.88,3.88,0,0,1,.91-.51,3.4,3.4,0,0,1,.59-.19c.21-.05.39-.06.45,0s0,.05,0,.11a1.15,1.15,0,0,1-.23.18,5,5,0,0,1-.54.31,5.14,5.14,0,0,1-1,.38C193.11,278.5,192.72,278.53,192.73,278.59Z"/><path class="cls-6" d="M192.75,278.59a1.67,1.67,0,0,0,.27-1,3.55,3.55,0,0,0-.14-1.11,3.7,3.7,0,0,0-.26-.62.84.84,0,0,0-.66-.51.47.47,0,0,0-.42.28,1.21,1.21,0,0,0-.1.37,2,2,0,0,0,0,.69,2.35,2.35,0,0,0,.43,1.05c.4.53.82.65.83.61s-.32-.24-.62-.74a2.21,2.21,0,0,1-.31-1.55c0-.22.11-.39.19-.37s.28.16.36.33a2.75,2.75,0,0,1,.25.56,3.34,3.34,0,0,1,.2,1C192.8,278.2,192.7,278.57,192.75,278.59Z"/><path class="cls-6" d="M203.61,196.21c-.57.29-21.46,29.51-27.48,37.56a6.13,6.13,0,0,0-1.17,5.16c2.67,10.38,13.63,42.3,13.63,42.3l14.66-3.05L194,240l22.77-24.42-2.57-19.41Z"/><path class="cls-7" d="M193.85,240.63a7.45,7.45,0,0,1-1.91-.92,7.56,7.56,0,0,1-1.75-1.18,7.65,7.65,0,0,1,1.9.92A7.78,7.78,0,0,1,193.85,240.63Z"/><path class="cls-15" d="M143.09,128.13l1.75.87a5.23,5.23,0,0,1,2.23,2.09c.6,1,1.34,2.3,1.4,2.35l3,2.35-4.1,5.64-1.13-.92s-4.1-.21-5.65-1-3-2-2.79-2.51l.24-.7a2.56,2.56,0,0,1-.4-1.84s-.94-1.09-.77-1.86a1.83,1.83,0,0,1,1.45-1.41s-.46-1.26,0-1.94a2.51,2.51,0,0,1,1.38-.87l3.84,1.66Z"/><path class="cls-7" d="M247.55,274.07l6.72,8.05s-5.94,9.53-4.84,11.14l16.08-12.45-9.94-13Z"/><g class="cls-10"><path class="cls-8" d="M258.7,277.58a.83.83,0,0,1,1,.39.81.81,0,0,1-.39,1,.87.87,0,0,1-1.09-.42.83.83,0,0,1,.52-1"/></g><g class="cls-10"><path class="cls-8" d="M265.51,280.81l-1.05-1.27-15,12.41s-.47.87,0,1.31Z"/></g><path class="cls-6" d="M253.94,282.24c.07.08.49-.19,1.07-.23s1,.12,1.09,0-.42-.45-1.12-.38S253.87,282.19,253.94,282.24Z"/><path class="cls-6" d="M252.8,284.25c0,.09.48,0,1,.08s.88.42.95.36-.22-.55-.87-.69S252.74,284.17,252.8,284.25Z"/><path class="cls-6" d="M253.4,287c.08,0-.11-.52-.64-.79s-1-.16-1-.07.42.15.86.38S253.32,287.06,253.4,287Z"/><path class="cls-6" d="M252.62,280.24c.08,0,.36-.34.83-.66s.92-.44.91-.54-.56-.12-1.11.26S252.53,280.21,252.62,280.24Z"/><g class="cls-11"><polygon points="250.61 277.97 251.81 279.41 259.66 273.22 258.64 271.88 250.61 277.97"/></g><path class="cls-6" d="M251.29,278.59s.37-.16.8-.63a4.27,4.27,0,0,0,.65-.91,5.46,5.46,0,0,0,.27-.6,1.32,1.32,0,0,0,.1-.38.44.44,0,0,0-.29-.45.52.52,0,0,0-.48.09,1.37,1.37,0,0,0-.27.27,4.15,4.15,0,0,0-.37.56,3.79,3.79,0,0,0-.37,1.07,1.71,1.71,0,0,0,0,1s0-.39.2-1a4,4,0,0,1,.41-1,3.23,3.23,0,0,1,.35-.5c.13-.18.28-.29.38-.25s0,0,0,.1a.82.82,0,0,1-.07.28,4.24,4.24,0,0,1-.24.57,5.75,5.75,0,0,1-.54.91A6.74,6.74,0,0,0,251.29,278.59Z"/><path class="cls-6" d="M251.48,278.62s0-.41-.39-.94a3.3,3.3,0,0,0-.79-.8,4.12,4.12,0,0,0-.59-.33.84.84,0,0,0-.82,0,.49.49,0,0,0-.17.49,1.5,1.5,0,0,0,.15.36,2.29,2.29,0,0,0,.42.54,2.41,2.41,0,0,0,1,.57,1.33,1.33,0,0,0,1,0,8.59,8.59,0,0,1-1-.22,2.38,2.38,0,0,1-.84-.55,2.08,2.08,0,0,1-.34-.48c-.11-.19-.15-.38-.07-.41s.31,0,.48,0a2.77,2.77,0,0,1,.54.29,3.34,3.34,0,0,1,.78.68C251.29,278.28,251.43,278.64,251.48,278.62Z"/><path class="cls-6" d="M233.1,195.54c.32.88,4.05,46,4.05,46l25.15,33.33-10.69,7.45-28.42-29.19a10.09,10.09,0,0,1-2.71-5l-10.5-50Z"/><polygon class="cls-9" points="173.63 148.28 195.77 148.75 197.29 149 191.15 162.56 168.54 159.31 146.34 142.88 152.27 134.58 173.63 148.28"/><path class="cls-9" d="M209,147.72l8.5,2.2a7.14,7.14,0,0,1,4.67,4.4l2.39,8.63,5,19.24,4.88,17.45c-8.69,4-15.58,9.39-26.49,9.73a10.61,10.61,0,0,1-4.45-.83l-7.13-3,2.32-10.95L190.19,162l6.5-12.91,2.22-.29Z"/><path class="cls-6" d="M177.2,137.13a1.44,1.44,0,0,1,.19-1,3.56,3.56,0,0,1,1.86-1.31,9.27,9.27,0,0,0-.21-3.06,1.82,1.82,0,0,1-1.08.1.53.53,0,0,1-.18,0,1.46,1.46,0,0,1-1.08-1.85,4.16,4.16,0,0,1,1.42-1.94c-.51.23-.82.75-1.26,1.1s-1.21.44-1.47-.05a1.44,1.44,0,0,1-.1-.5l-.06-1a1.08,1.08,0,0,1,.16-.79,2.77,2.77,0,0,1,.48-.34c.52-.38.55-1.2,1.07-1.59a2.75,2.75,0,0,1,1.38-.31c.47-.06,1-.37,1-.85a4.38,4.38,0,0,1-2-.68,1.54,1.54,0,0,1-.55-1.84,2.24,2.24,0,0,1,1.35-.87c.58-.19,1.34-.34,1.71.15a1.58,1.58,0,0,1,2.26.47l1.42-.72a15.67,15.67,0,0,1-1.81-.68c-.54-.35-.82-1.25-.28-1.6.2-.13.46-.15.64-.31s.19-.3.35-.37a.56.56,0,0,1,.36,0l3.88.82-1.59-1.62c-.48-.5-1-1.25-.61-1.83s1.34-.33,1.69.25a1.07,1.07,0,0,1,1.58.45,1.09,1.09,0,0,1,1.8,1.1,3.09,3.09,0,0,1,1.65-.13,1,1,0,0,1,1.2-1.17,1.63,1.63,0,0,1-.11-1c.09-.32.48-.57.76-.4a1.11,1.11,0,0,1,1.29-1.66l.28-.82a1.46,1.46,0,0,1,1.58.18.86.86,0,0,1-.24,1.38c.37-.15.51.47.41.85l-.42,1.59a1.24,1.24,0,0,1,1.38-.67,1,1,0,0,1,1.29-.49.77.77,0,0,1,1.38-.28c0-.27.32-.42.59-.49a1.78,1.78,0,0,1,1.16,0c.36.16.56.7.27,1,.24-.3.78-.11.93.25a1.38,1.38,0,0,1-.17,1.11,3.5,3.5,0,0,0-.44,1.06,1.64,1.64,0,0,1,1-.62,4.16,4.16,0,0,1,2-.35c0-.29.36-.44.65-.49a4.76,4.76,0,0,1,2.71.35c.39.18.82.52.76.95a1.12,1.12,0,0,1-.27.53l-1.51,2a5.79,5.79,0,0,1,3.46.88,9,9,0,0,1,1.47,0c.47.15.74.92.28,1.1a.89.89,0,0,1,.62.88.85.85,0,0,1-.18.46.93.93,0,0,1-.12.33,1.57,1.57,0,0,1-.43.49,1.13,1.13,0,0,1-.73.76,4.4,4.4,0,0,1,1.38.75,1.9,1.9,0,0,1,.7,1.83.42.42,0,0,1,0,.1,1,1,0,0,1-.16.7.81.81,0,0,1,.25.46,2.08,2.08,0,0,1,1.75,3.24c-.33.5-1.2.77-1.46.22a1.61,1.61,0,0,1-.83,1.28,1.56,1.56,0,0,1,0,2.31,1.68,1.68,0,0,1,.5,2.75,1.28,1.28,0,1,1-2,1.65,2.75,2.75,0,0,1-.46,1.47.93.93,0,0,1-1.36.15,1.77,1.77,0,0,1-2.12,1.72,1.18,1.18,0,0,1-.55,1.46,1.19,1.19,0,0,1-1.49-.46l-2.75,1a10.24,10.24,0,0,1-1.86.57,5.44,5.44,0,0,1-2.47-.16,1.74,1.74,0,0,0-.78-.14,1.8,1.8,0,0,0-.79.45,4.75,4.75,0,0,1-4.6.63,2.09,2.09,0,0,0-.72-.23,2.16,2.16,0,0,0-.86.2,8.32,8.32,0,0,1-2.1.48,2.28,2.28,0,0,1-1.76-.38c-.46-.41-.46-1.33.12-1.54a1.32,1.32,0,0,0-.71-.92.8.8,0,0,0-1,.34c-.16.37.2.88.59.78a1.19,1.19,0,0,1-2-.3,1.59,1.59,0,0,1,.95-2,3.66,3.66,0,0,1-.68-1.64,1.3,1.3,0,0,1-1.59.82,2.26,2.26,0,0,1-1,1.51,1.36,1.36,0,0,1-1.69-.23,1,1,0,0,1,.42-1.5,1.16,1.16,0,0,1,.35-1.94,1.81,1.81,0,0,1,.34-2.18,1,1,0,0,1-1.45,0c-.13.68-1,.88-1.73.76S177.33,137.84,177.2,137.13Z"/><path class="cls-7" d="M177.2,137.13a.7.7,0,0,0,.06.23,1,1,0,0,0,.45.55,2.24,2.24,0,0,0,1.15.28,2.14,2.14,0,0,0,.76-.15,1,1,0,0,0,.58-.67l-.07,0a1,1,0,0,0,1.52,0l-.07,0a1.85,1.85,0,0,0-.35,2.24l0-.07a1.1,1.1,0,0,0-.75.87,1.14,1.14,0,0,0,.37,1.16l0-.1a1,1,0,0,0-.65,1,1.06,1.06,0,0,0,.9,1,1.58,1.58,0,0,0,1.37-.38,2.6,2.6,0,0,0,.72-1.33l-.09.05a1.38,1.38,0,0,0,1.68-.87h-.14a3.7,3.7,0,0,0,.69,1.67l0-.11a1.76,1.76,0,0,0-.87.77,1.5,1.5,0,0,0-.16,1.19,1.25,1.25,0,0,0,.94.81,1.1,1.1,0,0,0,1.2-.39l.12-.19-.21.06c-.22.06-.46-.15-.51-.4a.51.51,0,0,1,.38-.57.78.78,0,0,1,.77.13,1.37,1.37,0,0,1,.44.74l.06-.1a.73.73,0,0,0-.45.46,1.16,1.16,0,0,0,0,.64,1.11,1.11,0,0,0,.31.56,1.42,1.42,0,0,0,.55.33,3,3,0,0,0,1.25.11,8.82,8.82,0,0,0,1.25-.21c.84-.13,1.61-.8,2.4-.27a4.78,4.78,0,0,0,2.65.28,4.45,4.45,0,0,0,1.31-.42,6.63,6.63,0,0,0,1.16-.76.81.81,0,0,1,.58-.15,3.43,3.43,0,0,1,.66.18,5.24,5.24,0,0,0,1.42.2,7.5,7.5,0,0,0,2.83-.65l2.76-1-.13-.05a1.28,1.28,0,0,0,1.58.53,1.3,1.3,0,0,0,.66-1.63l-.14.16a1.88,1.88,0,0,0,2.26-1.83l-.2.08a.86.86,0,0,0,.77.26,1.22,1.22,0,0,0,.74-.39,2.7,2.7,0,0,0,.52-1.55l-.21.06a1.4,1.4,0,0,0,2.14-1.81l0,.17a1.79,1.79,0,0,0-.53-2.95l0,.21a1.69,1.69,0,0,0,0-2.5l0,.2a1.73,1.73,0,0,0,.89-1.38l-.23,0a.64.64,0,0,0,.32.31.8.8,0,0,0,.43,0,1.32,1.32,0,0,0,.74-.35,2.09,2.09,0,0,0,.55-1.52,2.18,2.18,0,0,0-.67-1.5,2.22,2.22,0,0,0-1.55-.62l.13.1a.92.92,0,0,0-.3-.53v.17a1,1,0,0,0,.2-.79v.06a1.84,1.84,0,0,0-.45-1.82,4,4,0,0,0-1.66-1v.24a1.28,1.28,0,0,0,.82-.84l-.05.06a1.58,1.58,0,0,0,.6-.89l0,0a1,1,0,0,0,.15-.88,1,1,0,0,0-.66-.66v.23a.46.46,0,0,0,.29-.33.75.75,0,0,0,0-.42.94.94,0,0,0-.56-.58,9.66,9.66,0,0,0-1.49-.06l0,0a5.94,5.94,0,0,0-3.54-.9l.11.2.69-.91.53-.7a5.21,5.21,0,0,0,.51-.73.71.71,0,0,0,.06-.5.93.93,0,0,0-.25-.43,2.16,2.16,0,0,0-.77-.48,4.89,4.89,0,0,0-1.73-.34,5.22,5.22,0,0,0-.88.07,1.46,1.46,0,0,0-.44.16.57.57,0,0,0-.29.45l.15-.12a3.56,3.56,0,0,0-1.66.21,7.84,7.84,0,0,0-.77.27,1.38,1.38,0,0,0-.68.55l.24.07c.05-.52.5-1,.63-1.58a.94.94,0,0,0-.23-.92.84.84,0,0,0-.45-.2.56.56,0,0,0-.5.19l.18.17a.54.54,0,0,0,.18-.46.81.81,0,0,0-.16-.43.74.74,0,0,0-.36-.29,1.31,1.31,0,0,0-.43-.08,3.05,3.05,0,0,0-.81.14,1.3,1.3,0,0,0-.4.18.53.53,0,0,0-.25.42l.24-.06a.82.82,0,0,0-.92-.36.81.81,0,0,0-.69.69l.18-.1a1.08,1.08,0,0,0-1.47.55l.15-.07a1.35,1.35,0,0,0-1.52.74l.23.08.36-1.35a1.6,1.6,0,0,0,.08-.73.82.82,0,0,0-.15-.38.34.34,0,0,0-.19-.14.42.42,0,0,0-.25,0l.08.23a.82.82,0,0,0,.56-.73,1.06,1.06,0,0,0-.3-.87,1.6,1.6,0,0,0-1.69-.18l-.05,0,0,0-.27.82.15-.08a1.27,1.27,0,0,0-1.38.42,1.29,1.29,0,0,0,0,1.43l.16-.17a.57.57,0,0,0-.59,0,.75.75,0,0,0-.35.45,1.78,1.78,0,0,0,.12,1l.16-.15a1,1,0,0,0-1.08.26,1,1,0,0,0-.28,1.06l.13-.16a3.2,3.2,0,0,0-1.71.14l.16.14a1.21,1.21,0,0,0-2-1.21l.19,0a1.19,1.19,0,0,0-1.76-.5l.16,0a1.28,1.28,0,0,0-.68-.54,1.17,1.17,0,0,0-.88,0,.88.88,0,0,0-.47.74,1.61,1.61,0,0,0,.24.82,7.23,7.23,0,0,0,1.05,1.2l1.09,1.11.1-.18-2.4-.51-1.17-.25a2.77,2.77,0,0,0-.62-.1.44.44,0,0,0-.31.19,2.53,2.53,0,0,0-.18.22,1.6,1.6,0,0,1-.49.23.78.78,0,0,0-.44.48,1.26,1.26,0,0,0,.32,1.16,2.16,2.16,0,0,0,1,.55,7.93,7.93,0,0,1,1,.35v-.18l-1.41.72.13,0a1.68,1.68,0,0,0-2.41-.49l.13,0a1.09,1.09,0,0,0-1-.37,4,4,0,0,0-1,.25,3,3,0,0,0-.9.46,1.26,1.26,0,0,0-.46.9,1.85,1.85,0,0,0,1,1.61,5.41,5.41,0,0,0,1.76.53l-.07-.08a.66.66,0,0,1-.37.57,1.63,1.63,0,0,1-.72.21,4.27,4.27,0,0,0-.78.1,1.14,1.14,0,0,0-.67.42c-.32.42-.41.94-.73,1.27-.14.17-.37.23-.57.41a.93.93,0,0,0-.23.7l.08,1.36a.78.78,0,0,0,.3.62.93.93,0,0,0,.66.15,1.46,1.46,0,0,0,.61-.23,2.71,2.71,0,0,0,.47-.42,3,3,0,0,1,.88-.74l-.07-.11a7.92,7.92,0,0,0-1,1,2.44,2.44,0,0,0-.5,1.23,1.73,1.73,0,0,0,.36,1.16,1.09,1.09,0,0,0,1,.45h0a1.91,1.91,0,0,0,1.11-.11l-.06,0a9.64,9.64,0,0,1,.22,3l0,0a5.67,5.67,0,0,0-1.31.7,2.09,2.09,0,0,0-.65.81,1.62,1.62,0,0,0-.11.6,1.12,1.12,0,0,0,0,.2,1.51,1.51,0,0,1,.11-.79,2.12,2.12,0,0,1,.65-.78,5.59,5.59,0,0,1,1.3-.68h0v0a9.14,9.14,0,0,0-.2-3.08v-.05l0,0a1.73,1.73,0,0,1-1.05.09h0a1,1,0,0,1-.92-.41,1.64,1.64,0,0,1-.33-1.09,2.34,2.34,0,0,1,.48-1.17,8.37,8.37,0,0,1,1-1l.29-.26-.35.16a3.13,3.13,0,0,0-.92.77,2.81,2.81,0,0,1-.45.4,1.4,1.4,0,0,1-.56.2.79.79,0,0,1-.56-.12.68.68,0,0,1-.24-.52c0-.44-.05-.89-.07-1.35a.75.75,0,0,1,.18-.59c.15-.15.41-.22.58-.42.36-.38.45-.9.74-1.27s.84-.42,1.35-.46a1.79,1.79,0,0,0,.79-.23.8.8,0,0,0,.44-.72v-.07h-.06a5.07,5.07,0,0,1-1.7-.51,1.67,1.67,0,0,1-.88-1.45,1,1,0,0,1,.4-.77,2.57,2.57,0,0,1,.84-.43,3.47,3.47,0,0,1,1-.23.9.9,0,0,1,.83.29l.06.08.07-.06A1.5,1.5,0,0,1,182,121l0,.08.08,0,1.41-.71.18-.09-.18-.09a7.48,7.48,0,0,0-1.07-.36,2,2,0,0,1-.94-.5,1.09,1.09,0,0,1-.28-1,.6.6,0,0,1,.33-.35,1.65,1.65,0,0,0,.55-.27c.16-.17.23-.34.37-.35a3.13,3.13,0,0,1,.55.09l1.18.26,2.39.51.35.07-.25-.25-1.08-1.11a6.52,6.52,0,0,1-1-1.17,1.16,1.16,0,0,1-.21-.68.63.63,0,0,1,.34-.56,1.08,1.08,0,0,1,1.27.44l.07.11.1-.07a1,1,0,0,1,1.4.4l.07.16.12-.12a1,1,0,0,1,1.61,1l-.06.21.21-.07a3.06,3.06,0,0,1,1.59-.13l.22,0-.09-.21a.83.83,0,0,1,1-1l.25.11-.09-.25a1.57,1.57,0,0,1-.11-.89c.06-.26.39-.47.59-.35l.47.3-.31-.46a1,1,0,0,1,0-1.15,1,1,0,0,1,1.11-.34l.12,0,0-.12q.13-.39.27-.81l-.07.07a1.38,1.38,0,0,1,1.44.14c.35.31.28,1.06-.17,1.19l.08.23a.12.12,0,0,1,.16.05.66.66,0,0,1,.1.27,1.41,1.41,0,0,1-.08.63c-.12.45-.24.9-.35,1.35l.23.09a1.09,1.09,0,0,1,1.23-.61l.11,0,0-.11a.83.83,0,0,1,1.11-.42l.17.1v-.2a.66.66,0,0,1,1.15-.23l.27.56,0-.62c0-.16.24-.3.47-.36a2.81,2.81,0,0,1,.74-.13.69.69,0,0,1,.59.26.44.44,0,0,1,0,.56l.17.18a.43.43,0,0,1,.59,0,.7.7,0,0,1,.16.68c-.1.52-.56,1-.64,1.61l-.08.61.31-.54c.24-.4.82-.52,1.31-.7a3.42,3.42,0,0,1,1.54-.2l.14,0v-.14c0-.19.28-.33.53-.37a4.42,4.42,0,0,1,2.46.26,1.89,1.89,0,0,1,.69.41.53.53,0,0,1,.14.65,5.74,5.74,0,0,1-.48.69l-.53.69-.7.92-.16.22.27,0a5.73,5.73,0,0,1,3.39.86l0,0h0a10.92,10.92,0,0,1,1.45.05.67.67,0,0,1,.4.42c.07.2,0,.39-.12.44l-.39.12.39.12a.78.78,0,0,1,.5.5.67.67,0,0,1-.12.65v0a1.28,1.28,0,0,1-.5.74l0,0v0a1,1,0,0,1-.64.66l-.37.11.36.13a3.88,3.88,0,0,1,1.56,1,1.63,1.63,0,0,1,.41,1.57v.06a.84.84,0,0,1-.14.61l-.08.09.09.07a.67.67,0,0,1,.22.39l0,.11h.1a2,2,0,0,1,1.38.56,2,2,0,0,1,.13,2.66,1.2,1.2,0,0,1-.61.29.45.45,0,0,1-.5-.22l-.2-.44,0,.48a1.52,1.52,0,0,1-.76,1.18l-.17.09.15.12a1.45,1.45,0,0,1,0,2.12l-.18.14.22.07a1.56,1.56,0,0,1,.45,2.54l-.09.07.08.1a1.16,1.16,0,0,1-1.78,1.5l-.17-.21,0,.27a2.56,2.56,0,0,1-.46,1.43.84.84,0,0,1-1.17.13l-.22-.27,0,.35a1.57,1.57,0,0,1-.64,1.29,1.6,1.6,0,0,1-1.33.31l-.22-.06.09.21a1.05,1.05,0,0,1-.54,1.33,1.07,1.07,0,0,1-1.3-.43l-.05-.08-.09,0-2.76,1a7.26,7.26,0,0,1-2.74.64,5.66,5.66,0,0,1-1.37-.19,4.63,4.63,0,0,0-.69-.19,1,1,0,0,0-.73.19,7.14,7.14,0,0,1-1.13.75,4.34,4.34,0,0,1-1.25.4,4.6,4.6,0,0,1-2.55-.26,2.53,2.53,0,0,0-.64-.21,1.5,1.5,0,0,0-.67.09,11.33,11.33,0,0,1-1.21.39,10.17,10.17,0,0,1-1.21.2,2.9,2.9,0,0,1-1.18-.09,1.07,1.07,0,0,1-.74-.76.76.76,0,0,1,.37-.9l.08,0,0-.08a1.6,1.6,0,0,0-.51-.83,1,1,0,0,0-.94-.17.69.69,0,0,0-.49.78.64.64,0,0,0,.72.53l-.09-.13a1,1,0,0,1-1,.32,1.06,1.06,0,0,1-.81-.7,1.52,1.52,0,0,1,.93-1.77l.09,0-.06-.08a3.63,3.63,0,0,1-.67-1.61l0-.32-.1.31a1.25,1.25,0,0,1-1.5.79l-.07,0,0,.08a2.35,2.35,0,0,1-.67,1.26,1.42,1.42,0,0,1-1.25.36.94.94,0,0,1-.81-.85.85.85,0,0,1,.56-.92l.11,0-.09-.07a1.11,1.11,0,0,1,.34-1.85h.06l0-.06a1.77,1.77,0,0,1,.32-2.13l-.06-.06a.92.92,0,0,1-1.39,0l-.05-.07v.08a.9.9,0,0,1-.53.62,1.85,1.85,0,0,1-.74.15,2.18,2.18,0,0,1-1.13-.25,1.06,1.06,0,0,1-.46-.52C177.22,137.21,177.21,137.13,177.2,137.13Z"/><path class="cls-15" d="M209.21,148.29l-6.72-19.38c-1.59-5.27-6-8.74-11.22-7l-.47.19A9.86,9.86,0,0,0,185,134.16c1.41,4.56,3,9.59,4,12,2,4.88,7.24,3.69,7.24,3.69s.42,1.15.93,2.61h0s.84,4.92,4.68,3.74S209.21,148.29,209.21,148.29Z"/><path class="cls-16" d="M196.24,149.81a12.8,12.8,0,0,0,5.64-4.45s0,4.35-5.1,5.86Z"/><path class="cls-6" d="M187.74,137.56a.75.75,0,0,0,1,.44.73.73,0,0,0,.47-.92.76.76,0,0,0-1-.44A.71.71,0,0,0,187.74,137.56Z"/><path class="cls-6" d="M186.87,135.78c.12.06.49-.54,1.25-.84s1.46-.15,1.5-.27-.13-.19-.44-.27a2.07,2.07,0,0,0-1.25.1,2,2,0,0,0-1,.79C186.82,135.56,186.81,135.76,186.87,135.78Z"/><path class="cls-6" d="M194.77,135.31a.75.75,0,0,0,1,.44.73.73,0,0,0,.47-.92.76.76,0,0,0-1-.44A.71.71,0,0,0,194.77,135.31Z"/><path class="cls-6" d="M194.38,133.14c.12.06.5-.55,1.25-.85s1.46-.14,1.51-.27-.13-.18-.44-.26a2.07,2.07,0,0,0-1.25.1,2,2,0,0,0-1,.79C194.33,132.92,194.32,133.11,194.38,133.14Z"/><path class="cls-6" d="M194,140a4.91,4.91,0,0,0-1.32.27c-.2.05-.4.09-.48,0a1.09,1.09,0,0,1-.1-.62c0-.54,0-1.11,0-1.7a26.65,26.65,0,0,0-.25-4.35,28.5,28.5,0,0,0-.1,4.36c0,.59,0,1.16.05,1.7a1.19,1.19,0,0,0,.2.79.52.52,0,0,0,.43.16,1,1,0,0,0,.34-.09A5.46,5.46,0,0,0,194,140Z"/><path class="cls-6" d="M193.18,130.66c.16.17.88-.22,1.8-.47s1.75-.28,1.79-.52-.18-.25-.55-.33a3.23,3.23,0,0,0-2.73.75C193.21,130.35,193.11,130.57,193.18,130.66Z"/><path class="cls-6" d="M186.16,133.12c.2.13.65-.25,1.28-.49s1.21-.32,1.26-.55-.12-.25-.42-.32a2,2,0,0,0-2.05.84C186.07,132.86,186.07,133.06,186.16,133.12Z"/><path class="cls-16" d="M194,142.25a3.47,3.47,0,0,0,.69.69,1.15,1.15,0,0,0,.93.19,1,1,0,0,0,.68-.73,1.71,1.71,0,0,0-.08-1c-.12-.29-.37-.6-.68-.54a.94.94,0,0,0-.33.2l-1.35,1.15"/><path class="cls-6" d="M195.05,143.33a2.47,2.47,0,0,0,.8-.38,1.28,1.28,0,0,0,.44-.78,1.33,1.33,0,0,0-.32-1,.93.93,0,0,0-.21-.19c-.09,0-.07,0-.14,0s-.14.12-.21.18l-.23.19-.77.64a3.05,3.05,0,0,1-.76.53s.21-.29.62-.69l.74-.69.21-.19a2,2,0,0,1,.25-.21.32.32,0,0,1,.23-.07.39.39,0,0,1,.22.08,1.49,1.49,0,0,1,.27.23,1.55,1.55,0,0,1,.36,1.26,1.38,1.38,0,0,1-.58.9,1.3,1.3,0,0,1-.66.25A.46.46,0,0,1,195.05,143.33Z"/><path class="cls-6" d="M182.15,130.56a6.93,6.93,0,0,1-.17-.79,2.27,2.27,0,0,1,.3-1.17,8,8,0,0,1,2.28-3.39c.65-.47,1.43-.69,2.08-1.15a13.12,13.12,0,0,0,1.14-1,11.54,11.54,0,0,1,5.47-2.46,9.83,9.83,0,0,1,3.38-.19,11.67,11.67,0,0,1,3.64,1.42,17.6,17.6,0,0,1,4.86,3.67,8.64,8.64,0,0,1,2.19,4.39,4.18,4.18,0,0,1-1.55,4.16l-.7-.45L204,133c.26.32.13.34-.11.63a.67.67,0,0,1-1,0c-.14.41-.81.23-.85-.22-.26.26-.77,0-.79-.44-.31.24-.69-.27-1-.6s-.36-.32-.53-.47a4.13,4.13,0,0,1-1.2-2,3.93,3.93,0,0,1-1.28-1.88c-.19-.45-.38-.89-.58-1.34l-.35-.25a.81.81,0,0,1-.29.87,1.71,1.71,0,0,1-.86.24l-.88.08-.48.3a2.13,2.13,0,0,1,.25,1.41,1.39,1.39,0,0,1-.26.9.4.4,0,0,1-.67-.26.45.45,0,0,1-.71.09,1.44,1.44,0,0,1-.44-.8,3.84,3.84,0,0,1,.07-2.23l-1,1.79a.7.7,0,0,1-.29.32.41.41,0,0,1-.29.55,1.06,1.06,0,0,1-.64-.21c-.46-.27-1-.79-.83-1.3-.18,0-.34-.24-.28-.42l-1.27,1.74c.13-.14.39.06.41.28a.87.87,0,0,1-.19.59,1.37,1.37,0,0,1,.42.73c.21-.36.8,0,.83.46a1,1,0,0,1-.67.94.68.68,0,0,1-.87-.27c-.34.19-.84-.21-.83-.66-.21.26-.58-.15-.69-.5a5.18,5.18,0,0,1-.28-1.91c0,.06-.07.1-.12.08a.09.09,0,0,1-.06-.06l-.24,2.37a5.6,5.6,0,0,0,0,2c.08.27.15.65-.07.74a.31.31,0,0,1-.19,0,3.45,3.45,0,0,1-2-1.29,2.46,2.46,0,0,1-.46-.72A11.91,11.91,0,0,1,182.15,130.56Z"/><path class="cls-7" d="M188.92,127.16a.83.83,0,0,1-.33-.35.6.6,0,0,1,0-.51.62.62,0,0,1,.56-.33h.14l-.09-.11a.66.66,0,0,1,0-.75.63.63,0,0,1,.79-.19l.07-.13-.06-.07a.37.37,0,0,1,0-.31.43.43,0,0,1,.21-.23.72.72,0,0,1,.32-.08.79.79,0,0,0,.37,0c.15-.07.18-.21.24-.28a2.09,2.09,0,0,1,.2-.22,1.47,1.47,0,0,1,.47-.26,1.42,1.42,0,0,1,.78,0c.19,0,.28.1.29.09a.7.7,0,0,0-.27-.14,1.42,1.42,0,0,0-.83,0,1.44,1.44,0,0,0-.52.27,1,1,0,0,0-.22.24c-.07.09-.12.19-.19.22a.82.82,0,0,1-.32,0,.92.92,0,0,0-.39.09.56.56,0,0,0-.28.32.53.53,0,0,0,.06.44.47.47,0,0,0,.1.1l.08-.13a.79.79,0,0,0-1,.26.78.78,0,0,0,.06.9l.05-.11a.73.73,0,0,0-.65.41.66.66,0,0,0,0,.6.76.76,0,0,0,.27.27A.32.32,0,0,0,188.92,127.16Z"/><path class="cls-7" d="M185.68,129.08a1,1,0,0,1-.38-.32.71.71,0,0,1-.13-.54.79.79,0,0,1,.44-.56l.1,0-.09-.06a.89.89,0,0,1-.47-.69.53.53,0,0,1,.19-.4.4.4,0,0,1,.44-.07l.52.31-.44-.42a.76.76,0,0,1-.22-.6.73.73,0,0,1,.37-.56.81.81,0,0,1,.48-.09l.19,0-.12-.15a.48.48,0,0,1,.23-.67,1.22,1.22,0,0,1,.8,0l.16,0-.09-.13a.54.54,0,0,1,0-.55,1.08,1.08,0,0,1,.41-.36A2.74,2.74,0,0,1,189,123a4,4,0,0,1,.84.06.61.61,0,0,0-.22-.08,3,3,0,0,0-.62-.06,2.64,2.64,0,0,0-.95.22,1.11,1.11,0,0,0-.48.39.68.68,0,0,0,0,.69l.07-.1a1.37,1.37,0,0,0-.89,0,.72.72,0,0,0-.34.37.52.52,0,0,0,.06.52l.07-.12a.93.93,0,0,0-.59.1.85.85,0,0,0-.43.68.9.9,0,0,0,.26.71l.09-.11a.52.52,0,0,0-.59.08.62.62,0,0,0-.24.51,1,1,0,0,0,.54.79v-.1a.87.87,0,0,0-.47.65.73.73,0,0,0,.16.59.67.67,0,0,0,.3.24A.32.32,0,0,0,185.68,129.08Z"/><path class="cls-7" d="M178.31,131.92a.53.53,0,0,1,.07-.43.73.73,0,0,1,.42-.31,2.1,2.1,0,0,1,.72,0h.09l0-.08a.64.64,0,0,1,.32-.73,1.81,1.81,0,0,1,1.05-.13l.48,0-.45-.17a.51.51,0,0,1-.17-.72,1.16,1.16,0,0,1,.81-.47h0l.28-.05-.28-.09a.56.56,0,0,1-.18-.86.85.85,0,0,1,.93-.18l.35.15-.28-.26a1.27,1.27,0,0,1-.36-1.24,1.2,1.2,0,0,1,.68-.77,1.33,1.33,0,0,1,.69-.1c.16,0,.25,0,.25,0a.14.14,0,0,0-.06,0l-.19-.06a1.3,1.3,0,0,0-.72.08,1.28,1.28,0,0,0-.76.81,1.38,1.38,0,0,0,.38,1.37l.07-.11a1,1,0,0,0-1.09.2.72.72,0,0,0-.16.6.64.64,0,0,0,.41.5v-.14h0a1.34,1.34,0,0,0-.91.53.82.82,0,0,0-.08.53.54.54,0,0,0,.33.4l0-.13a1.92,1.92,0,0,0-1.12.16.74.74,0,0,0-.36.88l.05-.07a2.18,2.18,0,0,0-.74.06.8.8,0,0,0-.45.36.54.54,0,0,0-.06.35C178.28,131.89,178.31,131.93,178.31,131.92Z"/><path class="cls-7" d="M180.19,123.59a.63.63,0,0,0,.2,0,2.85,2.85,0,0,0,.56-.13,1.66,1.66,0,0,1,.82-.11.52.52,0,0,1,.38.26.39.39,0,0,1,0,.46l.12,0c0-.19.17-.37.34-.55a2.25,2.25,0,0,1,.58-.48.91.91,0,0,1,.7-.09.58.58,0,0,1,.44.44l0,.18.1-.16a1.56,1.56,0,0,1,.81-.64,1.8,1.8,0,0,1,.82-.12,2.67,2.67,0,0,1,.72.21.91.91,0,0,0-.17-.12,1.48,1.48,0,0,0-.54-.17,1.84,1.84,0,0,0-1.76.77l.13,0a.75.75,0,0,0-.54-.56,1,1,0,0,0-.81.1,2.6,2.6,0,0,0-.62.51c-.08.09-.17.18-.25.28a.58.58,0,0,0-.12.38l0,.14.1-.09a.51.51,0,0,0,0-.62.64.64,0,0,0-.46-.32,1.79,1.79,0,0,0-.88.15,3.88,3.88,0,0,1-.53.16A1.81,1.81,0,0,0,180.19,123.59Z"/><path class="cls-7" d="M186.41,118.84a1.31,1.31,0,0,1,.38-.06,1.08,1.08,0,0,1,.42.12.93.93,0,0,1,.37.41l0,.08.07,0a.5.5,0,0,1,.6.14,1.45,1.45,0,0,1,.25.78l0,.29.11-.28v0a.69.69,0,0,1,.95-.27,1.11,1.11,0,0,1,.53.75,2.54,2.54,0,0,1,0,.66,1.41,1.41,0,0,0,0,.25.54.54,0,0,0,.08-.24,1.64,1.64,0,0,0,0-.69,1.21,1.21,0,0,0-.56-.85.82.82,0,0,0-1.15.34l0,0,.14,0a1.58,1.58,0,0,0-.29-.85.61.61,0,0,0-.78-.15l.09,0a.92.92,0,0,0-.43-.46,1.11,1.11,0,0,0-.47-.1.81.81,0,0,0-.29.07Q186.4,118.83,186.41,118.84Z"/><path class="cls-7" d="M193.83,121.34s.07,0,.17-.1a1.18,1.18,0,0,0,.34-.42,1.24,1.24,0,0,0,.12-.81.65.65,0,0,1,0-.41c.05-.12.21-.23.27-.43a.75.75,0,0,0-.46-.9l0,.1a2.17,2.17,0,0,0,.36-1,1,1,0,0,0,0-.42,3.19,3.19,0,0,0-.07.4,2.58,2.58,0,0,1-.39,1l0,.07.09,0a.62.62,0,0,1,.36.73c0,.14-.18.24-.26.41a.76.76,0,0,0,0,.5,1.31,1.31,0,0,1-.08.73A1.9,1.9,0,0,1,193.83,121.34Z"/><path class="cls-7" d="M196,122.06l.12,0a1.46,1.46,0,0,0,.33-.13,1.89,1.89,0,0,0,.87-.9l-.09,0a1.3,1.3,0,0,0,1,.2,1.44,1.44,0,0,0,.51-.22.77.77,0,0,0,.35-.48c0-.09,0-.16,0-.22a.24.24,0,0,1,.05-.16.83.83,0,0,1,.28-.24,1.11,1.11,0,0,0,.32-.25.41.41,0,0,0,.1-.41l-.07.09a1.35,1.35,0,0,0,.87-.23,1.37,1.37,0,0,0,.46-.52,1.23,1.23,0,0,0,.13-.43c0-.11,0-.16,0-.16a1.67,1.67,0,0,1-.19.55,1.41,1.41,0,0,1-.45.47,1.28,1.28,0,0,1-.79.19l-.11,0,0,.1a.31.31,0,0,1-.08.28,1.3,1.3,0,0,1-.29.22,1.1,1.1,0,0,0-.34.28.48.48,0,0,0-.07.24,1.33,1.33,0,0,1,0,.2.65.65,0,0,1-.28.38,1.17,1.17,0,0,1-1.32,0l-.06,0,0,.06a2,2,0,0,1-.79.89C196.17,122,196,122,196,122.06Z"/><path class="cls-7" d="M208.45,123.17v-.06a.5.5,0,0,0,0-.15,1.43,1.43,0,0,0-.23-.54,3.35,3.35,0,0,0-.61-.69,3.4,3.4,0,0,0-.44-.36.77.77,0,0,0-.3-.11.36.36,0,0,0-.35.1l.1,0a1,1,0,0,0-.7-.77,1,1,0,0,0-1.07.4l.13,0a.67.67,0,0,0-.41-.46.65.65,0,0,0-.63.11.64.64,0,0,0-.22.29h.14a.4.4,0,0,0-.24-.29.56.56,0,0,0-.36,0,1.3,1.3,0,0,0-.56.33h.09a1,1,0,0,0-.73-.25,1.47,1.47,0,0,0-.7.2,3.93,3.93,0,0,0-.91.84l.09,0a.23.23,0,0,0-.1-.23.36.36,0,0,0-.21-.09.89.89,0,0,0-.4.06,2.14,2.14,0,0,0-.51.33,1.51,1.51,0,0,0-.26.28.34.34,0,0,0-.08.12,4.57,4.57,0,0,1,.38-.35,2.36,2.36,0,0,1,.51-.31.64.64,0,0,1,.34,0c.13,0,.25.09.23.21l0,.18.13-.14a3.92,3.92,0,0,1,.9-.8,1.32,1.32,0,0,1,.63-.17.9.9,0,0,1,.64.22l0,0,.05,0a1.24,1.24,0,0,1,.5-.3.36.36,0,0,1,.43.22l.05.25.09-.24a.48.48,0,0,1,.17-.23.5.5,0,0,1,.48-.08.55.55,0,0,1,.33.35l0,.16.09-.13a.86.86,0,0,1,.92-.34.84.84,0,0,1,.61.65l0,.12.08-.09c.12-.13.34-.06.5,0a3.79,3.79,0,0,1,.43.34,3.08,3.08,0,0,1,.62.65A1.83,1.83,0,0,1,208.45,123.17Z"/><path class="cls-7" d="M208.86,127.54s0,0,0-.11a2,2,0,0,0,.08-.33,1.07,1.07,0,0,0,0-.55.63.63,0,0,0-.2-.29.5.5,0,0,0-.38-.15l0,.06a.67.67,0,0,0-.17-.7.7.7,0,0,0-.83-.1l.1.08a.58.58,0,0,0-.21-.63.81.81,0,0,0-.68-.1c-.12,0-.22.08-.32.09a.26.26,0,0,1-.24-.12,1.41,1.41,0,0,0-.28-.25.63.63,0,0,0-.38-.09,3.8,3.8,0,0,0-.76.21.91.91,0,0,1-.67,0c-.09-.06-.17-.14-.27-.22a.76.76,0,0,0-.35-.14.78.78,0,0,0-.65.23l.11.07a.6.6,0,0,0-.27-.63.8.8,0,0,0-.61-.11,2.54,2.54,0,0,0-.89.38,4.51,4.51,0,0,0-.49.38.9.9,0,0,0-.15.17s.23-.21.68-.48a2.68,2.68,0,0,1,.87-.35.74.74,0,0,1,.52.1.46.46,0,0,1,.21.5l-.08.26.19-.2a.65.65,0,0,1,.54-.18.61.61,0,0,1,.29.11,3.45,3.45,0,0,0,.28.23.89.89,0,0,0,.39.09,2.44,2.44,0,0,0,.39-.07,3.17,3.17,0,0,1,.73-.2.51.51,0,0,1,.3.07c.09,0,.15.14.24.23a.42.42,0,0,0,.37.15c.13,0,.23-.07.33-.09a.66.66,0,0,1,.57.07.43.43,0,0,1,.17.47l-.07.18.16-.1a.59.59,0,0,1,.68.07.64.64,0,0,1,.16.59l0,.07h.08a.57.57,0,0,1,.5.37.93.93,0,0,1,.05.51C208.9,127.38,208.85,127.54,208.86,127.54Z"/><path class="cls-7" d="M212.16,134.83a.38.38,0,0,0,.13-.09,1,1,0,0,0,.25-.35,1.11,1.11,0,0,0,.06-.67,1.13,1.13,0,0,0-.52-.7l0,.07a2,2,0,0,0,.16-.81.82.82,0,0,0-.16-.44.61.61,0,0,0-.44-.26l.05.12a.85.85,0,0,0,.14-.84,1,1,0,0,0-.28-.42.8.8,0,0,0-.45-.18c-.15,0-.23-.07-.28-.21a1.19,1.19,0,0,0-.21-.38,1.57,1.57,0,0,0-.7-.42l-.64-.22a2.49,2.49,0,0,0-1-.16,1.1,1.1,0,0,0-.27.06l-.09,0a2.42,2.42,0,0,1,.36,0,2.51,2.51,0,0,1,1,.2l.63.24a1.41,1.41,0,0,1,.63.38,1.19,1.19,0,0,1,.19.35.51.51,0,0,0,.15.22.7.7,0,0,0,.23.08.72.72,0,0,1,.62.51.73.73,0,0,1-.11.7l-.1.11h.15a.6.6,0,0,1,.48.56,1.91,1.91,0,0,1-.15.76v0l0,0a1,1,0,0,1,.48.63,1,1,0,0,1,0,.62A1.44,1.44,0,0,1,212.16,134.83Z"/><path class="cls-7" d="M196,127.16a1.17,1.17,0,0,0,.37-.29,1.35,1.35,0,0,0,.29-.44.85.85,0,0,0,0-.66.69.69,0,0,0-.11-.13v.11a.73.73,0,0,0,.22-.57.65.65,0,0,0-.23-.44c-.22-.18-.41-.15-.4-.13a1.06,1.06,0,0,1,.33.21.49.49,0,0,1,.16.37.58.58,0,0,1-.18.45l-.05,0,.05.06a.34.34,0,0,1,.08.09.78.78,0,0,1,0,.54,1.4,1.4,0,0,1-.24.42C196.1,127,196,127.14,196,127.16Z"/><path class="cls-7" d="M192.25,126.59a1,1,0,0,1-.25-.49.61.61,0,0,1,.21-.54.63.63,0,0,1,.7-.09l.12,0v-.12a1.08,1.08,0,0,1,0-.47.52.52,0,0,1,.28-.35c.21-.1.53,0,.52.24H194a1.15,1.15,0,0,1,.19-.82,1.11,1.11,0,0,1,.54-.41,1.62,1.62,0,0,1,.62-.06s0,0-.17-.06a1.23,1.23,0,0,0-.48,0,1.08,1.08,0,0,0-.61.42,1.21,1.21,0,0,0-.23.91H194a.41.41,0,0,0-.26-.37.61.61,0,0,0-.46,0,.67.67,0,0,0-.36.45,1.17,1.17,0,0,0,0,.52l.1-.07a.78.78,0,0,0-.85.13.68.68,0,0,0-.21.64.71.71,0,0,0,.2.39A.52.52,0,0,0,192.25,126.59Z"/><path class="cls-15" d="M203.52,132.72c.06-.07,3-2.34,4.2,1.06s-2.43,3.93-2.47,3.84S203.52,132.72,203.52,132.72Z"/><path class="cls-16" d="M205.82,136s.07,0,.19,0a.65.65,0,0,0,.45-.15,1.57,1.57,0,0,0,.2-1.56,2.23,2.23,0,0,0-.48-.79.72.72,0,0,0-.61-.29.33.33,0,0,0-.29.29c0,.11,0,.17,0,.18s-.09,0-.11-.18a.43.43,0,0,1,.05-.26.52.52,0,0,1,.3-.21.9.9,0,0,1,.81.31,2.2,2.2,0,0,1,.55.87,1.65,1.65,0,0,1-.33,1.78.7.7,0,0,1-.58.11C205.86,136,205.81,136,205.82,136Z"/><path class="cls-14" d="M196.14,184.75s6.78.81,11.31-2.18S217.62,168,217.62,168s-11.32,13.07-22,14.75Z"/><path class="cls-9" d="M209,156.87c-3.86,5-11.12,14.5-11.12,14.5L171,175.31l1.4,8.91,26.71-1.53a15.57,15.57,0,0,0,10.22-5.14c3.27-3.66,7.72-8.73,10.49-12.24a6.86,6.86,0,0,0-1.65-10h0A6.86,6.86,0,0,0,209,156.87Z"/><path class="cls-7" d="M220.48,248.09c-.07,0-1.81-7.9-3.86-17.68S213,212.69,213,212.67s1.81,7.9,3.87,17.68S220.56,248.07,220.48,248.09Z"/><path class="cls-7" d="M236.43,241.66c.06.05-.34.56-.89,1.14s-1,1-1.11.94a3.86,3.86,0,0,1,.9-1.14C235.88,242,236.37,241.6,236.43,241.66Z"/><path class="cls-6" d="M213.31,151.79l-.27.37-.8,1-3.09,4L198,171.44l0,0h0l-26.88,4,.12-.16c.27,1.63.55,3.37.84,5.13.21,1.31.42,2.62.63,3.9l-.15-.12,28.46-1.77h0a15.62,15.62,0,0,0,4.91-2,15.89,15.89,0,0,0,3.63-3.12l5.14-5.92,3.3-3.78.88-1c.19-.22.3-.33.3-.33l-.28.35-.84,1-3.26,3.83-5.09,6a16.28,16.28,0,0,1-8.64,5.27h0l-28.46,1.82h-.13l0-.13q-.31-1.94-.63-3.9c-.29-1.76-.57-3.5-.84-5.14l0-.14.15,0,26.88-3.91-.08,0L209,157.09l3.14-3.93.83-1C213.2,151.9,213.31,151.79,213.31,151.79Z"/><path class="cls-6" d="M216.63,182.15a4.25,4.25,0,0,1-.34.59,16.08,16.08,0,0,1-1.06,1.51,26.15,26.15,0,0,1-9.41,7.58c-.71.33-1.29.57-1.7.71a2.67,2.67,0,0,1-.65.2c0-.05.88-.4,2.26-1.1a29.75,29.75,0,0,0,5.06-3.28,30.61,30.61,0,0,0,4.28-4.24C216.05,182.92,216.58,182.12,216.63,182.15Z"/><path class="cls-6" d="M219.09,186.14c0,.07-2.35,1.51-5.34,3.2s-5.44,3-5.48,2.95,2.35-1.5,5.34-3.2S219.05,186.07,219.09,186.14Z"/><path class="cls-6" d="M192.26,170.31a4.2,4.2,0,0,1-.19-.57c-.12-.43-.28-1-.45-1.56-.4-1.4-.9-3.19-1.46-5.18s-1-3.87-1.39-5.2c-.15-.62-.28-1.15-.39-1.58a3.06,3.06,0,0,1-.11-.6,2.45,2.45,0,0,1,.22.57c.12.36.28.89.48,1.55.4,1.32.92,3.15,1.48,5.18s1,3.87,1.37,5.21A11.85,11.85,0,0,1,192.26,170.31Z"/><g class="cls-11"><path d="M206.13,194.51c2.65-.28,5.35-.35,7.81-1.35a10.35,10.35,0,0,0,5.8-5.2A88.25,88.25,0,0,1,206.13,194.51Z"/></g><path class="cls-17" d="M159.32,186.93l-1,1a4.18,4.18,0,0,0-1.12,1.86c-.22.8-.36,1.42-.39,1.47l-1.1,3.49,4.06,3,.65-2.94a9.76,9.76,0,0,0,2.59-1.53c.9-.86,1.31-1.25,1.53-2a1,1,0,0,0-.11-.84s0-1.6-.63-1.65a2.23,2.23,0,0,0,.12-1.29c-.38-.8-1.51-.74-1.51-.74a.38.38,0,0,0,0-.63.54.54,0,0,0-.74.12l-2.27,2Z"/><path class="cls-9" d="M126.78,197.09a6.28,6.28,0,0,0,1.17,8.1c5.36,4.67,19.87,12.8,22,12.44,3.14-.52,11.37-18.84,11.37-18.84l-6.12-5-7.66,12.4s-6.32-6-11.26-9.87c-3-2.38-7.49-2.43-9.55.81Z"/><path class="cls-6" d="M136,196l.21.17.62.52,2.33,2,8.47,7.36-.17,0c2.18-3.56,4.78-7.8,7.63-12.43l.08-.13.13.1,6.12,5,.09.07-.05.1c-.65,1.44-1.36,2.94-2.1,4.46-1.29,2.66-2.61,5.23-4,7.66-.69,1.21-1.4,2.39-2.15,3.51-.38.55-.76,1.1-1.19,1.61a6.83,6.83,0,0,1-1.41,1.38,1.45,1.45,0,0,1-1,.29,4.11,4.11,0,0,1-.95-.2c-.6-.19-1.18-.42-1.74-.66-1.12-.48-2.18-1-3.2-1.51-2-1-3.87-2.09-5.54-3.07-3.34-2-5.95-3.73-7.69-5-.88-.65-1.53-1.17-2-1.54-.22-.18-.38-.33-.49-.43l-.16-.15s.07,0,.18.13l.51.4c.44.36,1.11.87,2,1.49,1.77,1.26,4.39,3,7.73,4.93,1.67,1,3.53,2,5.55,3,1,.51,2.08,1,3.19,1.49a16.85,16.85,0,0,0,1.72.64,4.58,4.58,0,0,0,.89.2,1.29,1.29,0,0,0,.81-.25,7.08,7.08,0,0,0,1.34-1.34c.41-.5.79-1,1.17-1.59.74-1.11,1.44-2.28,2.13-3.49,1.37-2.42,2.68-5,4-7.65.73-1.51,1.45-3,2.09-4.45l0,.17-6.11-5.05.21,0c-2.87,4.62-5.48,8.84-7.68,12.39l-.07.12-.1-.09-8.41-7.43-2.29-2.05-.59-.54C136.1,196.09,136,196,136,196Z"/><path class="cls-12" d="M128.94,96.66a2.45,2.45,0,0,1-.27.53,3.57,3.57,0,0,0,.1,3.75l1.28,2,.16,3,6.56,1.57-.31-5.33a11.47,11.47,0,0,0,1.09-3.76c0-1.52-.39-3.14-.89-3.21l-.65-.09a2.21,2.21,0,0,0-1.3-1s-.4-2-1.07-2.14-1.29.53-1.29.53-.83-1.61-1.55-1.5a1.69,1.69,0,0,0-1.45,1.67l-.44,4.16Z"/><path class="cls-4" d="M113.63,34.52a1.66,1.66,0,1,0-3.17,1l79.09,252,3.46.15Z"/><path class="cls-9" d="M115.68,37.86s-21,14.33-37.28,15.62S43.75,56,34.07,66.87c0,0,35.73,5.61,37.75,10.36,0,0-21.36,17-24.6,26.7,0,0,15.37-5.44,18.54-6.79,10.53-4.46,31-2.47,38.8-5.28,8.64-3.12,16.82-11.89,23.93-13.25Z"/><polygon class="cls-18" points="91.35 56.14 98 62.81 107.26 61.13 102.96 69.51 107.43 77.81 98.13 76.31 91.62 83.12 90.17 73.81 81.69 69.72 90.09 65.47 91.35 56.14"/><path class="cls-6" d="M109.22,52.5a1.73,1.73,0,0,1-.13.38c-.1.28-.24.64-.41,1.08s-.4,1-.7,1.7-.6,1.4-1,2.2-.83,1.69-1.35,2.61-1.09,1.9-1.7,2.92a65.5,65.5,0,0,1-4.5,6.29,67.28,67.28,0,0,1-5.24,5.69c-.88.8-1.7,1.58-2.51,2.26s-1.57,1.3-2.28,1.85-1.37,1-2,1.45-1.09.76-1.52,1l-1,.62a2.49,2.49,0,0,1-.35.2,1.76,1.76,0,0,1,.32-.25l.94-.67c.41-.28.92-.63,1.48-1.07s1.23-.89,1.92-1.47,1.46-1.17,2.25-1.88S93.12,76,94,75.17A73.8,73.8,0,0,0,99.2,69.5a72.26,72.26,0,0,0,4.49-6.26c.61-1,1.21-2,1.71-2.89s1-1.78,1.38-2.58.75-1.54,1-2.18.56-1.21.75-1.67l.46-1.06A1.82,1.82,0,0,1,109.22,52.5Z"/><path class="cls-6" d="M121.12,74.33A1.41,1.41,0,0,1,121,74l-.3-.89-1.06-3.32c-.88-2.8-2.07-6.68-3.35-11s-2.43-8.19-3.21-11c-.4-1.41-.7-2.56-.9-3.36-.1-.4-.16-.71-.2-.93a1.39,1.39,0,0,1,0-.24s0-.08,0-.06v0s0,.06.05.27.15.54.25.91c.25.82.58,2,1,3.33l3.29,11,3.27,11c.4,1.39.73,2.52,1,3.34l.24.92A1.14,1.14,0,0,1,121.12,74.33Z"/><g class="cls-11"><path d="M113.77,48.84a86.15,86.15,0,0,0,1.63,15.39,29,29,0,0,0,6.85,13.7q-4.84-14.37-8.5-29.1"/></g><path class="cls-15" d="M157,172.75h4.19a2.9,2.9,0,0,1,1.93.73l3.2,2.88,4.66-.54,1.29,7.71-6.45-.24a20.49,20.49,0,0,1-4.48.77c-1.72,0-3.53-.52-3.59-1.09l-.09-.73a2.52,2.52,0,0,1-1.13-1.5s-2.21-.5-2.39-1.27.63-1.43.63-1.43-1.78-1-1.65-1.79A1.93,1.93,0,0,1,154,175l3.5-.47Z"/><path class="cls-6" d="M146.69,169.65a8,8,0,0,1,1.09,7.29c-.42,1.17-1.12,2.44-.59,3.57s2.05,1.5,2.53,2.63c.57,1.33-.6,2.76-.66,4.21a2.87,2.87,0,0,0,2.39,2.85,11.18,11.18,0,0,1-6,.87c-.32-.77-.65-1.55-1-2.33a2.06,2.06,0,0,1-.8,2.4,4.64,4.64,0,0,1-2.59.72,14.2,14.2,0,0,1-11.49-5.21"/><path class="cls-6" d="M121.34,174.11a30,30,0,0,0,1.74-2.44c1-1.91.61-4.46,2.09-6,1-1.11,2.72-1.34,4.25-1.4a9.62,9.62,0,0,0,4.47-.75c1-.55,1.7-1.48,2.67-2a6.77,6.77,0,0,1,4.68-.4,9.59,9.59,0,0,1,4.43,2,5.28,5.28,0,0,1,1.89,4.35,14.93,14.93,0,0,0-.36,2.37,16.52,16.52,0,0,0,.7,2.54,4.22,4.22,0,0,1-2.34,4.59L130.9,188c-2.51.25-7.75-2.29-9.06-4.46S120,176.22,121.34,174.11Z"/><path class="cls-17" d="M145.76,175.08c.42-3.3-1-7.72-4.3-8l-10.65.63a2,2,0,0,0-2.08,1.62L125.15,194h-.08s1,7.35,8.1,6.53c1.41-.16,1.88.44,2.44-1h0l0-.18c.44-1.82,1.24-5.6,1.24-5.6h0c.4-2,.56-2.78.56-2.76s4.3.1,6.2-5.18A58.52,58.52,0,0,0,145.76,175.08Z"/><path class="cls-6" d="M136.7,178.36a.71.71,0,0,1-.81.57.67.67,0,0,1-.6-.76.72.72,0,0,1,.81-.58A.69.69,0,0,1,136.7,178.36Z"/><path class="cls-6" d="M143.86,179.42a.71.71,0,0,1-.81.58.68.68,0,0,1-.6-.77.71.71,0,0,1,.81-.57A.68.68,0,0,1,143.86,179.42Z"/><path class="cls-6" d="M144.62,177.35c-.1.11-.63-.47-1.46-.57s-1.49.31-1.56.18.08-.26.37-.45a1.88,1.88,0,0,1,1.27-.28,1.82,1.82,0,0,1,1.14.6C144.61,177.08,144.68,177.31,144.62,177.35Z"/><path class="cls-6" d="M137,176.2c-.12.09-.63-.53-1.49-.73s-1.61.12-1.68,0,.11-.24.44-.4a2.21,2.21,0,0,1,1.37-.13,2.1,2.1,0,0,1,1.16.73C137,175.94,137.06,176.16,137,176.2Z"/><path class="cls-6" d="M138.61,182a5,5,0,0,1,1.26,0c.2,0,.39,0,.44-.11a.91.91,0,0,0,0-.59c-.1-.5-.19-1-.29-1.57a24.75,24.75,0,0,1-.55-4.06,25.38,25.38,0,0,1,.87,4c.09.55.18,1.08.27,1.58a1.15,1.15,0,0,1,0,.77.5.5,0,0,1-.37.22,1.62,1.62,0,0,1-.33,0A5.18,5.18,0,0,1,138.61,182Z"/><path class="cls-19" d="M137.44,191a14.16,14.16,0,0,1-6.92-3.34s1,4.08,6.6,4.61Z"/><path class="cls-9" d="M138,183.78a1.38,1.38,0,0,0-1.12-.74,1.29,1.29,0,0,0-.94.3.8.8,0,0,0-.23.88.93.93,0,0,0,.94.44,2.82,2.82,0,0,0,1.07-.39.76.76,0,0,0,.25-.18.27.27,0,0,0,.06-.28"/><path class="cls-6" d="M136.3,182.13c.13,0,0,.83.56,1.54s1.47.79,1.46.9-.23.12-.6.06a2,2,0,0,1-1.22-.7,1.84,1.84,0,0,1-.42-1.29C136.12,182.3,136.25,182.11,136.3,182.13Z"/><path class="cls-6" d="M137.61,173.67c-.11.19-.84,0-1.74-.11s-1.66.05-1.75-.16.13-.27.45-.41a3,3,0,0,1,1.36-.2,2.89,2.89,0,0,1,1.3.41C137.53,173.39,137.66,173.58,137.61,173.67Z"/><path class="cls-6" d="M144.49,175c-.18.14-.74-.15-1.45-.29s-1.33-.14-1.44-.34.08-.25.38-.37a2.24,2.24,0,0,1,1.23,0,2.31,2.31,0,0,1,1.1.56C144.53,174.72,144.57,174.91,144.49,175Z"/><path class="cls-6" d="M128.44,167.9a4.53,4.53,0,0,1,2.62-.88,51.48,51.48,0,0,1,12.09.19,2.09,2.09,0,0,1-1.36,2.27,9.25,9.25,0,0,1-2.83.44,3.59,3.59,0,0,0-2.58,1.11c-.63.8-.6,2-1.18,2.81-1,1.44-3.38,1.35-4.38,2.79-.76,1.1-.41,2.58-.58,3.9a4.75,4.75,0,0,1-5.92,4l2.94-14A4.67,4.67,0,0,1,128.44,167.9Z"/><path class="cls-6" d="M116.07,177a5.75,5.75,0,0,0,2.5-1.62c.79-1.24.13-3.12,1.16-4.16s2.81-.39,3.71-1.37c.71-.77.39-1.71.78-2.45a2.23,2.23,0,0,1,2.47-.81l3.8,10.77c-.25,3.2-.1,5-1.24,6.58a15.23,15.23,0,0,0-1.77,2.69,3.05,3.05,0,0,0,.21,3.07c-3.82-.72-6.8-3.63-9.53-6.4l-2.88-2.94a2.53,2.53,0,0,1-.73-1C114.27,178.33,115.17,177.42,116.07,177Z"/><path class="cls-7" d="M118.32,182.33a2.13,2.13,0,0,0,.38.18,3.6,3.6,0,0,0,1.19.24,3.77,3.77,0,0,0,1.86-.44,3.62,3.62,0,0,0,1.66-1.9,3.68,3.68,0,0,0,.27-1.46,5.84,5.84,0,0,0-.32-1.58,5.68,5.68,0,0,1-.32-1.64,1.9,1.9,0,0,1,.63-1.53,3.35,3.35,0,0,1,1.78-.38,1.75,1.75,0,0,0,1-.38,1.72,1.72,0,0,0,.53-.91,11,11,0,0,0,.1-2.06,2.21,2.21,0,0,1,.25-1,1.37,1.37,0,0,1,.75-.61,3.88,3.88,0,0,1,2,0,4.07,4.07,0,0,0,2.08,0,3.81,3.81,0,0,0,1.71-1.07,6.11,6.11,0,0,0,1-1.66,9.17,9.17,0,0,1,.83-1.59,3.76,3.76,0,0,1,1.24-1.08,4.35,4.35,0,0,1,5.09.64,5,5,0,0,1,1.14,1.49,6.51,6.51,0,0,1,.55,1.52.75.75,0,0,0,0-.11c0-.07,0-.18,0-.31a5.2,5.2,0,0,0-.41-1.14,5.07,5.07,0,0,0-1.13-1.54,4.5,4.5,0,0,0-2.25-1.18,4.61,4.61,0,0,0-3,.46,4,4,0,0,0-1.31,1.14,8.84,8.84,0,0,0-.86,1.61,6,6,0,0,1-.94,1.6,3.52,3.52,0,0,1-1.61,1,4,4,0,0,1-2,0,4.12,4.12,0,0,0-2.15,0,1.69,1.69,0,0,0-.86.72,2.35,2.35,0,0,0-.28,1,11.14,11.14,0,0,1-.1,2,1.49,1.49,0,0,1-.45.8,1.55,1.55,0,0,1-.84.32c-.31,0-.64,0-1,.09a1.81,1.81,0,0,0-.92.34,2.15,2.15,0,0,0-.7,1.7,6,6,0,0,0,.34,1.69,6.28,6.28,0,0,1,.33,1.53,3.64,3.64,0,0,1-.25,1.41,3.58,3.58,0,0,1-1.57,1.84,3.67,3.67,0,0,1-1.8.46A4.29,4.29,0,0,1,118.32,182.33Z"/><path class="cls-6" d="M115.08,174.52a.82.82,0,0,0-.21.28,1.37,1.37,0,0,0-.09,1,1.56,1.56,0,0,0,.34.63,1.52,1.52,0,0,0,.74.43,1.91,1.91,0,0,0,1.92-.6,2.44,2.44,0,0,0,.58-1.06,3.58,3.58,0,0,0,.07-1.31,8.06,8.06,0,0,1-.15-2.78,1.77,1.77,0,0,1,.78-1.17,2,2,0,0,1,1.48,0,4.67,4.67,0,0,0,1.66.27,1.48,1.48,0,0,0,.82-.38,2.24,2.24,0,0,0,.5-.75,7,7,0,0,0,.31-1.7,3.81,3.81,0,0,1,.51-1.52A4,4,0,0,1,126.7,164a5.7,5.7,0,0,1,2.76.11,8.31,8.31,0,0,0,2.47.27,5.08,5.08,0,0,0,2-.6,5.25,5.25,0,0,0,1.24-.93,3.84,3.84,0,0,0,.77-1.07,8.29,8.29,0,0,1-.83,1,5.67,5.67,0,0,1-1.24.88,5.15,5.15,0,0,1-1.92.55,8.08,8.08,0,0,1-2.41-.29,5.79,5.79,0,0,0-2.85-.13,4.2,4.2,0,0,0-2.5,1.9,3.85,3.85,0,0,0-.54,1.6,6.79,6.79,0,0,1-.3,1.64,1.45,1.45,0,0,1-1.14,1,4.65,4.65,0,0,1-1.58-.27,2.17,2.17,0,0,0-1.64.09,2,2,0,0,0-.88,1.3,4,4,0,0,0,0,1.49c.06.47.16.92.21,1.36a3.4,3.4,0,0,1-.06,1.24,2.43,2.43,0,0,1-.52,1,1.82,1.82,0,0,1-1.78.58,1.37,1.37,0,0,1-1-1,1.35,1.35,0,0,1,0-.92C115,174.62,115.09,174.53,115.08,174.52Z"/><path class="cls-6" d="M153.91,187.46a1.63,1.63,0,0,1-.28,1,1.33,1.33,0,0,1-1,.57,1.39,1.39,0,0,1-1.27-.74,1.23,1.23,0,0,1-.11-.87,2.61,2.61,0,0,1,.4-.91,5.69,5.69,0,0,0,1.12-2,3.11,3.11,0,0,0-.55-2.48,3.71,3.71,0,0,0-1-.93,5.38,5.38,0,0,0-1.28-.55,7,7,0,0,1-1.26-.49,1.73,1.73,0,0,1-.83-.9,2.23,2.23,0,0,1-.07-1.2,4.36,4.36,0,0,1,.41-1.13,8.82,8.82,0,0,0,.93-2.1,3.42,3.42,0,0,0-.17-2,4.47,4.47,0,0,0-.94-1.36,7.15,7.15,0,0,1-.79-.94,2.42,2.42,0,0,1-.4-.95s0,0,0,.07,0,.11,0,.2a2.11,2.11,0,0,0,.3.73,8.73,8.73,0,0,0,.77,1,4.24,4.24,0,0,1,.89,1.33,3.26,3.26,0,0,1,.14,1.9,9.21,9.21,0,0,1-.93,2.05,4.5,4.5,0,0,0-.44,1.18,2.38,2.38,0,0,0,.07,1.32,2.06,2.06,0,0,0,.93,1,7.11,7.11,0,0,0,1.3.5,5.44,5.44,0,0,1,1.23.53,3.56,3.56,0,0,1,.94.87,2.94,2.94,0,0,1,.53,2.3,5.56,5.56,0,0,1-1.08,1.95,2.76,2.76,0,0,0-.41,1,1.43,1.43,0,0,0,.14,1,1.52,1.52,0,0,0,1.42.8,1.41,1.41,0,0,0,1-.65,1.48,1.48,0,0,0,.25-.76A1.14,1.14,0,0,0,153.91,187.46Z"/><path class="cls-9" d="M80.52,270.77l11-2.34,1.83,9-8.07.18.08,7.28c3.62,1,4.13,2.86,4.13,2.86l-7.58-.18-6.59-13.4Z"/><g class="cls-10"><polygon class="cls-8" points="75.3 274.18 81.89 287.58 89.47 287.76 88.64 286.6 82.49 286.12 76.41 273.45 75.3 274.18"/></g><path class="cls-6" d="M85.36,281.57c0,.07-.48-.18-1.07-.18s-1,.24-1.08.16.37-.5,1.08-.49S85.44,281.51,85.36,281.57Z"/><path class="cls-6" d="M85.28,279.76c-.07.05-.4-.4-1-.53s-1.09.13-1.14,0,.06-.16.28-.27a1.43,1.43,0,0,1,.93-.11,1.33,1.33,0,0,1,.79.5C85.29,279.59,85.32,279.74,85.28,279.76Z"/><path class="cls-6" d="M85.38,277.44c-.08,0-.33-.4-.85-.59s-1,0-1-.12.08-.15.29-.22a1.37,1.37,0,0,1,.87,0,1.39,1.39,0,0,1,.66.56C85.42,277.28,85.42,277.43,85.38,277.44Z"/><path class="cls-6" d="M85.94,277.44c-.09,0,0-.5-.26-1s-.6-.81-.55-.89.59.12.85.76S86,277.48,85.94,277.44Z"/><path class="cls-6" d="M86.84,276.59a3.2,3.2,0,0,1-.18-1c0-.37-.07-.73-.1-1.11a2.4,2.4,0,0,1,0-.71.58.58,0,0,1,.27-.37.45.45,0,0,1,.51,0,1.29,1.29,0,0,1,.43.67,2.43,2.43,0,0,1,.14.68,2.5,2.5,0,0,1-.2,1.15c-.27.62-.65.84-.66.81s.25-.31.44-.89a2.62,2.62,0,0,0,.11-1,2.58,2.58,0,0,0-.13-.6,1.39,1.39,0,0,0-.31-.51.14.14,0,0,0-.16,0,.28.28,0,0,0-.13.18,2.94,2.94,0,0,0,0,.6q0,.57,0,1.11A3.61,3.61,0,0,1,86.84,276.59Z"/><path class="cls-6" d="M87,276.92s.19-.36.78-.55a1.91,1.91,0,0,1,2.15.77.36.36,0,0,1,0,.3.47.47,0,0,1-.19.16,1.08,1.08,0,0,1-.36.07,3.21,3.21,0,0,1-.62,0,3.31,3.31,0,0,1-1-.26c-.54-.24-.79-.51-.77-.54s.33.16.85.32a4.14,4.14,0,0,0,.95.17,2.67,2.67,0,0,0,.56,0,.79.79,0,0,0,.25,0c.07,0,0,0,0-.05a.85.85,0,0,0-.15-.18,1.84,1.84,0,0,0-.22-.17,1.71,1.71,0,0,0-.49-.24,1.8,1.8,0,0,0-.91,0A5.79,5.79,0,0,0,87,276.92Z"/><g class="cls-10"><path class="cls-8" d="M81.35,274.08a.9.9,0,1,1-.88-.91A.9.9,0,0,1,81.35,274.08Z"/></g><path class="cls-9" d="M163.87,271.75l-.1,9.92s10.56,3.93,10.72,5.77H154.73L154.26,272Z"/><g class="cls-10"><path class="cls-8" d="M157.79,281a.79.79,0,0,0-.52.91.75.75,0,0,0,.9.52.83.83,0,0,0,.55-1,.79.79,0,0,0-1-.44"/></g><g class="cls-10"><path class="cls-8" d="M154.73,287.44v-1.57l18.45.12s1.38.84,1.3,1.45Z"/></g><path class="cls-6" d="M164.07,281.57c0,.09-.46.15-.92.46s-.69.71-.78.68,0-.58.6-.95S164.09,281.48,164.07,281.57Z"/><path class="cls-6" d="M166.11,282.35c0,.09-.37.26-.68.67s-.39.82-.49.82-.16-.53.23-1S166.11,282.26,166.11,282.35Z"/><path class="cls-6" d="M167.32,284.74c-.08,0-.23-.45,0-1s.66-.74.71-.66-.23.36-.41.79S167.42,284.72,167.32,284.74Z"/><path class="cls-6" d="M163.85,279.3c0,.09-.47,0-1,0s-.94.23-1,.15.34-.43,1-.48S163.89,279.23,163.85,279.3Z"/><g class="cls-11"><polygon points="163.84 273.72 163.83 275.49 154.37 275.64 154.32 274.05 163.84 273.72"/></g><path class="cls-6" d="M163.83,277.3a1.75,1.75,0,0,1-1,0,4.26,4.26,0,0,1-1-.28,5.84,5.84,0,0,1-.56-.28,1.34,1.34,0,0,1-.3-.22.42.42,0,0,1-.05-.5.51.51,0,0,1,.4-.23,1.9,1.9,0,0,1,.37,0,3.84,3.84,0,0,1,.6.2,3.08,3.08,0,0,1,.9.56c.46.4.62.74.59.76s-.27-.25-.73-.58a3.53,3.53,0,0,0-.87-.46,3.05,3.05,0,0,0-.56-.16c-.2-.05-.38-.05-.43.05s0,0,0,.1a.66.66,0,0,0,.22.16,4.29,4.29,0,0,0,.51.28,5.34,5.34,0,0,0,.94.33A6.43,6.43,0,0,1,163.83,277.3Z"/><path class="cls-6" d="M163.71,277.44a1.59,1.59,0,0,1-.28-.93,3.1,3.1,0,0,1,.11-1.05,2.67,2.67,0,0,1,.23-.59.8.8,0,0,1,.6-.51.47.47,0,0,1,.41.26,1.4,1.4,0,0,1,.11.35,2.4,2.4,0,0,1,0,.65,2.21,2.21,0,0,1-.39,1c-.36.51-.75.63-.76.6s.29-.24.56-.73a2.17,2.17,0,0,0,.29-.91,2.15,2.15,0,0,0,0-.56c0-.2-.11-.36-.19-.34s-.25.16-.33.32a3.39,3.39,0,0,0-.38,1.5C163.65,277.07,163.76,277.42,163.71,277.44Z"/><path class="cls-6" d="M111.46,250.76c.68,0,3.92,13.21,3.92,13.21l-30,4.47,1.9,11.94s35.37-2.36,37.79-2.91c4.32-1,7.58-5.16,7.43-10.63-.16-6.3-3.84-21.15-3.84-21.15Z"/><path class="cls-14" d="M130.3,252.93l-17.38,1.26s1.44,3,6.34,3.36,12,0,12,0Z"/><path class="cls-6" d="M167.38,240.67a10.44,10.44,0,0,0-10.47-9.54h-5.33l-28.79,1.49-15.62-4.76s-5.44,9.71-2.31,17.83a14.84,14.84,0,0,0,11.48,9.41c6.5,1.11,36.31-5.16,36.31-5.16v26.54l13.52-.34,1.24-34.95Z"/><path class="cls-7" d="M152.65,249.94l-.18,0-.52.11-2,.38-7.43,1.34-11,1.95L125,254.9a28.24,28.24,0,0,1-7.1.4,20,20,0,0,1-3.58-.57,14.69,14.69,0,0,1-3.31-1.21,12.75,12.75,0,0,1-4.77-4.58,16.24,16.24,0,0,1-2.2-5.58,16.68,16.68,0,0,1-.19-5.23,31.9,31.9,0,0,1,2-7.3,19.77,19.77,0,0,1,.85-1.87c.1-.21.19-.37.25-.47a1.5,1.5,0,0,1,.1-.15s0,.06-.07.17l-.23.48c-.2.42-.48,1-.8,1.89a34.12,34.12,0,0,0-1.86,7.27,17.23,17.23,0,0,0,.23,5.16,15.87,15.87,0,0,0,2.19,5.48,12.56,12.56,0,0,0,4.67,4.47,14.65,14.65,0,0,0,3.25,1.19,20.46,20.46,0,0,0,3.53.56,28.2,28.2,0,0,0,7-.4l6.52-1.12,11-1.89,7.45-1.24,2-.33.53-.08Z"/><path class="cls-7" d="M117.14,278.34l-.15,0-.43,0-1.66.14-6.23.47-21.34,1.52H87.2l0-.13c-.49-3.08-1-6.36-1.55-9.74-.12-.75-.24-1.49-.35-2.21l0-.14.15,0,30-4.4h0a20.32,20.32,0,0,1,4.46,2.93,13.67,13.67,0,0,1,1,1l.24.27a.44.44,0,0,1,.08.1l-.09-.08-.26-.26c-.23-.22-.58-.54-1.05-.94a21.65,21.65,0,0,0-4.48-2.84h0l-29.95,4.52.13-.16c.11.71.23,1.45.35,2.2.53,3.38,1,6.67,1.54,9.74l-.15-.12,21.35-1.41,6.23-.39,1.67-.09h.58Z"/><path class="cls-7" d="M155.65,246.7a8.45,8.45,0,0,0-1.83,1.33,8.54,8.54,0,0,0-1.21,1.9s0-.27.12-.68a4.07,4.07,0,0,1,.88-1.43,4,4,0,0,1,1.37-1C155.38,246.69,155.64,246.66,155.65,246.7Z"/><path class="cls-7" d="M131.46,232.26a4.73,4.73,0,0,1-.81.12c-.52.05-1.27.11-2.2.16-1.86.11-4.44.16-7.29.19s-5.41.08-7.27.18c-.93.05-1.68.1-2.2.15a4.91,4.91,0,0,1-.81,0,5.12,5.12,0,0,1,.8-.16c.51-.07,1.26-.16,2.2-.24,1.86-.16,4.44-.23,7.28-.26s5.42-.05,7.28-.1l2.21-.08A4.26,4.26,0,0,1,131.46,232.26Z"/><path class="cls-9" d="M125.69,190.25l-.29.36a10.93,10.93,0,0,0-8.31,7.8c-1.1,3.86-1.43,11-3.67,20.72,0,0-5.51,5-6.53,8.73l15.89,4.79,8.68-.48,3.34-10.41c3.25,0,4.63-1.63,5.8-4.29,1.55-3.54-3.57-19.81-3.57-19.81l.37,2.78Z"/><path class="cls-14" d="M139.34,204l3.86,7.85-2.37.36S139.36,204.55,139.34,204Z"/><path class="cls-6" d="M136.37,221.76s.28-.09.75-.3a5.49,5.49,0,0,0,1.75-1.26,7.19,7.19,0,0,0,1.6-2.76,10.34,10.34,0,0,0,.36-3.91,27.81,27.81,0,0,0-.64-3.93c-.27-1.2-.51-2.28-.66-3.2a15,15,0,0,1-.23-2.21,2.87,2.87,0,0,1,0-.81,8,8,0,0,1,.08.81c.05.51.14,1.26.32,2.17s.44,2,.72,3.18a26.2,26.2,0,0,1,.68,4,10.67,10.67,0,0,1-.4,4,7.27,7.27,0,0,1-1.71,2.83,5.4,5.4,0,0,1-1.86,1.22,4.13,4.13,0,0,1-.58.16Q136.37,221.77,136.37,221.76Z"/><path class="cls-14" d="M117.94,205.27s5.37,18.51,8.88,21.33a4.84,4.84,0,0,0,6.52,0l.65-3.19Z"/><path class="cls-17" d="M168.67,203.78c-.62-.54-1-.35-1-.35s.33-1.5-.45-2l-.44-.29c-.08-.2-.56-1.27-1.37-1.46,0,0-.11-1.41-.7-1.54a1.48,1.48,0,0,0-1.6,1l-2,3.87-1,3.93-16.59,7.73,1.78,7.6L164,212.59l3.32-3.18S169.28,204.33,168.67,203.78Z"/><path class="cls-9" d="M119.17,199.68c0,.59,9.36,25,13.8,26.74,1.68.65,27.23-8.93,27.23-8.93l-3.11-9.42s-17.87,6-18.46,6-6.18-15.49-6.18-15.49-3.51-7.33-8.77-5C120.31,195,119.17,199.68,119.17,199.68Z"/><path class="cls-6" d="M138.63,214.06l.33-.13,1-.33,3.72-1.24,13.4-4.4.12,0,0,.12c.95,2.85,2,6,3.12,9.41l0,.12-.12.05c-4,1.55-8.4,3.2-13,4.83-2.81,1-5.57,2-8.26,2.79-1.35.4-2.67.81-4,1.1a6.78,6.78,0,0,1-1,.19l-.51.07a1.27,1.27,0,0,1-.54,0,4,4,0,0,1-1.62-1.19,20.35,20.35,0,0,1-2.21-3.08c-.63-1.05-1.2-2.1-1.73-3.12-1.06-2-2-4-2.76-5.78-1.59-3.57-2.76-6.51-3.55-8.55-.4-1-.69-1.81-.89-2.35l-.22-.62q-.08-.21-.06-.21a1.63,1.63,0,0,1,.09.2l.24.61.94,2.33c.83,2,2,5,3.64,8.51.81,1.78,1.72,3.71,2.78,5.75.53,1,1.11,2,1.74,3.09a19.79,19.79,0,0,0,2.19,3,4,4,0,0,0,1.5,1.11,2.12,2.12,0,0,0,.93,0,8.42,8.42,0,0,0,1-.18c1.31-.29,2.63-.7,4-1.11,2.68-.84,5.43-1.79,8.24-2.78,4.6-1.64,9-3.28,13-4.82l-.08.17c-1.11-3.38-2.16-6.56-3.09-9.42l.15.08-13.44,4.3L140,213.67l-1,.3Z"/><path class="cls-6" d="M125.16,193.31l.26,0a6.1,6.1,0,0,1,.75,0,5.69,5.69,0,0,1,2.64.77,6.44,6.44,0,0,1,1.46,1.25A14.45,14.45,0,0,1,131.6,197a30.43,30.43,0,0,1,2.27,4.46c1.42,3.25,2.44,6.29,3.16,8.49.36,1.1.64,2,.83,2.62a7.36,7.36,0,0,1,.26,1,6.38,6.38,0,0,1-.37-.94l-.91-2.58c-.77-2.19-1.83-5.21-3.24-8.45a32,32,0,0,0-2.23-4.42,15.22,15.22,0,0,0-1.28-1.73,6,6,0,0,0-1.39-1.23,5.94,5.94,0,0,0-2.54-.84C125.52,193.32,125.16,193.34,125.16,193.31Z"/><path class="cls-19" d="M165.43,199.72c.07,0-.14.54-.47,1.11s-.65,1-.72,1,.14-.54.47-1.11S165.36,199.68,165.43,199.72Z"/><path class="cls-19" d="M166.58,201.07c.07.05-.18.49-.49,1s-.58,1-.66.93.08-.53.41-1.08S166.52,201,166.58,201.07Z"/><path class="cls-19" d="M167.7,203.42c.08,0,0,.39-.21.78s-.41.69-.48.66,0-.39.22-.78S167.63,203.39,167.7,203.42Z"/><path class="cls-6" d="M138.67,213.81c.07.05-.48.91-.89,2.07s-.53,2.18-.62,2.17a4.66,4.66,0,0,1,.34-2.26A4.53,4.53,0,0,1,138.67,213.81Z"/><path class="cls-15" d="M143.82,128.66l-4.45-1.8a1.67,1.67,0,0,0,.46,2.2,11.25,11.25,0,0,0,2.64,1.73,8.45,8.45,0,0,0,1.65,3.41c1.14,1.15,3.71-.67,3.71-.67S147.83,130.16,143.82,128.66Z"/><path class="cls-12" d="M150.5,143.12c-.53-.74-1.06-.3-1.06-.3s.62-1.58-.14-2.29l-.43-.4c-.05-.23-.39-1.49-1.23-1.84,0,0,0-1.49-.64-1.73-1-.38-2.12.76-2.12.76l-2.57,3.79-3.83,6.35,2.14,6.78,6.07-3.78,1.21-1.17S151.11,144,150.5,143.12Z"/><path class="cls-13" d="M147.69,138.23c.06,0-.12.47-.42,1s-.6.85-.67.81.11-.47.42-1S147.62,138.18,147.69,138.23Z"/><path class="cls-13" d="M148.87,140a2.46,2.46,0,0,1-.56,1.47,2.42,2.42,0,0,1-1.19,1c-.05-.07.48-.52.95-1.21S148.78,139.94,148.87,140Z"/><path class="cls-13" d="M149.4,142.58c.08,0-.05.47-.39.91s-.74.67-.79.61.24-.38.55-.79S149.33,142.54,149.4,142.58Z"/><path class="cls-15" d="M137.78,134.56a7.2,7.2,0,0,0,2.7,2,2.24,2.24,0,0,0,1.34.22,1,1,0,0,0,.81-1,1.54,1.54,0,0,0-.54-.84l-2-1.94a4.19,4.19,0,0,0,.8,1,1.48,1.48,0,0,0,1.17.35.89.89,0,0,0,.72-.9,1.48,1.48,0,0,0-.36-.69l-2.62-3.32"/><path class="cls-16" d="M142.61,136s0,.1,0,.26a1.18,1.18,0,0,1-.5.5,1.94,1.94,0,0,1-1,.27,2.39,2.39,0,0,1-1.21-.36,5,5,0,0,1-2.15-2.27,11.77,11.77,0,0,0,2.3,2,2.25,2.25,0,0,0,1.07.35,1.93,1.93,0,0,0,.9-.19A1.33,1.33,0,0,0,142.61,136Z"/><path class="cls-16" d="M142.72,133.81s0,.09-.08.24a1,1,0,0,1-.6.38,2.86,2.86,0,0,1-2.15-.61,5.07,5.07,0,0,1-1.33-1.78,2.45,2.45,0,0,1-.32-.85s.22.28.5.75a6.25,6.25,0,0,0,1.33,1.65,2.92,2.92,0,0,0,1.93.63C142.54,134.15,142.68,133.77,142.72,133.81Z"/><path class="cls-16" d="M142,136.77s.11,0,.25.14a1,1,0,0,1,.35.7,1.17,1.17,0,0,1-.54,1,1.63,1.63,0,0,1-1.43,0,4.85,4.85,0,0,1-2-1.45,2.17,2.17,0,0,1-.53-.88s.25.3.68.75a5.76,5.76,0,0,0,2,1.3,1.41,1.41,0,0,0,1.19,0,1,1,0,0,0,.47-.81,1.1,1.1,0,0,0-.22-.64C142,136.85,142,136.79,142,136.77Z"/><path class="cls-16" d="M145,134.55a2,2,0,0,1-1.35-.71,3.73,3.73,0,0,1-.85-1.46,6.91,6.91,0,0,1-.21-1,1.09,1.09,0,0,0-.13-.43.68.68,0,0,0-.36-.25,8.47,8.47,0,0,1-1.78-1,3.17,3.17,0,0,1-1-1.36,2,2,0,0,1-.12-1.14c.07-.26.17-.38.18-.37s0,.14-.07.39a2.24,2.24,0,0,0,.2,1,3.23,3.23,0,0,0,1,1.23,8.87,8.87,0,0,0,1.74.94,1.07,1.07,0,0,1,.48.36,1.26,1.26,0,0,1,.16.55,8,8,0,0,0,.19.93,3.7,3.7,0,0,0,.74,1.4A3.8,3.8,0,0,0,145,134.55Z"/><path class="cls-17" d="M159,187.05l3.46-2.68a1.52,1.52,0,0,1,.14,2,10.22,10.22,0,0,1-1.89,2.17,7.7,7.7,0,0,1-.6,3.4c-.72,1.3-3.43.34-3.43.34A5.06,5.06,0,0,1,159,187.05Z"/><path class="cls-17" d="M164.34,190.54a5.21,5.21,0,0,1-1.7,1.73,1.94,1.94,0,0,1-1.07.1.71.71,0,0,1-.64-.65,1.09,1.09,0,0,1,.34-.63l1.34-1.51a3.19,3.19,0,0,1-.52.74,1,1,0,0,1-.82.32.64.64,0,0,1-.58-.6,1.06,1.06,0,0,1,.23-.52l1.69-2.54"/><path class="cls-17" d="M164.34,191.73a3.75,3.75,0,0,1-1.66,1.68,1.29,1.29,0,0,1-.91.16.77.77,0,0,1-.53-.6.75.75,0,0,1,.3-.73"/><path class="cls-19" d="M161.54,192.24a1.19,1.19,0,0,0-.21.64.69.69,0,0,0,.38.52,1,1,0,0,0,.81-.08,4.11,4.11,0,0,0,1.35-1c.29-.34.43-.58.47-.56s0,.29-.31.68a3.36,3.36,0,0,1-1.38,1.17,1.19,1.19,0,0,1-1.07.06.87.87,0,0,1-.45-.76.76.76,0,0,1,.22-.54C161.45,192.25,161.53,192.23,161.54,192.24Z"/><path class="cls-19" d="M161,191.75s.12.24.49.35a1.47,1.47,0,0,0,.64.08,1.77,1.77,0,0,0,.73-.31,11.93,11.93,0,0,0,1.56-1.54,3.28,3.28,0,0,1-1.39,1.78,1.75,1.75,0,0,1-.87.34,1.44,1.44,0,0,1-.75-.16.8.8,0,0,1-.39-.35C161,191.83,161,191.76,161,191.75Z"/><path class="cls-19" d="M160.82,190.31s.17.22.54.23a2.15,2.15,0,0,0,1.33-.57,4.57,4.57,0,0,0,.86-1.24c.18-.35.31-.57.35-.56a1.58,1.58,0,0,1-.16.65,3.68,3.68,0,0,1-.86,1.37,2,2,0,0,1-1.54.56.69.69,0,0,1-.45-.26C160.81,190.39,160.8,190.32,160.82,190.31Z"/><path class="cls-19" d="M159.45,192.51a3,3,0,0,0,1.14-2.45,6.44,6.44,0,0,0-.06-.86,1.35,1.35,0,0,1,0-.53.92.92,0,0,1,.34-.44,8.71,8.71,0,0,0,1.3-1.26,3,3,0,0,0,.55-1.32,1.83,1.83,0,0,0-.08-1c-.08-.21-.17-.32-.15-.33s.13.06.26.28a1.77,1.77,0,0,1,.17,1,2.83,2.83,0,0,1-.54,1.45,7.17,7.17,0,0,1-1.32,1.32c-.12.11-.22.19-.25.3a1.12,1.12,0,0,0,0,.41,5.56,5.56,0,0,1,.05.9,3.45,3.45,0,0,1-.38,1.5C160,192.35,159.45,192.54,159.45,192.51Z"/><path class="cls-13" d="M134.41,94.54a5.41,5.41,0,0,1,.2,1.51,4.9,4.9,0,0,1-.21,1.66,2.3,2.3,0,0,1-.48.91,1.14,1.14,0,0,1-.51.3.81.81,0,0,1-.62-.1,1.62,1.62,0,0,1-.56-1c-.08-.33-.14-.65-.19-1a10.16,10.16,0,0,1-.11-1.66,4.54,4.54,0,0,1,.17-1.51s0,.58,0,1.51c0,.46.08,1,.18,1.62.05.3.12.61.2.93a1.35,1.35,0,0,0,.44.8.61.61,0,0,0,.76-.15,2.2,2.2,0,0,0,.44-.79,5.67,5.67,0,0,0,.25-1.58A13.06,13.06,0,0,1,134.41,94.54Z"/><path class="cls-13" d="M136.45,96a2.06,2.06,0,0,1,.06.82,4,4,0,0,1-.47,2,2.08,2.08,0,0,1-.36.48.84.84,0,0,1-.56.24.88.88,0,0,1-.77-.6,1.3,1.3,0,0,1,0-.84c.06,0,.05.33.24.76a.66.66,0,0,0,.57.41c.25,0,.49-.28.67-.6a5,5,0,0,0,.52-1.83C136.37,96.27,136.4,96,136.45,96Z"/><path class="cls-12" d="M130.32,105c1.79-1.13.29-7.23-.83-8.66,1.23-1.24,1.79-2.63.92-4.14-1.14,1.13-3.06,2.53-3.41,5.64l.35,2.37Z"/><path class="cls-13" d="M130.74,102.51a12.31,12.31,0,0,0,.19-1.62,5.7,5.7,0,0,0-1.23-3.6,6.33,6.33,0,0,0-.6-.65l-.14-.12.15-.1a3.56,3.56,0,0,0,1.14-1.36,3.61,3.61,0,0,0,.34-1.4,7.88,7.88,0,0,0-.16-1.32s.08.1.17.33a3.82,3.82,0,0,1,.18,1,3.51,3.51,0,0,1-.3,1.5,3.58,3.58,0,0,1-1.2,1.49v-.22a6,6,0,0,1,.64.68,5.57,5.57,0,0,1,1.21,3.79,4.69,4.69,0,0,1-.22,1.2C130.84,102.38,130.76,102.52,130.74,102.51Z"/></svg>