<svg id="OBJECTS" xmlns="http://www.w3.org/2000/svg" viewBox="0 0 54.41 54.41"><defs><style>.cls-1{fill:#fff;}</style></defs><path class="cls-1" d="M33,3.19A25,25,0,0,0,3.48,19a23.71,23.71,0,0,0-1.39,6.55A3.55,3.55,0,0,1,2,26v2.93c.13.95.22,1.9.38,2.84a24.47,24.47,0,0,0,8.16,14.49,24.45,24.45,0,0,0,13,6l2,.24h2.93c.95-.13,1.9-.23,2.84-.39a24.39,24.39,0,0,0,13.47-7,24.62,24.62,0,0,0,6.78-12.87A25,25,0,0,0,33,3.19Zm7,42.05a21.41,21.41,0,0,1-10.2,4.08c-.93.11-1.88.16-2.4.2a22.29,22.29,0,0,1-14.28-5,.59.59,0,0,1-.21-.47,14.22,14.22,0,0,1,27.94-1.32C41.22,44.31,41.24,44.33,40,45.24Zm-20.6-24A7.6,7.6,0,1,1,27,28.77,7.62,7.62,0,0,1,19.4,21.21ZM43.66,41.82A17.4,17.4,0,0,0,32.93,29.89a10.48,10.48,0,0,0,4.56-9,10.22,10.22,0,0,0-3.62-7.66A10.52,10.52,0,1,0,21.06,29.9,17.31,17.31,0,0,0,10.34,41.78c-5.73-6-8.4-18.52-.35-28.36a22,22,0,1,1,33.67,28.4Z"/></svg>